<svg xmlns="http://www.w3.org/2000/svg" width="1200" height="760" viewBox="0 0 1200 760" role="img" aria-labelledby="title desc">
  <title id="title">Multi-system process plant benchmark trace</title>
  <desc id="desc">A two by three grid of process variable traces for six independently scheduled process plant units.</desc>
  <rect width="100%" height="100%" fill="#f8fafc"/>
  <text x="70" y="38" font-family="Inter, system-ui, sans-serif" font-size="22" font-weight="700" fill="#111827">Multi-system process plant benchmark</text>
  <text x="70" y="62" font-family="Inter, system-ui, sans-serif" font-size="13" fill="#4b5563">Single system 101.7 ms; six systems 684.7 ms; wall-clock ratio 6.73x; simulated 300s.</text>
  
      <g>
        <rect x="58" y="56" width="374" height="241" rx="10" fill="#ffffff" stroke="#d1d5db"/>
        <text x="70" y="78" font-family="Inter, system-ui, sans-serif" font-size="16" font-weight="700" fill="#111827">unit-1</text>
        <line x1="70" y1="277" x2="420" y2="277" stroke="#9ca3af"/>
        <line x1="70" y1="92" x2="70" y2="277" stroke="#9ca3af"/>
        <path d="M 70.0 173.9 L 75.8 136.2 L 81.7 136.2 L 87.5 136.2 L 93.3 136.2 L 99.2 136.2 L 105.0 136.2 L 110.8 136.2 L 116.7 136.2 L 122.5 136.2 L 128.3 136.2 L 134.2 136.2 L 140.0 136.2 L 145.8 136.2 L 151.7 136.2 L 157.5 136.2 L 163.3 136.2 L 169.2 136.2 L 175.0 136.2 L 180.8 136.2 L 186.7 136.2 L 192.5 136.2 L 198.3 136.2 L 204.2 136.2 L 210.0 136.2 L 215.8 136.2 L 221.7 136.2 L 227.5 136.2 L 233.3 136.2 L 239.2 136.2 L 245.0 136.2 L 250.8 136.2 L 256.7 136.2 L 262.5 136.2 L 268.3 136.2 L 274.2 136.2 L 280.0 136.2 L 285.8 136.2 L 291.7 136.2 L 297.5 136.2 L 303.3 136.2 L 309.2 136.2 L 315.0 136.2 L 320.8 136.2 L 326.7 136.2 L 332.5 136.2 L 338.3 136.2 L 344.2 136.2 L 350.0 136.2 L 355.8 136.2 L 361.7 136.2 L 367.5 136.2 L 373.3 136.2 L 379.2 136.2 L 385.0 136.2 L 390.8 136.2 L 396.7 136.2 L 402.5 136.2 L 408.3 136.2 L 414.2 136.2 L 420.0 136.2" fill="none" stroke="#2563eb" stroke-width="2.4"/>
        <path d="M 70.0 184.5 L 75.8 184.2 L 81.7 183.9 L 87.5 183.6 L 93.3 183.3 L 99.2 183.0 L 105.0 182.8 L 110.8 182.5 L 116.7 182.2 L 122.5 181.9 L 128.3 181.6 L 134.2 181.3 L 140.0 181.0 L 145.8 180.7 L 151.7 180.4 L 157.5 180.1 L 163.3 179.8 L 169.2 179.6 L 175.0 179.3 L 180.8 179.0 L 186.7 178.7 L 192.5 178.4 L 198.3 178.1 L 204.2 177.8 L 210.0 177.5 L 215.8 177.2 L 221.7 176.9 L 227.5 176.7 L 233.3 176.4 L 239.2 176.1 L 245.0 175.8 L 250.8 175.5 L 256.7 175.2 L 262.5 174.9 L 268.3 174.6 L 274.2 174.3 L 280.0 174.0 L 285.8 173.8 L 291.7 173.5 L 297.5 173.2 L 303.3 172.9 L 309.2 172.6 L 315.0 172.3 L 320.8 172.0 L 326.7 171.7 L 332.5 171.4 L 338.3 171.1 L 344.2 170.9 L 350.0 170.6 L 355.8 170.3 L 361.7 170.0 L 367.5 169.7 L 373.3 169.4 L 379.2 169.1 L 385.0 168.8 L 390.8 168.5 L 396.7 168.2 L 402.5 167.9 L 408.3 167.7 L 414.2 167.4 L 420.0 167.1" fill="none" stroke="#0f766e" stroke-width="2.4"/>
        <path d="M 70.0 104.0 L 75.8 121.6 L 81.7 126.9 L 87.5 128.9 L 93.3 129.6 L 99.2 129.8 L 105.0 129.9 L 110.8 130.0 L 116.7 130.0 L 122.5 130.0 L 128.3 130.0 L 134.2 130.0 L 140.0 130.0 L 145.8 130.0 L 151.7 130.0 L 157.5 130.0 L 163.3 130.0 L 169.2 130.0 L 175.0 130.0 L 180.8 130.0 L 186.7 130.0 L 192.5 130.0 L 198.3 130.0 L 204.2 130.0 L 210.0 130.0 L 215.8 130.0 L 221.7 130.0 L 227.5 130.0 L 233.3 130.0 L 239.2 130.0 L 245.0 130.0 L 250.8 130.0 L 256.7 130.0 L 262.5 130.0 L 268.3 130.0 L 274.2 130.0 L 280.0 130.0 L 285.8 130.0 L 291.7 130.0 L 297.5 130.0 L 303.3 130.0 L 309.2 130.0 L 315.0 130.0 L 320.8 130.0 L 326.7 130.0 L 332.5 130.0 L 338.3 130.0 L 344.2 130.0 L 350.0 130.0 L 355.8 130.0 L 361.7 130.0 L 367.5 130.0 L 373.3 130.0 L 379.2 130.0 L 385.0 130.0 L 390.8 130.0 L 396.7 130.0 L 402.5 130.0 L 408.3 130.0 L 414.2 130.0 L 420.0 130.0" fill="none" stroke="#dc2626" stroke-width="2.4"/>
        <text x="70" y="293" font-family="Inter, system-ui, sans-serif" font-size="11" fill="#6b7280">T+0 to T+300s</text>
      </g>
      <g>
        <rect x="443" y="56" width="374" height="241" rx="10" fill="#ffffff" stroke="#d1d5db"/>
        <text x="455" y="78" font-family="Inter, system-ui, sans-serif" font-size="16" font-weight="700" fill="#111827">unit-2</text>
        <line x1="455" y1="277" x2="805" y2="277" stroke="#9ca3af"/>
        <line x1="455" y1="92" x2="455" y2="277" stroke="#9ca3af"/>
        <path d="M 455.0 173.9 L 460.8 136.2 L 466.7 136.2 L 472.5 136.2 L 478.3 136.2 L 484.2 136.2 L 490.0 136.2 L 495.8 136.2 L 501.7 136.2 L 507.5 136.2 L 513.3 136.2 L 519.2 136.2 L 525.0 136.2 L 530.8 136.2 L 536.7 136.2 L 542.5 136.2 L 548.3 136.2 L 554.2 136.2 L 560.0 136.2 L 565.8 136.2 L 571.7 136.2 L 577.5 136.2 L 583.3 136.2 L 589.2 136.2 L 595.0 136.2 L 600.8 136.2 L 606.7 136.2 L 612.5 136.2 L 618.3 136.2 L 624.2 136.2 L 630.0 136.2 L 635.8 136.2 L 641.7 136.2 L 647.5 136.2 L 653.3 136.2 L 659.2 136.2 L 665.0 136.2 L 670.8 136.2 L 676.7 136.2 L 682.5 136.2 L 688.3 136.2 L 694.2 136.2 L 700.0 136.2 L 705.8 136.2 L 711.7 136.2 L 717.5 136.2 L 723.3 136.2 L 729.2 136.2 L 735.0 136.2 L 740.8 136.2 L 746.7 136.2 L 752.5 136.2 L 758.3 136.2 L 764.2 136.2 L 770.0 136.2 L 775.8 136.2 L 781.7 136.2 L 787.5 136.2 L 793.3 136.2 L 799.2 136.2 L 805.0 136.2" fill="none" stroke="#2563eb" stroke-width="2.4"/>
        <path d="M 455.0 184.5 L 460.8 184.2 L 466.7 183.9 L 472.5 183.6 L 478.3 183.3 L 484.2 183.0 L 490.0 182.8 L 495.8 182.5 L 501.7 182.2 L 507.5 181.9 L 513.3 181.6 L 519.2 181.3 L 525.0 180.9 L 530.8 180.2 L 536.7 179.5 L 542.5 178.8 L 548.3 178.1 L 554.2 177.4 L 560.0 176.7 L 565.8 176.0 L 571.7 175.3 L 577.5 174.6 L 583.3 173.9 L 589.2 173.2 L 595.0 172.5 L 600.8 171.8 L 606.7 171.1 L 612.5 170.4 L 618.3 169.7 L 624.2 169.0 L 630.0 168.3 L 635.8 167.6 L 641.7 166.9 L 647.5 166.2 L 653.3 165.5 L 659.2 164.8 L 665.0 164.1 L 670.8 163.4 L 676.7 162.7 L 682.5 162.0 L 688.3 161.3 L 694.2 160.6 L 700.0 159.9 L 705.8 159.2 L 711.7 158.4 L 717.5 157.7 L 723.3 157.0 L 729.2 156.3 L 735.0 155.6 L 740.8 154.9 L 746.7 154.2 L 752.5 153.5 L 758.3 152.8 L 764.2 152.1 L 770.0 151.4 L 775.8 150.7 L 781.7 150.0 L 787.5 149.3 L 793.3 148.6 L 799.2 147.9 L 805.0 147.2" fill="none" stroke="#0f766e" stroke-width="2.4"/>
        <path d="M 455.0 104.0 L 460.8 121.6 L 466.7 126.9 L 472.5 128.9 L 478.3 129.6 L 484.2 129.8 L 490.0 129.9 L 495.8 130.0 L 501.7 130.0 L 507.5 130.0 L 513.3 130.0 L 519.2 130.0 L 525.0 135.5 L 530.8 155.3 L 536.7 162.6 L 542.5 165.2 L 548.3 166.2 L 554.2 166.5 L 560.0 166.7 L 565.8 166.7 L 571.7 166.7 L 577.5 166.7 L 583.3 166.7 L 589.2 166.7 L 595.0 166.7 L 600.8 166.7 L 606.7 166.7 L 612.5 166.7 L 618.3 166.7 L 624.2 166.7 L 630.0 166.7 L 635.8 166.7 L 641.7 166.7 L 647.5 166.7 L 653.3 166.7 L 659.2 166.7 L 665.0 166.7 L 670.8 166.7 L 676.7 166.7 L 682.5 166.7 L 688.3 166.7 L 694.2 166.7 L 700.0 166.7 L 705.8 166.7 L 711.7 166.7 L 717.5 166.7 L 723.3 166.7 L 729.2 166.7 L 735.0 166.7 L 740.8 166.7 L 746.7 166.7 L 752.5 166.7 L 758.3 166.7 L 764.2 166.7 L 770.0 166.7 L 775.8 166.7 L 781.7 166.7 L 787.5 166.7 L 793.3 166.7 L 799.2 166.7 L 805.0 166.7" fill="none" stroke="#dc2626" stroke-width="2.4"/>
        <text x="455" y="293" font-family="Inter, system-ui, sans-serif" font-size="11" fill="#6b7280">T+0 to T+300s</text>
      </g>
      <g>
        <rect x="828" y="56" width="374" height="241" rx="10" fill="#ffffff" stroke="#d1d5db"/>
        <text x="840" y="78" font-family="Inter, system-ui, sans-serif" font-size="16" font-weight="700" fill="#111827">unit-3</text>
        <line x1="840" y1="277" x2="1190" y2="277" stroke="#9ca3af"/>
        <line x1="840" y1="92" x2="840" y2="277" stroke="#9ca3af"/>
        <path d="M 840.0 173.9 L 845.8 136.2 L 851.7 136.2 L 857.5 136.2 L 863.3 136.2 L 869.2 136.2 L 875.0 136.2 L 880.8 136.2 L 886.7 136.2 L 892.5 136.2 L 898.3 136.2 L 904.2 136.2 L 910.0 136.2 L 915.8 136.2 L 921.7 136.2 L 927.5 136.2 L 933.3 136.2 L 939.2 136.2 L 945.0 136.2 L 950.8 136.2 L 956.7 136.2 L 962.5 136.2 L 968.3 136.2 L 974.2 136.2 L 980.0 136.2 L 985.8 136.2 L 991.7 136.2 L 997.5 136.2 L 1003.3 136.2 L 1009.2 136.2 L 1015.0 136.2 L 1020.8 136.2 L 1026.7 136.2 L 1032.5 136.2 L 1038.3 136.2 L 1044.2 136.2 L 1050.0 136.2 L 1055.8 136.2 L 1061.7 136.2 L 1067.5 136.2 L 1073.3 136.2 L 1079.2 136.2 L 1085.0 136.2 L 1090.8 136.2 L 1096.7 136.2 L 1102.5 136.2 L 1108.3 136.2 L 1114.2 136.2 L 1120.0 136.2 L 1125.8 136.2 L 1131.7 136.2 L 1137.5 136.2 L 1143.3 136.2 L 1149.2 136.2 L 1155.0 136.2 L 1160.8 136.2 L 1166.7 136.2 L 1172.5 136.2 L 1178.3 136.2 L 1184.2 136.2 L 1190.0 136.2" fill="none" stroke="#2563eb" stroke-width="2.4"/>
        <path d="M 840.0 184.5 L 845.8 184.2 L 851.7 183.9 L 857.5 183.6 L 863.3 183.3 L 869.2 183.0 L 875.0 182.8 L 880.8 182.5 L 886.7 182.2 L 892.5 181.9 L 898.3 181.6 L 904.2 181.3 L 910.0 181.0 L 915.8 180.7 L 921.7 180.4 L 927.5 180.1 L 933.3 179.8 L 939.2 179.6 L 945.0 179.3 L 950.8 179.0 L 956.7 178.7 L 962.5 178.4 L 968.3 178.1 L 974.2 177.8 L 980.0 177.5 L 985.8 177.2 L 991.7 176.9 L 997.5 176.7 L 1003.3 176.4 L 1009.2 176.1 L 1015.0 175.8 L 1020.8 175.5 L 1026.7 175.2 L 1032.5 174.9 L 1038.3 174.6 L 1044.2 174.3 L 1050.0 174.0 L 1055.8 173.8 L 1061.7 173.5 L 1067.5 173.2 L 1073.3 172.9 L 1079.2 172.6 L 1085.0 172.3 L 1090.8 172.0 L 1096.7 171.7 L 1102.5 171.4 L 1108.3 171.1 L 1114.2 170.9 L 1120.0 170.6 L 1125.8 170.3 L 1131.7 170.0 L 1137.5 169.7 L 1143.3 169.4 L 1149.2 169.1 L 1155.0 168.8 L 1160.8 168.5 L 1166.7 168.2 L 1172.5 167.9 L 1178.3 167.7 L 1184.2 167.4 L 1190.0 167.1" fill="none" stroke="#0f766e" stroke-width="2.4"/>
        <path d="M 840.0 104.0 L 845.8 121.6 L 851.7 126.9 L 857.5 128.9 L 863.3 129.6 L 869.2 129.8 L 875.0 129.9 L 880.8 130.0 L 886.7 130.0 L 892.5 130.0 L 898.3 130.0 L 904.2 130.0 L 910.0 130.0 L 915.8 130.0 L 921.7 130.0 L 927.5 130.0 L 933.3 130.0 L 939.2 130.0 L 945.0 130.0 L 950.8 130.0 L 956.7 130.0 L 962.5 130.0 L 968.3 130.0 L 974.2 130.0 L 980.0 135.5 L 985.8 155.3 L 991.7 162.6 L 997.5 165.2 L 1003.3 166.2 L 1009.2 166.5 L 1015.0 166.7 L 1020.8 166.7 L 1026.7 166.7 L 1032.5 166.7 L 1038.3 166.7 L 1044.2 166.7 L 1050.0 166.7 L 1055.8 166.7 L 1061.7 166.7 L 1067.5 166.7 L 1073.3 166.7 L 1079.2 166.7 L 1085.0 166.7 L 1090.8 166.7 L 1096.7 166.7 L 1102.5 166.7 L 1108.3 166.7 L 1114.2 166.7 L 1120.0 166.7 L 1125.8 166.7 L 1131.7 166.7 L 1137.5 166.7 L 1143.3 166.7 L 1149.2 166.7 L 1155.0 166.7 L 1160.8 166.7 L 1166.7 166.7 L 1172.5 166.7 L 1178.3 166.7 L 1184.2 166.7 L 1190.0 166.7" fill="none" stroke="#dc2626" stroke-width="2.4"/>
        <text x="840" y="293" font-family="Inter, system-ui, sans-serif" font-size="11" fill="#6b7280">T+0 to T+300s</text>
      </g>
      <g>
        <rect x="58" y="296" width="374" height="241" rx="10" fill="#ffffff" stroke="#d1d5db"/>
        <text x="70" y="318" font-family="Inter, system-ui, sans-serif" font-size="16" font-weight="700" fill="#111827">unit-4</text>
        <line x1="70" y1="517" x2="420" y2="517" stroke="#9ca3af"/>
        <line x1="70" y1="332" x2="70" y2="517" stroke="#9ca3af"/>
        <path d="M 70.0 413.9 L 75.8 376.2 L 81.7 376.2 L 87.5 376.2 L 93.3 376.2 L 99.2 376.2 L 105.0 376.2 L 110.8 376.2 L 116.7 376.2 L 122.5 376.2 L 128.3 376.2 L 134.2 376.2 L 140.0 376.2 L 145.8 376.2 L 151.7 376.2 L 157.5 376.2 L 163.3 376.2 L 169.2 376.2 L 175.0 376.2 L 180.8 376.2 L 186.7 376.2 L 192.5 376.2 L 198.3 376.2 L 204.2 376.2 L 210.0 376.2 L 215.8 376.2 L 221.7 376.2 L 227.5 376.2 L 233.3 376.2 L 239.2 376.2 L 245.0 376.2 L 250.8 376.2 L 256.7 376.2 L 262.5 376.2 L 268.3 376.2 L 274.2 376.2 L 280.0 376.2 L 285.8 376.2 L 291.7 376.2 L 297.5 376.2 L 303.3 376.2 L 309.2 376.2 L 315.0 376.2 L 320.8 376.2 L 326.7 376.2 L 332.5 376.2 L 338.3 376.2 L 344.2 376.2 L 350.0 376.2 L 355.8 376.2 L 361.7 376.2 L 367.5 376.2 L 373.3 376.2 L 379.2 376.2 L 385.0 376.2 L 390.8 376.2 L 396.7 376.2 L 402.5 376.2 L 408.3 376.2 L 414.2 376.2 L 420.0 376.2" fill="none" stroke="#2563eb" stroke-width="2.4"/>
        <path d="M 70.0 424.5 L 75.8 424.2 L 81.7 423.9 L 87.5 423.6 L 93.3 423.3 L 99.2 423.0 L 105.0 422.8 L 110.8 422.5 L 116.7 422.2 L 122.5 421.9 L 128.3 421.6 L 134.2 421.3 L 140.0 421.0 L 145.8 420.7 L 151.7 420.4 L 157.5 420.1 L 163.3 419.8 L 169.2 419.6 L 175.0 419.3 L 180.8 419.0 L 186.7 418.7 L 192.5 418.4 L 198.3 418.1 L 204.2 417.8 L 210.0 417.5 L 215.8 417.2 L 221.7 416.9 L 227.5 416.7 L 233.3 416.4 L 239.2 416.1 L 245.0 415.8 L 250.8 415.5 L 256.7 415.2 L 262.5 414.9 L 268.3 414.6 L 274.2 414.3 L 280.0 414.2 L 285.8 414.6 L 291.7 415.0 L 297.5 415.4 L 303.3 415.8 L 309.2 416.2 L 315.0 416.7 L 320.8 417.1 L 326.7 417.5 L 332.5 417.9 L 338.3 418.3 L 344.2 418.7 L 350.0 419.1 L 355.8 419.6 L 361.7 420.0 L 367.5 420.4 L 373.3 420.8 L 379.2 421.2 L 385.0 421.6 L 390.8 422.0 L 396.7 422.4 L 402.5 422.9 L 408.3 423.3 L 414.2 423.7 L 420.0 424.1" fill="none" stroke="#0f766e" stroke-width="2.4"/>
        <path d="M 70.0 344.0 L 75.8 361.6 L 81.7 366.9 L 87.5 368.9 L 93.3 369.6 L 99.2 369.8 L 105.0 369.9 L 110.8 370.0 L 116.7 370.0 L 122.5 370.0 L 128.3 370.0 L 134.2 370.0 L 140.0 370.0 L 145.8 370.0 L 151.7 370.0 L 157.5 370.0 L 163.3 370.0 L 169.2 370.0 L 175.0 370.0 L 180.8 370.0 L 186.7 370.0 L 192.5 370.0 L 198.3 370.0 L 204.2 370.0 L 210.0 370.0 L 215.8 370.0 L 221.7 370.0 L 227.5 370.0 L 233.3 370.0 L 239.2 370.0 L 245.0 370.0 L 250.8 370.0 L 256.7 370.0 L 262.5 370.0 L 268.3 370.0 L 274.2 370.0 L 280.0 370.0 L 285.8 370.0 L 291.7 370.0 L 297.5 370.0 L 303.3 370.0 L 309.2 370.0 L 315.0 370.0 L 320.8 370.0 L 326.7 370.0 L 332.5 370.0 L 338.3 370.0 L 344.2 370.0 L 350.0 370.0 L 355.8 370.0 L 361.7 370.0 L 367.5 370.0 L 373.3 370.0 L 379.2 370.0 L 385.0 370.0 L 390.8 370.0 L 396.7 370.0 L 402.5 370.0 L 408.3 370.0 L 414.2 370.0 L 420.0 370.0" fill="none" stroke="#dc2626" stroke-width="2.4"/>
        <text x="70" y="533" font-family="Inter, system-ui, sans-serif" font-size="11" fill="#6b7280">T+0 to T+300s</text>
      </g>
      <g>
        <rect x="443" y="296" width="374" height="241" rx="10" fill="#ffffff" stroke="#d1d5db"/>
        <text x="455" y="318" font-family="Inter, system-ui, sans-serif" font-size="16" font-weight="700" fill="#111827">unit-5</text>
        <line x1="455" y1="517" x2="805" y2="517" stroke="#9ca3af"/>
        <line x1="455" y1="332" x2="455" y2="517" stroke="#9ca3af"/>
        <path d="M 455.0 413.9 L 460.8 376.2 L 466.7 376.2 L 472.5 376.2 L 478.3 376.2 L 484.2 376.2 L 490.0 376.2 L 495.8 376.2 L 501.7 376.2 L 507.5 376.2 L 513.3 376.2 L 519.2 376.2 L 525.0 376.2 L 530.8 376.2 L 536.7 376.2 L 542.5 376.2 L 548.3 376.2 L 554.2 376.2 L 560.0 376.2 L 565.8 376.2 L 571.7 376.2 L 577.5 376.2 L 583.3 376.2 L 589.2 376.2 L 595.0 376.2 L 600.8 376.2 L 606.7 376.2 L 612.5 376.2 L 618.3 376.2 L 624.2 376.2 L 630.0 376.2 L 635.8 376.2 L 641.7 376.2 L 647.5 376.2 L 653.3 376.2 L 659.2 376.2 L 665.0 376.2 L 670.8 376.2 L 676.7 376.2 L 682.5 376.2 L 688.3 376.2 L 694.2 376.2 L 700.0 376.2 L 705.8 376.2 L 711.7 376.2 L 717.5 376.2 L 723.3 376.2 L 729.2 376.2 L 735.0 376.2 L 740.8 376.2 L 746.7 376.2 L 752.5 376.2 L 758.3 376.2 L 764.2 376.2 L 770.0 376.2 L 775.8 376.2 L 781.7 376.2 L 787.5 376.2 L 793.3 376.2 L 799.2 376.2 L 805.0 376.2" fill="none" stroke="#2563eb" stroke-width="2.4"/>
        <path d="M 455.0 424.5 L 460.8 424.2 L 466.7 423.9 L 472.5 423.6 L 478.3 423.3 L 484.2 423.0 L 490.0 422.8 L 495.8 422.5 L 501.7 422.2 L 507.5 421.9 L 513.3 421.6 L 519.2 421.3 L 525.0 421.0 L 530.8 420.7 L 536.7 420.4 L 542.5 420.1 L 548.3 419.8 L 554.2 419.6 L 560.0 419.2 L 565.8 418.7 L 571.7 418.3 L 577.5 417.8 L 583.3 417.3 L 589.2 416.8 L 595.0 416.3 L 600.8 415.8 L 606.7 415.4 L 612.5 414.9 L 618.3 414.4 L 624.2 413.9 L 630.0 413.4 L 635.8 412.9 L 641.7 412.4 L 647.5 412.0 L 653.3 411.5 L 659.2 411.0 L 665.0 410.5 L 670.8 410.0 L 676.7 409.5 L 682.5 409.1 L 688.3 408.6 L 694.2 408.1 L 700.0 407.6 L 705.8 407.1 L 711.7 406.6 L 717.5 406.1 L 723.3 405.7 L 729.2 405.2 L 735.0 404.7 L 740.8 404.2 L 746.7 403.7 L 752.5 403.2 L 758.3 402.8 L 764.2 402.3 L 770.0 401.8 L 775.8 401.3 L 781.7 400.8 L 787.5 400.3 L 793.3 399.9 L 799.2 399.4 L 805.0 398.9" fill="none" stroke="#0f766e" stroke-width="2.4"/>
        <path d="M 455.0 344.0 L 460.8 361.6 L 466.7 366.9 L 472.5 368.9 L 478.3 369.6 L 484.2 369.8 L 490.0 369.9 L 495.8 370.0 L 501.7 370.0 L 507.5 370.0 L 513.3 370.0 L 519.2 370.0 L 525.0 370.0 L 530.8 370.0 L 536.7 370.0 L 542.5 370.0 L 548.3 370.0 L 554.2 370.0 L 560.0 389.3 L 565.8 444.3 L 571.7 464.3 L 577.5 471.6 L 583.3 474.3 L 589.2 475.2 L 595.0 475.6 L 600.8 475.7 L 606.7 475.8 L 612.5 475.8 L 618.3 475.8 L 624.2 475.8 L 630.0 475.8 L 635.8 475.8 L 641.7 475.8 L 647.5 475.8 L 653.3 475.8 L 659.2 475.8 L 665.0 475.8 L 670.8 475.8 L 676.7 475.8 L 682.5 475.8 L 688.3 475.8 L 694.2 475.8 L 700.0 475.8 L 705.8 475.8 L 711.7 475.8 L 717.5 475.8 L 723.3 475.8 L 729.2 475.8 L 735.0 475.8 L 740.8 475.8 L 746.7 475.8 L 752.5 475.8 L 758.3 475.8 L 764.2 475.8 L 770.0 475.8 L 775.8 475.8 L 781.7 475.8 L 787.5 475.8 L 793.3 475.8 L 799.2 475.8 L 805.0 475.8" fill="none" stroke="#dc2626" stroke-width="2.4"/>
        <text x="455" y="533" font-family="Inter, system-ui, sans-serif" font-size="11" fill="#6b7280">T+0 to T+300s</text>
      </g>
      <g>
        <rect x="828" y="296" width="374" height="241" rx="10" fill="#ffffff" stroke="#d1d5db"/>
        <text x="840" y="318" font-family="Inter, system-ui, sans-serif" font-size="16" font-weight="700" fill="#111827">unit-6</text>
        <line x1="840" y1="517" x2="1190" y2="517" stroke="#9ca3af"/>
        <line x1="840" y1="332" x2="840" y2="517" stroke="#9ca3af"/>
        <path d="M 840.0 413.9 L 845.8 376.2 L 851.7 376.2 L 857.5 376.2 L 863.3 376.2 L 869.2 376.2 L 875.0 376.2 L 880.8 376.2 L 886.7 376.2 L 892.5 376.2 L 898.3 376.2 L 904.2 376.2 L 910.0 376.2 L 915.8 376.2 L 921.7 376.2 L 927.5 376.2 L 933.3 376.2 L 939.2 376.2 L 945.0 376.2 L 950.8 376.2 L 956.7 376.2 L 962.5 376.2 L 968.3 376.2 L 974.2 376.2 L 980.0 376.2 L 985.8 376.2 L 991.7 376.2 L 997.5 376.2 L 1003.3 376.2 L 1009.2 376.2 L 1015.0 376.2 L 1020.8 376.2 L 1026.7 376.2 L 1032.5 376.2 L 1038.3 376.2 L 1044.2 376.2 L 1050.0 376.2 L 1055.8 376.2 L 1061.7 376.2 L 1067.5 376.2 L 1073.3 376.2 L 1079.2 376.2 L 1085.0 376.2 L 1090.8 376.2 L 1096.7 376.2 L 1102.5 376.2 L 1108.3 376.2 L 1114.2 376.2 L 1120.0 376.2 L 1125.8 376.2 L 1131.7 376.2 L 1137.5 376.2 L 1143.3 376.2 L 1149.2 376.2 L 1155.0 376.2 L 1160.8 376.2 L 1166.7 376.2 L 1172.5 376.2 L 1178.3 376.2 L 1184.2 376.2 L 1190.0 376.2" fill="none" stroke="#2563eb" stroke-width="2.4"/>
        <path d="M 840.0 424.5 L 845.8 424.2 L 851.7 423.9 L 857.5 423.6 L 863.3 423.3 L 869.2 423.0 L 875.0 422.8 L 880.8 422.5 L 886.7 422.2 L 892.5 421.9 L 898.3 421.6 L 904.2 421.3 L 910.0 421.0 L 915.8 420.7 L 921.7 420.4 L 927.5 420.1 L 933.3 419.8 L 939.2 419.6 L 945.0 419.3 L 950.8 419.0 L 956.7 418.7 L 962.5 418.4 L 968.3 418.1 L 974.2 417.8 L 980.0 417.5 L 985.8 417.2 L 991.7 416.9 L 997.5 416.7 L 1003.3 416.4 L 1009.2 416.1 L 1015.0 415.8 L 1020.8 415.5 L 1026.7 415.2 L 1032.5 414.9 L 1038.3 414.6 L 1044.2 414.3 L 1050.0 414.0 L 1055.8 413.8 L 1061.7 413.5 L 1067.5 413.2 L 1073.3 412.9 L 1079.2 412.6 L 1085.0 412.3 L 1090.8 412.0 L 1096.7 411.7 L 1102.5 411.4 L 1108.3 411.1 L 1114.2 410.9 L 1120.0 410.6 L 1125.8 410.7 L 1131.7 410.8 L 1137.5 410.8 L 1143.3 410.9 L 1149.2 410.9 L 1155.0 411.0 L 1160.8 411.1 L 1166.7 411.1 L 1172.5 411.2 L 1178.3 411.2 L 1184.2 411.3 L 1190.0 411.4" fill="none" stroke="#0f766e" stroke-width="2.4"/>
        <path d="M 840.0 344.0 L 845.8 361.6 L 851.7 366.9 L 857.5 368.9 L 863.3 369.6 L 869.2 369.8 L 875.0 369.9 L 880.8 370.0 L 886.7 370.0 L 892.5 370.0 L 898.3 370.0 L 904.2 370.0 L 910.0 370.0 L 915.8 370.0 L 921.7 370.0 L 927.5 370.0 L 933.3 370.0 L 939.2 370.0 L 945.0 370.0 L 950.8 370.0 L 956.7 370.0 L 962.5 370.0 L 968.3 370.0 L 974.2 370.0 L 980.0 370.0 L 985.8 370.0 L 991.7 370.0 L 997.5 370.0 L 1003.3 370.0 L 1009.2 370.0 L 1015.0 375.5 L 1020.8 395.3 L 1026.7 402.6 L 1032.5 405.2 L 1038.3 406.2 L 1044.2 406.5 L 1050.0 406.7 L 1055.8 406.7 L 1061.7 406.7 L 1067.5 406.7 L 1073.3 406.7 L 1079.2 406.7 L 1085.0 406.7 L 1090.8 406.7 L 1096.7 406.7 L 1102.5 406.7 L 1108.3 406.7 L 1114.2 406.7 L 1120.0 406.7 L 1125.8 406.7 L 1131.7 406.7 L 1137.5 406.7 L 1143.3 406.7 L 1149.2 406.7 L 1155.0 406.7 L 1160.8 406.7 L 1166.7 406.7 L 1172.5 406.7 L 1178.3 406.7 L 1184.2 406.7 L 1190.0 406.7" fill="none" stroke="#dc2626" stroke-width="2.4"/>
        <text x="840" y="533" font-family="Inter, system-ui, sans-serif" font-size="11" fill="#6b7280">T+0 to T+300s</text>
      </g>
  <g font-family="Inter, system-ui, sans-serif" font-size="13" fill="#374151">
    <line x1="70" y1="640" x2="100" y2="640" stroke="#2563eb" stroke-width="3"/><text x="110" y="644">Core power MW, scaled 2500-3200</text>
    <line x1="330" y1="640" x2="360" y2="640" stroke="#0f766e" stroke-width="3"/><text x="370" y="644">SG A level %, scaled 45-65</text>
    <line x1="610" y1="640" x2="640" y2="640" stroke="#dc2626" stroke-width="3"/><text x="650" y="644">Turbine electric MW, scaled 0-1000</text>
  </g>
</svg>
