<svg xmlns="http://www.w3.org/2000/svg" width="1000" height="560" viewBox="0 0 1000 560" role="img" aria-labelledby="title desc">
  <title id="title">Process plant trace</title>
  <desc id="desc">Trace from the expanded process plant model, including an RCP A trip at T plus 120 seconds and loss of main feedwater at T plus 240 seconds.</desc>
  <rect width="1000" height="560" fill="#f8fafc"/>
  <text x="74" y="30" font-family="Inter, system-ui, sans-serif" font-size="20" font-weight="700" fill="#111827">Expanded process plant trace</text>
  <text x="74" y="50" font-family="Inter, system-ui, sans-serif" font-size="13" fill="#4b5563">RCP A trips at T+120s; both main feedwater pumps trip at T+240s. Each series is independently scaled to show trend direction.</text>
  <rect x="74" y="48" width="706" height="440" fill="#ffffff" stroke="#cbd5e1"/>
  <line x1="74.0" y1="48" x2="74.0" y2="488" stroke="#e2e8f0"/><text x="74.0" y="526" font-family="Inter, system-ui, sans-serif" font-size="12" text-anchor="middle" fill="#475569">0s</text>
  <line x1="215.2" y1="48" x2="215.2" y2="488" stroke="#e2e8f0"/><text x="215.2" y="526" font-family="Inter, system-ui, sans-serif" font-size="12" text-anchor="middle" fill="#475569">120s</text>
  <line x1="356.4" y1="48" x2="356.4" y2="488" stroke="#e2e8f0"/><text x="356.4" y="526" font-family="Inter, system-ui, sans-serif" font-size="12" text-anchor="middle" fill="#475569">240s</text>
  <line x1="497.6" y1="48" x2="497.6" y2="488" stroke="#e2e8f0"/><text x="497.6" y="526" font-family="Inter, system-ui, sans-serif" font-size="12" text-anchor="middle" fill="#475569">360s</text>
  <line x1="638.8" y1="48" x2="638.8" y2="488" stroke="#e2e8f0"/><text x="638.8" y="526" font-family="Inter, system-ui, sans-serif" font-size="12" text-anchor="middle" fill="#475569">480s</text>
  <line x1="780.0" y1="48" x2="780.0" y2="488" stroke="#e2e8f0"/><text x="780.0" y="526" font-family="Inter, system-ui, sans-serif" font-size="12" text-anchor="middle" fill="#475569">600s</text>
  <line x1="215.2" y1="48" x2="215.2" y2="488" stroke="#dc2626" stroke-dasharray="6 5"/>
  <text x="221.2" y="66" font-family="Inter, system-ui, sans-serif" font-size="12" fill="#dc2626">RCP A trip</text>
  <line x1="356.4" y1="48" x2="356.4" y2="488" stroke="#b45309" stroke-dasharray="6 5"/>
  <text x="362.4" y="84" font-family="Inter, system-ui, sans-serif" font-size="12" fill="#b45309">Main feedwater loss</text>
  <polyline points="74.0,488.0 85.8,48.0 97.5,48.0 109.3,48.0 121.1,48.0 132.8,48.0 144.6,48.0 156.4,48.0 168.1,48.0 179.9,48.0 191.7,48.0 203.4,48.0 215.2,48.0 227.0,48.0 238.7,48.0 250.5,48.0 262.3,48.0 274.0,48.0 285.8,48.0 297.6,48.0 309.3,48.0 321.1,48.0 332.9,48.0 344.6,48.0 356.4,48.0 368.2,48.0 379.9,48.0 391.7,48.0 403.5,48.0 415.2,48.0 427.0,48.0 438.8,48.0 450.5,48.0 462.3,48.0 474.1,48.0 485.8,48.0 497.6,48.0 509.4,48.0 521.1,48.0 532.9,48.0 544.7,48.0 556.4,48.0 568.2,48.0 580.0,48.0 591.7,48.0 603.5,48.0 615.3,48.0 627.0,48.0 638.8,48.0 650.6,48.0 662.3,48.0 674.1,48.0 685.9,48.0 697.6,48.0 709.4,48.0 721.2,48.0 732.9,48.0 744.7,48.0 756.5,48.0 768.2,48.0 780.0,48.0" fill="none" stroke="#1d4ed8" stroke-width="2.4" stroke-linejoin="round" stroke-linecap="round"/>
  <polyline points="74.0,48.0 85.8,208.7 97.5,227.2 109.3,229.7 121.1,230.0 132.8,230.1 144.6,230.1 156.4,230.1 168.1,230.1 179.9,230.1 191.7,230.1 203.4,230.1 215.2,268.6 227.0,458.9 238.7,484.1 250.5,487.5 262.3,487.9 274.0,488.0 285.8,488.0 297.6,488.0 309.3,488.0 321.1,488.0 332.9,488.0 344.6,488.0 356.4,488.0 368.2,488.0 379.9,488.0 391.7,488.0 403.5,488.0 415.2,488.0 427.0,488.0 438.8,488.0 450.5,488.0 462.3,488.0 474.1,488.0 485.8,488.0 497.6,488.0 509.4,488.0 521.1,488.0 532.9,488.0 544.7,488.0 556.4,488.0 568.2,488.0 580.0,488.0 591.7,488.0 603.5,488.0 615.3,488.0 627.0,488.0 638.8,488.0 650.6,488.0 662.3,488.0 674.1,488.0 685.9,488.0 697.6,488.0 709.4,488.0 721.2,488.0 732.9,488.0 744.7,488.0 756.5,488.0 768.2,488.0 780.0,488.0" fill="none" stroke="#047857" stroke-width="2.4" stroke-linejoin="round" stroke-linecap="round"/>
  <polyline points="74.0,488.0 85.8,477.1 97.5,466.4 109.3,455.6 121.1,444.9 132.8,434.1 144.6,423.4 156.4,412.6 168.1,401.9 179.9,391.2 191.7,380.4 203.4,369.7 215.2,357.7 227.0,331.7 238.7,305.6 250.5,279.6 262.3,253.6 274.0,227.6 285.8,201.5 297.6,175.5 309.3,149.5 321.1,123.5 332.9,97.4 344.6,71.4 356.4,48.0 368.2,48.0 379.9,48.0 391.7,48.0 403.5,48.0 415.2,48.0 427.0,48.0 438.8,48.0 450.5,48.0 462.3,48.0 474.1,48.0 485.8,48.0 497.6,48.0 509.4,48.0 521.1,48.0 532.9,48.0 544.7,48.0 556.4,48.0 568.2,48.0 580.0,48.0 591.7,48.0 603.5,48.0 615.3,48.0 627.0,48.0 638.8,48.0 650.6,48.0 662.3,48.0 674.1,48.0 685.9,48.0 697.6,48.0 709.4,48.0 721.2,48.0 732.9,48.0 744.7,48.0 756.5,48.0 768.2,48.0 780.0,48.0" fill="none" stroke="#d97706" stroke-width="2.4" stroke-linejoin="round" stroke-linecap="round"/>
  <polyline points="74.0,488.0 85.8,166.0 97.5,89.1 109.3,57.1 121.1,48.1 132.8,48.0 144.6,50.2 156.4,52.5 168.1,54.2 179.9,55.3 191.7,56.0 203.4,56.5 215.2,488.0 227.0,488.0 238.7,488.0 250.5,488.0 262.3,488.0 274.0,488.0 285.8,488.0 297.6,488.0 309.3,488.0 321.1,488.0 332.9,488.0 344.6,488.0 356.4,488.0 368.2,488.0 379.9,488.0 391.7,488.0 403.5,488.0 415.2,488.0 427.0,488.0 438.8,488.0 450.5,488.0 462.3,488.0 474.1,488.0 485.8,488.0 497.6,488.0 509.4,488.0 521.1,488.0 532.9,488.0 544.7,488.0 556.4,488.0 568.2,488.0 580.0,488.0 591.7,488.0 603.5,488.0 615.3,488.0 627.0,488.0 638.8,488.0 650.6,488.0 662.3,488.0 674.1,488.0 685.9,488.0 697.6,488.0 709.4,488.0 721.2,488.0 732.9,488.0 744.7,488.0 756.5,488.0 768.2,488.0 780.0,488.0" fill="none" stroke="#7c3aed" stroke-width="2.4" stroke-linejoin="round" stroke-linecap="round"/>
  <polyline points="74.0,48.0 85.8,48.0 97.5,48.0 109.3,48.0 121.1,48.0 132.8,48.0 144.6,48.0 156.4,48.0 168.1,48.0 179.9,48.0 191.7,48.0 203.4,48.0 215.2,488.0 227.0,488.0 238.7,488.0 250.5,488.0 262.3,488.0 274.0,488.0 285.8,488.0 297.6,488.0 309.3,488.0 321.1,488.0 332.9,488.0 344.6,488.0 356.4,488.0 368.2,488.0 379.9,488.0 391.7,488.0 403.5,488.0 415.2,488.0 427.0,488.0 438.8,488.0 450.5,488.0 462.3,488.0 474.1,488.0 485.8,488.0 497.6,488.0 509.4,488.0 521.1,488.0 532.9,488.0 544.7,488.0 556.4,488.0 568.2,488.0 580.0,488.0 591.7,488.0 603.5,488.0 615.3,488.0 627.0,488.0 638.8,488.0 650.6,488.0 662.3,488.0 674.1,488.0 685.9,488.0 697.6,488.0 709.4,488.0 721.2,488.0 732.9,488.0 744.7,488.0 756.5,488.0 768.2,488.0 780.0,488.0" fill="none" stroke="#dc2626" stroke-width="2.4" stroke-linejoin="round" stroke-linecap="round"/>
  <g transform="translate(804,48)"><line x1="0" y1="0" x2="24" y2="0" stroke="#1d4ed8" stroke-width="3"/><text x="34" y="4" font-family="Inter, system-ui, sans-serif" font-size="13" fill="#111827">Core power MW</text></g>
  <g transform="translate(804,76)"><line x1="0" y1="0" x2="24" y2="0" stroke="#047857" stroke-width="3"/><text x="34" y="4" font-family="Inter, system-ui, sans-serif" font-size="13" fill="#111827">Turbine MW</text></g>
  <g transform="translate(804,104)"><line x1="0" y1="0" x2="24" y2="0" stroke="#d97706" stroke-width="3"/><text x="34" y="4" font-family="Inter, system-ui, sans-serif" font-size="13" fill="#111827">SG A level %</text></g>
  <g transform="translate(804,132)"><line x1="0" y1="0" x2="24" y2="0" stroke="#7c3aed" stroke-width="3"/><text x="34" y="4" font-family="Inter, system-ui, sans-serif" font-size="13" fill="#111827">SG A steam kg/s</text></g>
  <g transform="translate(804,160)"><line x1="0" y1="0" x2="24" y2="0" stroke="#dc2626" stroke-width="3"/><text x="34" y="4" font-family="Inter, system-ui, sans-serif" font-size="13" fill="#111827">Loop A hot-leg kg/s</text></g>
  <text x="427" y="550" font-family="Inter, system-ui, sans-serif" font-size="12" text-anchor="middle" fill="#475569">Simulation time</text>
  <text x="18" y="268" transform="rotate(-90 18 268)" font-family="Inter, system-ui, sans-serif" font-size="12" text-anchor="middle" fill="#475569">Independently scaled values</text>
</svg>
