<svg xmlns="http://www.w3.org/2000/svg" width="1200" height="760" viewBox="0 0 1200 760" role="img" aria-labelledby="title desc">
  <title id="title">Multi-system process plant benchmark trace</title>
  <desc id="desc">A two by three grid of process variable traces for six independently scheduled process plant units.</desc>
  <rect width="100%" height="100%" fill="#f8fafc"/>
  <text x="70" y="38" font-family="Inter, system-ui, sans-serif" font-size="22" font-weight="700" fill="#111827">Multi-system process plant benchmark</text>
  <text x="70" y="62" font-family="Inter, system-ui, sans-serif" font-size="13" fill="#4b5563">Single system 209.8 ms; six systems 1094.9 ms; wall-clock ratio 5.22x; simulated 300s.</text>
  
      <g>
        <rect x="58" y="56" width="374" height="241" rx="10" fill="#ffffff" stroke="#d1d5db"/>
        <text x="70" y="78" font-family="Inter, system-ui, sans-serif" font-size="16" font-weight="700" fill="#111827">unit-1</text>
        <line x1="70" y1="277" x2="420" y2="277" stroke="#9ca3af"/>
        <line x1="70" y1="92" x2="70" y2="277" stroke="#9ca3af"/>
        <path d="M 70.0 173.9 L 75.8 141.3 L 81.7 144.4 L 87.5 146.4 L 93.3 147.7 L 99.2 148.6 L 105.0 149.2 L 110.8 149.6 L 116.7 149.9 L 122.5 150.2 L 128.3 150.3 L 134.2 150.5 L 140.0 150.6 L 145.8 150.7 L 151.7 150.7 L 157.5 150.8 L 163.3 150.8 L 169.2 150.8 L 175.0 150.8 L 180.8 150.9 L 186.7 150.9 L 192.5 150.9 L 198.3 150.9 L 204.2 150.9 L 210.0 150.9 L 215.8 150.9 L 221.7 150.9 L 227.5 150.9 L 233.3 150.9 L 239.2 150.9 L 245.0 150.9 L 250.8 150.9 L 256.7 150.9 L 262.5 150.9 L 268.3 150.9 L 274.2 150.9 L 280.0 150.9 L 285.8 150.9 L 291.7 150.9 L 297.5 150.9 L 303.3 150.9 L 309.2 150.9 L 315.0 150.9 L 320.8 150.9 L 326.7 150.9 L 332.5 150.9 L 338.3 150.9 L 344.2 150.9 L 350.0 150.9 L 355.8 150.9 L 361.7 150.9 L 367.5 150.9 L 373.3 150.9 L 379.2 150.9 L 385.0 150.9 L 390.8 150.9 L 396.7 150.9 L 402.5 150.9 L 408.3 150.9 L 414.2 150.9 L 420.0 150.9" fill="none" stroke="#2563eb" stroke-width="2.4"/>
        <path d="M 70.0 184.5 L 75.8 161.1 L 81.7 142.6 L 87.5 127.0 L 93.3 112.5 L 99.2 98.5 L 105.0 84.8 L 110.8 71.3 L 116.7 58.0 L 122.5 44.8 L 128.3 31.7 L 134.2 18.7 L 140.0 5.8 L 145.8 -7.1 L 151.7 -20.0 L 157.5 -32.8 L 163.3 -45.6 L 169.2 -58.4 L 175.0 -71.2 L 180.8 -84.0 L 186.7 -96.8 L 192.5 -109.7 L 198.3 -122.6 L 204.2 -135.5 L 210.0 -148.4 L 215.8 -161.4 L 221.7 -174.4 L 227.5 -187.4 L 233.3 -200.4 L 239.2 -213.5 L 245.0 -226.5 L 250.8 -231.8 L 256.7 -231.8 L 262.5 -231.8 L 268.3 -231.8 L 274.2 -231.8 L 280.0 -231.8 L 285.8 -231.8 L 291.7 -231.8 L 297.5 -231.8 L 303.3 -231.8 L 309.2 -231.8 L 315.0 -231.8 L 320.8 -231.8 L 326.7 -231.8 L 332.5 -231.8 L 338.3 -231.8 L 344.2 -231.8 L 350.0 -231.8 L 355.8 -231.8 L 361.7 -231.8 L 367.5 -231.8 L 373.3 -231.8 L 379.2 -231.8 L 385.0 -231.8 L 390.8 -231.8 L 396.7 -231.8 L 402.5 -231.8 L 408.3 -231.8 L 414.2 -231.8 L 420.0 -231.8" fill="none" stroke="#0f766e" stroke-width="2.4"/>
        <path d="M 70.0 104.0 L 75.8 141.6 L 81.7 144.0 L 87.5 137.0 L 93.3 132.5 L 99.2 130.9 L 105.0 130.3 L 110.8 130.1 L 116.7 130.0 L 122.5 130.0 L 128.3 130.0 L 134.2 130.0 L 140.0 130.0 L 145.8 130.0 L 151.7 130.0 L 157.5 130.0 L 163.3 130.0 L 169.2 130.0 L 175.0 130.0 L 180.8 130.0 L 186.7 130.0 L 192.5 130.0 L 198.3 130.0 L 204.2 130.0 L 210.0 130.0 L 215.8 130.0 L 221.7 130.0 L 227.5 130.0 L 233.3 130.0 L 239.2 130.0 L 245.0 130.0 L 250.8 130.0 L 256.7 130.0 L 262.5 130.0 L 268.3 130.0 L 274.2 130.0 L 280.0 130.0 L 285.8 130.0 L 291.7 130.0 L 297.5 130.0 L 303.3 130.0 L 309.2 130.0 L 315.0 130.0 L 320.8 130.0 L 326.7 130.0 L 332.5 130.0 L 338.3 130.0 L 344.2 130.0 L 350.0 130.0 L 355.8 130.0 L 361.7 130.0 L 367.5 130.0 L 373.3 130.0 L 379.2 130.0 L 385.0 130.0 L 390.8 130.0 L 396.7 130.0 L 402.5 130.0 L 408.3 130.0 L 414.2 130.0 L 420.0 130.0" fill="none" stroke="#dc2626" stroke-width="2.4"/>
        <text x="70" y="293" font-family="Inter, system-ui, sans-serif" font-size="11" fill="#6b7280">T+0 to T+300s</text>
      </g>
      <g>
        <rect x="443" y="56" width="374" height="241" rx="10" fill="#ffffff" stroke="#d1d5db"/>
        <text x="455" y="78" font-family="Inter, system-ui, sans-serif" font-size="16" font-weight="700" fill="#111827">unit-2</text>
        <line x1="455" y1="277" x2="805" y2="277" stroke="#9ca3af"/>
        <line x1="455" y1="92" x2="455" y2="277" stroke="#9ca3af"/>
        <path d="M 455.0 173.9 L 460.8 141.3 L 466.7 144.4 L 472.5 146.4 L 478.3 147.7 L 484.2 148.6 L 490.0 149.2 L 495.8 149.6 L 501.7 149.9 L 507.5 150.2 L 513.3 150.3 L 519.2 150.5 L 525.0 150.6 L 530.8 150.7 L 536.7 150.7 L 542.5 150.8 L 548.3 150.8 L 554.2 150.8 L 560.0 150.8 L 565.8 150.9 L 571.7 150.9 L 577.5 150.9 L 583.3 150.9 L 589.2 150.9 L 595.0 150.9 L 600.8 150.9 L 606.7 150.9 L 612.5 150.9 L 618.3 150.9 L 624.2 150.9 L 630.0 150.9 L 635.8 150.9 L 641.7 150.9 L 647.5 150.9 L 653.3 150.9 L 659.2 150.9 L 665.0 150.9 L 670.8 150.9 L 676.7 150.9 L 682.5 150.9 L 688.3 150.9 L 694.2 150.9 L 700.0 150.9 L 705.8 150.9 L 711.7 150.9 L 717.5 150.9 L 723.3 150.9 L 729.2 150.9 L 735.0 150.9 L 740.8 150.9 L 746.7 150.9 L 752.5 150.9 L 758.3 150.9 L 764.2 150.9 L 770.0 150.9 L 775.8 150.9 L 781.7 150.9 L 787.5 150.9 L 793.3 150.9 L 799.2 150.9 L 805.0 150.9" fill="none" stroke="#2563eb" stroke-width="2.4"/>
        <path d="M 455.0 184.5 L 460.8 161.1 L 466.7 142.6 L 472.5 127.0 L 478.3 112.5 L 484.2 98.5 L 490.0 84.8 L 495.8 71.3 L 501.7 58.0 L 507.5 44.8 L 513.3 31.7 L 519.2 18.7 L 525.0 5.8 L 530.8 -7.1 L 536.7 -19.9 L 542.5 -32.6 L 548.3 -45.0 L 554.2 -58.1 L 560.0 -74.7 L 565.8 -94.6 L 571.7 -117.1 L 577.5 -141.7 L 583.3 -167.9 L 589.2 -195.4 L 595.0 -223.8 L 600.8 -231.8 L 606.7 -231.8 L 612.5 -231.8 L 618.3 -231.8 L 624.2 -231.8 L 630.0 -231.8 L 635.8 -231.8 L 641.7 -231.8 L 647.5 -231.8 L 653.3 -231.8 L 659.2 -231.8 L 665.0 -231.8 L 670.8 -231.8 L 676.7 -231.8 L 682.5 -231.8 L 688.3 -231.8 L 694.2 -231.8 L 700.0 -231.8 L 705.8 -231.8 L 711.7 -231.8 L 717.5 -231.8 L 723.3 -231.8 L 729.2 -231.8 L 735.0 -231.8 L 740.8 -231.8 L 746.7 -231.8 L 752.5 -231.8 L 758.3 -231.8 L 764.2 -231.8 L 770.0 -231.8 L 775.8 -231.8 L 781.7 -231.8 L 787.5 -231.8 L 793.3 -231.8 L 799.2 -231.8 L 805.0 -231.8" fill="none" stroke="#0f766e" stroke-width="2.4"/>
        <path d="M 455.0 104.0 L 460.8 141.6 L 466.7 144.0 L 472.5 137.0 L 478.3 132.5 L 484.2 130.9 L 490.0 130.3 L 495.8 130.1 L 501.7 130.0 L 507.5 130.0 L 513.3 130.0 L 519.2 130.0 L 525.0 130.0 L 530.8 130.0 L 536.7 130.0 L 542.5 130.0 L 548.3 130.0 L 554.2 133.2 L 560.0 139.3 L 565.8 145.3 L 571.7 150.3 L 577.5 154.2 L 583.3 157.2 L 589.2 159.5 L 595.0 161.3 L 600.8 162.6 L 606.7 163.6 L 612.5 164.4 L 618.3 165.0 L 624.2 165.4 L 630.0 165.7 L 635.8 166.0 L 641.7 166.2 L 647.5 166.3 L 653.3 166.4 L 659.2 166.5 L 665.0 166.5 L 670.8 166.6 L 676.7 166.6 L 682.5 166.6 L 688.3 166.7 L 694.2 166.7 L 700.0 166.7 L 705.8 166.7 L 711.7 166.7 L 717.5 166.7 L 723.3 166.7 L 729.2 166.7 L 735.0 166.7 L 740.8 166.7 L 746.7 166.7 L 752.5 166.7 L 758.3 166.7 L 764.2 166.7 L 770.0 166.7 L 775.8 166.7 L 781.7 166.7 L 787.5 166.7 L 793.3 166.7 L 799.2 166.7 L 805.0 166.7" fill="none" stroke="#dc2626" stroke-width="2.4"/>
        <text x="455" y="293" font-family="Inter, system-ui, sans-serif" font-size="11" fill="#6b7280">T+0 to T+300s</text>
      </g>
      <g>
        <rect x="828" y="56" width="374" height="241" rx="10" fill="#ffffff" stroke="#d1d5db"/>
        <text x="840" y="78" font-family="Inter, system-ui, sans-serif" font-size="16" font-weight="700" fill="#111827">unit-3</text>
        <line x1="840" y1="277" x2="1190" y2="277" stroke="#9ca3af"/>
        <line x1="840" y1="92" x2="840" y2="277" stroke="#9ca3af"/>
        <path d="M 840.0 173.9 L 845.8 141.3 L 851.7 144.4 L 857.5 146.4 L 863.3 147.7 L 869.2 148.6 L 875.0 149.2 L 880.8 149.6 L 886.7 149.9 L 892.5 150.2 L 898.3 150.3 L 904.2 150.5 L 910.0 150.6 L 915.8 150.7 L 921.7 150.7 L 927.5 150.8 L 933.3 150.8 L 939.2 150.8 L 945.0 150.8 L 950.8 150.9 L 956.7 150.9 L 962.5 150.9 L 968.3 150.9 L 974.2 150.9 L 980.0 150.9 L 985.8 150.9 L 991.7 150.9 L 997.5 150.9 L 1003.3 150.9 L 1009.2 150.9 L 1015.0 150.9 L 1020.8 150.9 L 1026.7 150.9 L 1032.5 150.9 L 1038.3 150.9 L 1044.2 150.9 L 1050.0 150.9 L 1055.8 150.9 L 1061.7 150.9 L 1067.5 150.9 L 1073.3 150.9 L 1079.2 150.9 L 1085.0 150.9 L 1090.8 150.9 L 1096.7 150.9 L 1102.5 150.9 L 1108.3 150.9 L 1114.2 150.9 L 1120.0 150.9 L 1125.8 150.9 L 1131.7 150.9 L 1137.5 150.9 L 1143.3 150.9 L 1149.2 150.9 L 1155.0 150.9 L 1160.8 150.9 L 1166.7 150.9 L 1172.5 150.9 L 1178.3 150.9 L 1184.2 150.9 L 1190.0 150.9" fill="none" stroke="#2563eb" stroke-width="2.4"/>
        <path d="M 840.0 184.5 L 845.8 161.1 L 851.7 142.6 L 857.5 127.0 L 863.3 112.5 L 869.2 98.5 L 875.0 84.8 L 880.8 71.3 L 886.7 58.0 L 892.5 44.8 L 898.3 31.7 L 904.2 18.7 L 910.0 5.8 L 915.8 -7.1 L 921.7 -20.0 L 927.5 -32.8 L 933.3 -45.6 L 939.2 -58.4 L 945.0 -71.2 L 950.8 -84.0 L 956.7 -96.8 L 962.5 -109.7 L 968.3 -122.6 L 974.2 -135.5 L 980.0 -148.4 L 985.8 -161.4 L 991.7 -174.4 L 997.5 -187.4 L 1003.3 -200.4 L 1009.2 -213.5 L 1015.0 -226.5 L 1020.8 -231.8 L 1026.7 -231.8 L 1032.5 -231.8 L 1038.3 -231.8 L 1044.2 -231.8 L 1050.0 -231.8 L 1055.8 -231.8 L 1061.7 -231.8 L 1067.5 -231.8 L 1073.3 -231.8 L 1079.2 -231.8 L 1085.0 -231.8 L 1090.8 -231.8 L 1096.7 -231.8 L 1102.5 -231.8 L 1108.3 -231.8 L 1114.2 -231.8 L 1120.0 -231.8 L 1125.8 -231.8 L 1131.7 -231.8 L 1137.5 -231.8 L 1143.3 -231.8 L 1149.2 -231.8 L 1155.0 -231.8 L 1160.8 -231.8 L 1166.7 -231.8 L 1172.5 -231.8 L 1178.3 -231.8 L 1184.2 -231.8 L 1190.0 -231.8" fill="none" stroke="#0f766e" stroke-width="2.4"/>
        <path d="M 840.0 104.0 L 845.8 141.6 L 851.7 144.0 L 857.5 137.0 L 863.3 132.5 L 869.2 130.9 L 875.0 130.3 L 880.8 130.1 L 886.7 130.0 L 892.5 130.0 L 898.3 130.0 L 904.2 130.0 L 910.0 130.0 L 915.8 130.0 L 921.7 130.0 L 927.5 130.0 L 933.3 130.0 L 939.2 130.0 L 945.0 130.0 L 950.8 130.0 L 956.7 130.0 L 962.5 130.0 L 968.3 130.0 L 974.2 130.0 L 980.0 130.0 L 985.8 130.0 L 991.7 130.0 L 997.5 130.0 L 1003.3 130.0 L 1009.2 134.1 L 1015.0 140.3 L 1020.8 146.1 L 1026.7 150.9 L 1032.5 154.6 L 1038.3 157.5 L 1044.2 159.8 L 1050.0 161.5 L 1055.8 162.7 L 1061.7 163.7 L 1067.5 164.4 L 1073.3 165.0 L 1079.2 165.4 L 1085.0 165.7 L 1090.8 166.0 L 1096.7 166.2 L 1102.5 166.3 L 1108.3 166.4 L 1114.2 166.5 L 1120.0 166.5 L 1125.8 166.6 L 1131.7 166.6 L 1137.5 166.6 L 1143.3 166.7 L 1149.2 166.7 L 1155.0 166.7 L 1160.8 166.7 L 1166.7 166.7 L 1172.5 166.7 L 1178.3 166.7 L 1184.2 166.7 L 1190.0 166.7" fill="none" stroke="#dc2626" stroke-width="2.4"/>
        <text x="840" y="293" font-family="Inter, system-ui, sans-serif" font-size="11" fill="#6b7280">T+0 to T+300s</text>
      </g>
      <g>
        <rect x="58" y="296" width="374" height="241" rx="10" fill="#ffffff" stroke="#d1d5db"/>
        <text x="70" y="318" font-family="Inter, system-ui, sans-serif" font-size="16" font-weight="700" fill="#111827">unit-4</text>
        <line x1="70" y1="517" x2="420" y2="517" stroke="#9ca3af"/>
        <line x1="70" y1="332" x2="70" y2="517" stroke="#9ca3af"/>
        <path d="M 70.0 413.9 L 75.8 381.3 L 81.7 384.4 L 87.5 386.4 L 93.3 387.7 L 99.2 388.6 L 105.0 389.2 L 110.8 389.6 L 116.7 389.9 L 122.5 390.2 L 128.3 390.3 L 134.2 390.5 L 140.0 390.6 L 145.8 390.7 L 151.7 390.7 L 157.5 390.8 L 163.3 390.8 L 169.2 390.8 L 175.0 390.8 L 180.8 390.9 L 186.7 390.9 L 192.5 390.9 L 198.3 390.9 L 204.2 390.9 L 210.0 390.9 L 215.8 390.9 L 221.7 390.9 L 227.5 390.9 L 233.3 390.9 L 239.2 390.9 L 245.0 390.9 L 250.8 390.9 L 256.7 390.9 L 262.5 390.9 L 268.3 390.9 L 274.2 390.9 L 280.0 390.9 L 285.8 390.9 L 291.7 390.9 L 297.5 390.9 L 303.3 390.9 L 309.2 390.9 L 315.0 390.9 L 320.8 390.9 L 326.7 390.9 L 332.5 390.9 L 338.3 390.9 L 344.2 390.9 L 350.0 390.9 L 355.8 390.9 L 361.7 390.9 L 367.5 390.9 L 373.3 390.9 L 379.2 390.9 L 385.0 390.9 L 390.8 390.9 L 396.7 390.9 L 402.5 390.9 L 408.3 390.9 L 414.2 390.9 L 420.0 390.9" fill="none" stroke="#2563eb" stroke-width="2.4"/>
        <path d="M 70.0 424.5 L 75.8 401.1 L 81.7 382.6 L 87.5 367.0 L 93.3 352.5 L 99.2 338.5 L 105.0 324.8 L 110.8 311.3 L 116.7 298.0 L 122.5 284.8 L 128.3 271.7 L 134.2 258.7 L 140.0 245.8 L 145.8 232.9 L 151.7 220.0 L 157.5 207.2 L 163.3 194.4 L 169.2 181.6 L 175.0 168.8 L 180.8 156.0 L 186.7 143.2 L 192.5 130.3 L 198.3 117.4 L 204.2 104.5 L 210.0 91.6 L 215.8 78.6 L 221.7 65.6 L 227.5 52.6 L 233.3 39.6 L 239.2 26.5 L 245.0 13.5 L 250.8 8.3 L 256.7 8.3 L 262.5 8.3 L 268.3 8.3 L 274.2 8.3 L 280.0 8.3 L 285.8 8.3 L 291.7 8.3 L 297.5 20.2 L 303.3 37.1 L 309.2 54.8 L 315.0 72.9 L 320.8 91.1 L 326.7 109.4 L 332.5 127.7 L 338.3 146.1 L 344.2 164.4 L 350.0 182.7 L 355.8 201.1 L 361.7 219.4 L 367.5 237.8 L 373.3 256.1 L 379.2 274.5 L 385.0 292.9 L 390.8 311.2 L 396.7 329.6 L 402.5 347.9 L 408.3 366.5 L 414.2 385.2 L 420.0 404.1" fill="none" stroke="#0f766e" stroke-width="2.4"/>
        <path d="M 70.0 344.0 L 75.8 381.6 L 81.7 384.0 L 87.5 377.0 L 93.3 372.5 L 99.2 370.9 L 105.0 370.3 L 110.8 370.1 L 116.7 370.0 L 122.5 370.0 L 128.3 370.0 L 134.2 370.0 L 140.0 370.0 L 145.8 370.0 L 151.7 370.0 L 157.5 370.0 L 163.3 370.0 L 169.2 370.0 L 175.0 370.0 L 180.8 370.0 L 186.7 370.0 L 192.5 370.0 L 198.3 370.0 L 204.2 370.0 L 210.0 370.0 L 215.8 370.0 L 221.7 370.0 L 227.5 370.0 L 233.3 370.0 L 239.2 370.0 L 245.0 370.0 L 250.8 370.0 L 256.7 370.0 L 262.5 370.0 L 268.3 370.0 L 274.2 370.0 L 280.0 370.0 L 285.8 370.0 L 291.7 370.0 L 297.5 370.0 L 303.3 370.0 L 309.2 370.0 L 315.0 370.0 L 320.8 370.0 L 326.7 370.0 L 332.5 370.0 L 338.3 370.0 L 344.2 370.0 L 350.0 370.0 L 355.8 370.0 L 361.7 370.0 L 367.5 370.0 L 373.3 370.0 L 379.2 370.0 L 385.0 370.0 L 390.8 370.0 L 396.7 370.0 L 402.5 370.0 L 408.3 370.0 L 414.2 370.0 L 420.0 370.0" fill="none" stroke="#dc2626" stroke-width="2.4"/>
        <text x="70" y="533" font-family="Inter, system-ui, sans-serif" font-size="11" fill="#6b7280">T+0 to T+300s</text>
      </g>
      <g>
        <rect x="443" y="296" width="374" height="241" rx="10" fill="#ffffff" stroke="#d1d5db"/>
        <text x="455" y="318" font-family="Inter, system-ui, sans-serif" font-size="16" font-weight="700" fill="#111827">unit-5</text>
        <line x1="455" y1="517" x2="805" y2="517" stroke="#9ca3af"/>
        <line x1="455" y1="332" x2="455" y2="517" stroke="#9ca3af"/>
        <path d="M 455.0 413.9 L 460.8 381.3 L 466.7 384.4 L 472.5 386.4 L 478.3 387.7 L 484.2 388.6 L 490.0 389.2 L 495.8 389.6 L 501.7 389.9 L 507.5 390.2 L 513.3 390.3 L 519.2 390.5 L 525.0 390.6 L 530.8 390.7 L 536.7 390.7 L 542.5 390.8 L 548.3 390.8 L 554.2 390.8 L 560.0 390.8 L 565.8 390.9 L 571.7 390.9 L 577.5 390.9 L 583.3 390.9 L 589.2 390.9 L 595.0 390.9 L 600.8 390.9 L 606.7 390.9 L 612.5 390.9 L 618.3 390.9 L 624.2 390.9 L 630.0 390.9 L 635.8 390.9 L 641.7 390.9 L 647.5 390.9 L 653.3 390.9 L 659.2 390.9 L 665.0 390.9 L 670.8 390.9 L 676.7 390.9 L 682.5 390.9 L 688.3 390.9 L 694.2 390.9 L 700.0 390.9 L 705.8 390.9 L 711.7 390.9 L 717.5 390.9 L 723.3 390.9 L 729.2 390.9 L 735.0 390.9 L 740.8 390.9 L 746.7 390.9 L 752.5 390.9 L 758.3 390.9 L 764.2 390.9 L 770.0 390.9 L 775.8 390.9 L 781.7 390.9 L 787.5 390.9 L 793.3 390.9 L 799.2 390.9 L 805.0 390.9" fill="none" stroke="#2563eb" stroke-width="2.4"/>
        <path d="M 455.0 424.5 L 460.8 401.1 L 466.7 382.6 L 472.5 367.0 L 478.3 352.5 L 484.2 338.5 L 490.0 324.8 L 495.8 311.3 L 501.7 298.0 L 507.5 284.8 L 513.3 271.7 L 519.2 258.7 L 525.0 245.8 L 530.8 232.9 L 536.7 220.0 L 542.5 207.2 L 548.3 194.4 L 554.2 181.6 L 560.0 167.1 L 565.8 145.6 L 571.7 124.1 L 577.5 102.6 L 583.3 81.0 L 589.2 59.4 L 595.0 37.8 L 600.8 16.2 L 606.7 8.3 L 612.5 8.3 L 618.3 8.3 L 624.2 8.3 L 630.0 8.3 L 635.8 8.3 L 641.7 8.3 L 647.5 8.3 L 653.3 8.3 L 659.2 8.3 L 665.0 8.3 L 670.8 8.3 L 676.7 8.3 L 682.5 8.3 L 688.3 8.3 L 694.2 8.3 L 700.0 8.3 L 705.8 8.3 L 711.7 8.3 L 717.5 8.3 L 723.3 8.3 L 729.2 8.3 L 735.0 8.3 L 740.8 8.3 L 746.7 8.3 L 752.5 8.3 L 758.3 8.3 L 764.2 8.3 L 770.0 8.3 L 775.8 8.3 L 781.7 8.3 L 787.5 8.3 L 793.3 8.3 L 799.2 8.3 L 805.0 8.3" fill="none" stroke="#0f766e" stroke-width="2.4"/>
        <path d="M 455.0 344.0 L 460.8 381.6 L 466.7 384.0 L 472.5 377.0 L 478.3 372.5 L 484.2 370.9 L 490.0 370.3 L 495.8 370.1 L 501.7 370.0 L 507.5 370.0 L 513.3 370.0 L 519.2 370.0 L 525.0 370.0 L 530.8 370.0 L 536.7 370.0 L 542.5 370.0 L 548.3 370.0 L 554.2 370.0 L 560.0 389.3 L 565.8 444.3 L 571.7 464.3 L 577.5 471.6 L 583.3 474.3 L 589.2 475.2 L 595.0 475.6 L 600.8 475.7 L 606.7 475.8 L 612.5 475.8 L 618.3 475.8 L 624.2 475.8 L 630.0 475.8 L 635.8 475.8 L 641.7 475.8 L 647.5 475.8 L 653.3 475.8 L 659.2 475.8 L 665.0 475.8 L 670.8 475.8 L 676.7 475.8 L 682.5 475.8 L 688.3 475.8 L 694.2 475.8 L 700.0 475.8 L 705.8 475.8 L 711.7 475.8 L 717.5 475.8 L 723.3 475.8 L 729.2 475.8 L 735.0 475.8 L 740.8 475.8 L 746.7 475.8 L 752.5 475.8 L 758.3 475.8 L 764.2 475.8 L 770.0 475.8 L 775.8 475.8 L 781.7 475.8 L 787.5 475.8 L 793.3 475.8 L 799.2 475.8 L 805.0 475.8" fill="none" stroke="#dc2626" stroke-width="2.4"/>
        <text x="455" y="533" font-family="Inter, system-ui, sans-serif" font-size="11" fill="#6b7280">T+0 to T+300s</text>
      </g>
      <g>
        <rect x="828" y="296" width="374" height="241" rx="10" fill="#ffffff" stroke="#d1d5db"/>
        <text x="840" y="318" font-family="Inter, system-ui, sans-serif" font-size="16" font-weight="700" fill="#111827">unit-6</text>
        <line x1="840" y1="517" x2="1190" y2="517" stroke="#9ca3af"/>
        <line x1="840" y1="332" x2="840" y2="517" stroke="#9ca3af"/>
        <path d="M 840.0 413.9 L 845.8 381.3 L 851.7 384.4 L 857.5 386.4 L 863.3 387.7 L 869.2 388.6 L 875.0 389.2 L 880.8 389.6 L 886.7 389.9 L 892.5 390.2 L 898.3 390.3 L 904.2 390.5 L 910.0 390.6 L 915.8 390.7 L 921.7 390.7 L 927.5 390.8 L 933.3 390.8 L 939.2 390.8 L 945.0 390.8 L 950.8 390.9 L 956.7 390.9 L 962.5 390.9 L 968.3 390.9 L 974.2 390.9 L 980.0 390.9 L 985.8 390.9 L 991.7 390.9 L 997.5 390.9 L 1003.3 390.9 L 1009.2 390.9 L 1015.0 390.9 L 1020.8 390.9 L 1026.7 390.9 L 1032.5 390.9 L 1038.3 390.9 L 1044.2 390.9 L 1050.0 390.9 L 1055.8 390.9 L 1061.7 390.9 L 1067.5 390.9 L 1073.3 390.9 L 1079.2 390.9 L 1085.0 390.9 L 1090.8 390.9 L 1096.7 390.9 L 1102.5 390.9 L 1108.3 390.9 L 1114.2 390.9 L 1120.0 390.9 L 1125.8 390.9 L 1131.7 390.9 L 1137.5 390.9 L 1143.3 390.9 L 1149.2 390.9 L 1155.0 390.9 L 1160.8 390.9 L 1166.7 390.9 L 1172.5 390.9 L 1178.3 390.9 L 1184.2 390.9 L 1190.0 390.9" fill="none" stroke="#2563eb" stroke-width="2.4"/>
        <path d="M 840.0 424.5 L 845.8 401.1 L 851.7 382.6 L 857.5 367.0 L 863.3 352.5 L 869.2 338.5 L 875.0 324.8 L 880.8 311.3 L 886.7 298.0 L 892.5 284.8 L 898.3 271.7 L 904.2 258.7 L 910.0 245.8 L 915.8 232.9 L 921.7 220.0 L 927.5 207.2 L 933.3 194.4 L 939.2 181.6 L 945.0 168.8 L 950.8 156.0 L 956.7 143.2 L 962.5 130.3 L 968.3 117.4 L 974.2 104.5 L 980.0 91.6 L 985.8 78.6 L 991.7 65.6 L 997.5 52.6 L 1003.3 39.6 L 1009.2 26.5 L 1015.0 13.5 L 1020.8 8.3 L 1026.7 8.3 L 1032.5 8.3 L 1038.3 8.3 L 1044.2 8.3 L 1050.0 8.3 L 1055.8 8.3 L 1061.7 8.3 L 1067.5 8.3 L 1073.3 8.3 L 1079.2 8.3 L 1085.0 8.3 L 1090.8 8.3 L 1096.7 8.3 L 1102.5 8.3 L 1108.3 8.3 L 1114.2 8.3 L 1120.0 8.3 L 1125.8 8.3 L 1131.7 8.3 L 1137.5 8.3 L 1143.3 8.3 L 1149.2 8.3 L 1155.0 8.3 L 1160.8 8.3 L 1166.7 8.3 L 1172.5 8.3 L 1178.3 9.6 L 1184.2 12.3 L 1190.0 15.0" fill="none" stroke="#0f766e" stroke-width="2.4"/>
        <path d="M 840.0 344.0 L 845.8 381.6 L 851.7 384.0 L 857.5 377.0 L 863.3 372.5 L 869.2 370.9 L 875.0 370.3 L 880.8 370.1 L 886.7 370.0 L 892.5 370.0 L 898.3 370.0 L 904.2 370.0 L 910.0 370.0 L 915.8 370.0 L 921.7 370.0 L 927.5 370.0 L 933.3 370.0 L 939.2 370.0 L 945.0 370.0 L 950.8 370.0 L 956.7 370.0 L 962.5 370.0 L 968.3 370.0 L 974.2 370.0 L 980.0 370.0 L 985.8 370.0 L 991.7 370.0 L 997.5 370.0 L 1003.3 370.0 L 1009.2 370.0 L 1015.0 370.0 L 1020.8 370.0 L 1026.7 370.0 L 1032.5 370.0 L 1038.3 370.1 L 1044.2 374.1 L 1050.0 380.3 L 1055.8 386.1 L 1061.7 390.9 L 1067.5 394.7 L 1073.3 397.6 L 1079.2 399.8 L 1085.0 401.5 L 1090.8 402.7 L 1096.7 403.7 L 1102.5 404.4 L 1108.3 405.0 L 1114.2 405.4 L 1120.0 405.7 L 1125.8 406.0 L 1131.7 406.2 L 1137.5 406.3 L 1143.3 406.4 L 1149.2 406.5 L 1155.0 406.5 L 1160.8 406.6 L 1166.7 406.6 L 1172.5 406.6 L 1178.3 406.7 L 1184.2 406.7 L 1190.0 406.7" fill="none" stroke="#dc2626" stroke-width="2.4"/>
        <text x="840" y="533" font-family="Inter, system-ui, sans-serif" font-size="11" fill="#6b7280">T+0 to T+300s</text>
      </g>
  <g font-family="Inter, system-ui, sans-serif" font-size="13" fill="#374151">
    <line x1="70" y1="640" x2="100" y2="640" stroke="#2563eb" stroke-width="3"/><text x="110" y="644">Core power MW, scaled 2500-3200</text>
    <line x1="330" y1="640" x2="360" y2="640" stroke="#0f766e" stroke-width="3"/><text x="370" y="644">SG A level %, scaled 45-65</text>
    <line x1="610" y1="640" x2="640" y2="640" stroke="#dc2626" stroke-width="3"/><text x="650" y="644">Turbine electric MW, scaled 0-1000</text>
  </g>
</svg>
