<svg xmlns="http://www.w3.org/2000/svg" width="1200" height="700" viewBox="0 0 1200 700">
  <rect width="1200" height="700" fill="#f8fafc"/>
  <text x="50" y="42" font-family="Inter, system-ui, sans-serif" font-size="26" font-weight="800" fill="#111827">Process Plant Acceptance Traces</text>
  <text x="50" y="66" font-family="Inter, system-ui, sans-serif" font-size="13" fill="#64748b">Six representative transients from the real graphRef/runtime. Checks: 13/13 passed.</text>
  
    <g>
      <rect x="50" y="92" width="350" height="225" rx="12" fill="#ffffff" stroke="#d1d5db"/>
      <text x="72" y="120" font-family="Inter, system-ui, sans-serif" font-size="17" font-weight="700" fill="#111827">Baseline</text>
      <text x="72" y="139" font-family="Inter, system-ui, sans-serif" font-size="11" fill="#6b7280">No scheduled fault. Published variables should remain bounded and near steady state.</text>
      <line x1="100" y1="271" x2="372" y2="271" stroke="#9ca3af"/>
      <line x1="100" y1="152" x2="100" y2="271" stroke="#9ca3af"/>
      <text x="92" y="156" text-anchor="end" font-family="Inter, system-ui, sans-serif" font-size="10" fill="#6b7280">420</text>
      <text x="92" y="275" text-anchor="end" font-family="Inter, system-ui, sans-serif" font-size="10" fill="#6b7280">0</text>
      
    <path d="M 100.0 189.1 L 101.1 185.2 L 102.3 185.3 L 103.4 185.4 L 104.5 185.5 L 105.7 185.6 L 106.8 185.7 L 107.9 185.8 L 109.1 185.8 L 110.2 185.9 L 111.3 186.0 L 112.5 186.0 L 113.6 186.0 L 114.7 186.1 L 115.9 186.1 L 117.0 186.2 L 118.1 186.2 L 119.3 186.2 L 120.4 186.3 L 121.5 186.3 L 122.7 186.3 L 123.8 186.3 L 124.9 186.3 L 126.1 186.4 L 127.2 186.4 L 128.3 186.4 L 129.5 186.4 L 130.6 186.4 L 131.7 186.4 L 132.9 186.5 L 134.0 186.5 L 135.1 186.5 L 136.3 186.5 L 137.4 186.5 L 138.5 186.5 L 139.7 186.5 L 140.8 186.5 L 141.9 186.5 L 143.1 186.5 L 144.2 186.5 L 145.3 186.5 L 146.5 186.5 L 147.6 186.6 L 148.7 186.6 L 149.9 186.6 L 151.0 186.6 L 152.1 186.6 L 153.3 186.6 L 154.4 186.6 L 155.5 186.6 L 156.7 186.6 L 157.8 186.6 L 158.9 186.6 L 160.1 186.6 L 161.2 186.6 L 162.3 186.6 L 163.5 186.6 L 164.6 186.6 L 165.7 186.6 L 166.9 186.6 L 168.0 186.6 L 169.1 186.6 L 170.3 186.6 L 171.4 186.6 L 172.5 186.6 L 173.7 186.6 L 174.8 186.6 L 175.9 186.6 L 177.1 186.6 L 178.2 186.6 L 179.3 186.6 L 180.5 186.6 L 181.6 186.6 L 182.7 186.6 L 183.9 186.6 L 185.0 186.6 L 186.1 186.6 L 187.3 186.6 L 188.4 186.6 L 189.5 186.6 L 190.7 186.6 L 191.8 186.6 L 192.9 186.6 L 194.1 186.6 L 195.2 186.6 L 196.3 186.6 L 197.5 186.6 L 198.6 186.6 L 199.7 186.6 L 200.9 186.6 L 202.0 186.6 L 203.1 186.6 L 204.3 186.6 L 205.4 186.6 L 206.5 186.6 L 207.7 186.6 L 208.8 186.6 L 209.9 186.6 L 211.1 186.6 L 212.2 186.6 L 213.3 186.6 L 214.5 186.6 L 215.6 186.6 L 216.7 186.6 L 217.9 186.6 L 219.0 186.6 L 220.1 186.6 L 221.3 186.6 L 222.4 186.6 L 223.5 186.6 L 224.7 186.6 L 225.8 186.6 L 226.9 186.6 L 228.1 186.6 L 229.2 186.6 L 230.3 186.6 L 231.5 186.6 L 232.6 186.6 L 233.7 186.6 L 234.9 186.6 L 236.0 186.6 L 237.1 186.6 L 238.3 186.6 L 239.4 186.6 L 240.5 186.6 L 241.7 186.6 L 242.8 186.6 L 243.9 186.6 L 245.1 186.6 L 246.2 186.6 L 247.3 186.6 L 248.5 186.6 L 249.6 186.6 L 250.7 186.6 L 251.9 186.6 L 253.0 186.6 L 254.1 186.6 L 255.3 186.6 L 256.4 186.6 L 257.5 186.6 L 258.7 186.6 L 259.8 186.6 L 260.9 186.6 L 262.1 186.6 L 263.2 186.6 L 264.3 186.6 L 265.5 186.6 L 266.6 186.6 L 267.7 186.6 L 268.9 186.6 L 270.0 186.6 L 271.1 186.6 L 272.3 186.6 L 273.4 186.6 L 274.5 186.6 L 275.7 186.6 L 276.8 186.6 L 277.9 186.6 L 279.1 186.6 L 280.2 186.6 L 281.3 186.6 L 282.5 186.6 L 283.6 186.6 L 284.7 186.6 L 285.9 186.6 L 287.0 186.6 L 288.1 186.6 L 289.3 186.6 L 290.4 186.6 L 291.5 186.6 L 292.7 186.6 L 293.8 186.6 L 294.9 186.6 L 296.1 186.6 L 297.2 186.6 L 298.3 186.6 L 299.5 186.6 L 300.6 186.6 L 301.7 186.6 L 302.9 186.6 L 304.0 186.6 L 305.1 186.6 L 306.3 186.6 L 307.4 186.6 L 308.5 186.6 L 309.7 186.6 L 310.8 186.6 L 311.9 186.6 L 313.1 186.6 L 314.2 186.6 L 315.3 186.6 L 316.5 186.6 L 317.6 186.6 L 318.7 186.6 L 319.9 186.6 L 321.0 186.6 L 322.1 186.6 L 323.3 186.6 L 324.4 186.6 L 325.5 186.6 L 326.7 186.6 L 327.8 186.6 L 328.9 186.6 L 330.1 186.6 L 331.2 186.6 L 332.3 186.6 L 333.5 186.6 L 334.6 186.6 L 335.7 186.6 L 336.9 186.6 L 338.0 186.6 L 339.1 186.6 L 340.3 186.6 L 341.4 186.6 L 342.5 186.6 L 343.7 186.6 L 344.8 186.6 L 345.9 186.6 L 347.1 186.6 L 348.2 186.6 L 349.3 186.6 L 350.5 186.6 L 351.6 186.6 L 352.7 186.6 L 353.9 186.6 L 355.0 186.6 L 356.1 186.6 L 357.3 186.6 L 358.4 186.6 L 359.5 186.6 L 360.7 186.6 L 361.8 186.6 L 362.9 186.6 L 364.1 186.6 L 365.2 186.6 L 366.3 186.6 L 367.5 186.6 L 368.6 186.6 L 369.7 186.6 L 370.9 186.6 L 372.0 186.6" fill="none" stroke="#2563eb" stroke-width="2.1"/>
    <path d="M 100.0 255.4 L 101.1 255.3 L 102.3 255.1 L 103.4 255.0 L 104.5 254.8 L 105.7 254.7 L 106.8 254.6 L 107.9 254.5 L 109.1 254.3 L 110.2 254.2 L 111.3 254.1 L 112.5 254.0 L 113.6 253.9 L 114.7 253.8 L 115.9 253.7 L 117.0 253.7 L 118.1 253.6 L 119.3 253.5 L 120.4 253.4 L 121.5 253.3 L 122.7 253.2 L 123.8 253.1 L 124.9 253.0 L 126.1 253.0 L 127.2 252.9 L 128.3 252.8 L 129.5 252.7 L 130.6 252.6 L 131.7 252.5 L 132.9 252.4 L 134.0 252.4 L 135.1 252.3 L 136.3 252.2 L 137.4 252.1 L 138.5 252.0 L 139.7 251.9 L 140.8 251.9 L 141.9 251.8 L 143.1 251.7 L 144.2 251.6 L 145.3 251.5 L 146.5 251.5 L 147.6 251.4 L 148.7 251.3 L 149.9 251.2 L 151.0 251.1 L 152.1 251.1 L 153.3 251.0 L 154.4 250.9 L 155.5 250.8 L 156.7 250.7 L 157.8 250.7 L 158.9 250.6 L 160.1 250.5 L 161.2 250.4 L 162.3 250.3 L 163.5 250.3 L 164.6 250.2 L 165.7 250.1 L 166.9 250.0 L 168.0 249.9 L 169.1 249.9 L 170.3 249.8 L 171.4 249.7 L 172.5 249.6 L 173.7 249.5 L 174.8 249.5 L 175.9 249.4 L 177.1 249.3 L 178.2 249.2 L 179.3 249.2 L 180.5 249.1 L 181.6 249.0 L 182.7 248.9 L 183.9 248.8 L 185.0 248.8 L 186.1 248.7 L 187.3 248.6 L 188.4 248.5 L 189.5 248.4 L 190.7 248.4 L 191.8 248.3 L 192.9 248.2 L 194.1 248.1 L 195.2 248.1 L 196.3 248.0 L 197.5 247.9 L 198.6 247.8 L 199.7 247.7 L 200.9 247.7 L 202.0 247.6 L 203.1 247.5 L 204.3 247.4 L 205.4 247.3 L 206.5 247.3 L 207.7 247.2 L 208.8 247.1 L 209.9 247.0 L 211.1 247.0 L 212.2 246.9 L 213.3 246.8 L 214.5 246.7 L 215.6 246.6 L 216.7 246.6 L 217.9 246.5 L 219.0 246.4 L 220.1 246.3 L 221.3 246.2 L 222.4 246.2 L 223.5 246.1 L 224.7 246.0 L 225.8 245.9 L 226.9 245.9 L 228.1 245.8 L 229.2 245.7 L 230.3 245.6 L 231.5 245.5 L 232.6 245.5 L 233.7 245.4 L 234.9 245.3 L 236.0 245.2 L 237.1 245.1 L 238.3 245.1 L 239.4 245.0 L 240.5 244.9 L 241.7 244.8 L 242.8 244.7 L 243.9 244.7 L 245.1 244.6 L 246.2 244.5 L 247.3 244.4 L 248.5 244.3 L 249.6 244.3 L 250.7 244.2 L 251.9 244.1 L 253.0 244.0 L 254.1 243.9 L 255.3 243.9 L 256.4 243.8 L 257.5 243.7 L 258.7 243.6 L 259.8 243.5 L 260.9 243.5 L 262.1 243.4 L 263.2 243.3 L 264.3 243.2 L 265.5 243.1 L 266.6 243.1 L 267.7 243.0 L 268.9 242.9 L 270.0 242.8 L 271.1 242.7 L 272.3 242.7 L 273.4 242.7 L 274.5 242.7 L 275.7 242.7 L 276.8 242.7 L 277.9 242.7 L 279.1 242.7 L 280.2 242.7 L 281.3 242.7 L 282.5 242.7 L 283.6 242.7 L 284.7 242.7 L 285.9 242.7 L 287.0 242.7 L 288.1 242.7 L 289.3 242.7 L 290.4 242.7 L 291.5 242.7 L 292.7 242.7 L 293.8 242.7 L 294.9 242.7 L 296.1 242.7 L 297.2 242.7 L 298.3 242.7 L 299.5 242.7 L 300.6 242.7 L 301.7 242.7 L 302.9 242.7 L 304.0 242.7 L 305.1 242.7 L 306.3 242.7 L 307.4 242.7 L 308.5 242.7 L 309.7 242.7 L 310.8 242.7 L 311.9 242.7 L 313.1 242.7 L 314.2 242.7 L 315.3 242.7 L 316.5 242.7 L 317.6 242.7 L 318.7 242.7 L 319.9 242.7 L 321.0 242.7 L 322.1 242.7 L 323.3 242.7 L 324.4 242.7 L 325.5 242.7 L 326.7 242.7 L 327.8 242.7 L 328.9 242.7 L 330.1 242.7 L 331.2 242.7 L 332.3 242.7 L 333.5 242.7 L 334.6 242.7 L 335.7 242.7 L 336.9 242.7 L 338.0 242.7 L 339.1 242.7 L 340.3 242.7 L 341.4 242.7 L 342.5 242.7 L 343.7 242.7 L 344.8 242.7 L 345.9 242.7 L 347.1 242.7 L 348.2 242.7 L 349.3 242.7 L 350.5 242.7 L 351.6 242.7 L 352.7 242.7 L 353.9 242.7 L 355.0 242.7 L 356.1 242.7 L 357.3 242.7 L 358.4 242.7 L 359.5 242.7 L 360.7 242.7 L 361.8 242.7 L 362.9 242.7 L 364.1 242.7 L 365.2 242.7 L 366.3 242.7 L 367.5 242.7 L 368.6 242.7 L 369.7 242.7 L 370.9 242.7 L 372.0 242.7" fill="none" stroke="#0f766e" stroke-width="2.1"/>
    <path d="M 100.0 227.1 L 101.1 227.1 L 102.3 227.1 L 103.4 227.1 L 104.5 227.1 L 105.7 227.2 L 106.8 227.2 L 107.9 227.2 L 109.1 227.3 L 110.2 227.3 L 111.3 227.4 L 112.5 227.4 L 113.6 227.4 L 114.7 227.5 L 115.9 227.5 L 117.0 227.5 L 118.1 227.5 L 119.3 227.5 L 120.4 227.6 L 121.5 227.6 L 122.7 227.6 L 123.8 227.6 L 124.9 227.6 L 126.1 227.6 L 127.2 227.6 L 128.3 227.6 L 129.5 227.6 L 130.6 227.5 L 131.7 227.5 L 132.9 227.5 L 134.0 227.5 L 135.1 227.4 L 136.3 227.4 L 137.4 227.4 L 138.5 227.4 L 139.7 227.3 L 140.8 227.3 L 141.9 227.3 L 143.1 227.2 L 144.2 227.2 L 145.3 227.1 L 146.5 227.1 L 147.6 227.1 L 148.7 227.0 L 149.9 227.0 L 151.0 227.0 L 152.1 226.9 L 153.3 226.9 L 154.4 226.8 L 155.5 226.8 L 156.7 226.8 L 157.8 226.7 L 158.9 226.7 L 160.1 226.7 L 161.2 226.6 L 162.3 226.6 L 163.5 226.6 L 164.6 226.5 L 165.7 226.5 L 166.9 226.5 L 168.0 226.4 L 169.1 226.4 L 170.3 226.4 L 171.4 226.3 L 172.5 226.3 L 173.7 226.3 L 174.8 226.3 L 175.9 226.2 L 177.1 226.2 L 178.2 226.2 L 179.3 226.2 L 180.5 226.1 L 181.6 226.1 L 182.7 226.1 L 183.9 226.1 L 185.0 226.1 L 186.1 226.0 L 187.3 226.0 L 188.4 226.0 L 189.5 226.0 L 190.7 226.0 L 191.8 226.0 L 192.9 225.9 L 194.1 225.9 L 195.2 225.9 L 196.3 225.9 L 197.5 225.9 L 198.6 225.9 L 199.7 225.9 L 200.9 225.8 L 202.0 225.8 L 203.1 225.8 L 204.3 225.8 L 205.4 225.8 L 206.5 225.8 L 207.7 225.8 L 208.8 225.8 L 209.9 225.8 L 211.1 225.8 L 212.2 225.8 L 213.3 225.7 L 214.5 225.7 L 215.6 225.7 L 216.7 225.7 L 217.9 225.7 L 219.0 225.7 L 220.1 225.7 L 221.3 225.7 L 222.4 225.7 L 223.5 225.7 L 224.7 225.7 L 225.8 225.7 L 226.9 225.7 L 228.1 225.7 L 229.2 225.7 L 230.3 225.7 L 231.5 225.7 L 232.6 225.7 L 233.7 225.7 L 234.9 225.7 L 236.0 225.7 L 237.1 225.7 L 238.3 225.6 L 239.4 225.6 L 240.5 225.6 L 241.7 225.6 L 242.8 225.6 L 243.9 225.6 L 245.1 225.6 L 246.2 225.6 L 247.3 225.6 L 248.5 225.6 L 249.6 225.6 L 250.7 225.6 L 251.9 225.6 L 253.0 225.6 L 254.1 225.6 L 255.3 225.6 L 256.4 225.6 L 257.5 225.6 L 258.7 225.6 L 259.8 225.6 L 260.9 225.6 L 262.1 225.6 L 263.2 225.6 L 264.3 225.6 L 265.5 225.6 L 266.6 225.6 L 267.7 225.6 L 268.9 225.6 L 270.0 225.6 L 271.1 225.6 L 272.3 225.6 L 273.4 225.6 L 274.5 225.6 L 275.7 225.6 L 276.8 225.6 L 277.9 225.6 L 279.1 225.6 L 280.2 225.6 L 281.3 225.6 L 282.5 225.6 L 283.6 225.6 L 284.7 225.6 L 285.9 225.6 L 287.0 225.6 L 288.1 225.6 L 289.3 225.6 L 290.4 225.6 L 291.5 225.6 L 292.7 225.6 L 293.8 225.6 L 294.9 225.6 L 296.1 225.6 L 297.2 225.6 L 298.3 225.6 L 299.5 225.6 L 300.6 225.6 L 301.7 225.6 L 302.9 225.6 L 304.0 225.6 L 305.1 225.6 L 306.3 225.6 L 307.4 225.6 L 308.5 225.6 L 309.7 225.6 L 310.8 225.6 L 311.9 225.6 L 313.1 225.6 L 314.2 225.6 L 315.3 225.6 L 316.5 225.6 L 317.6 225.6 L 318.7 225.6 L 319.9 225.6 L 321.0 225.6 L 322.1 225.6 L 323.3 225.6 L 324.4 225.6 L 325.5 225.6 L 326.7 225.6 L 327.8 225.6 L 328.9 225.6 L 330.1 225.6 L 331.2 225.6 L 332.3 225.6 L 333.5 225.6 L 334.6 225.6 L 335.7 225.6 L 336.9 225.6 L 338.0 225.6 L 339.1 225.6 L 340.3 225.6 L 341.4 225.6 L 342.5 225.6 L 343.7 225.6 L 344.8 225.6 L 345.9 225.6 L 347.1 225.6 L 348.2 225.6 L 349.3 225.6 L 350.5 225.6 L 351.6 225.6 L 352.7 225.6 L 353.9 225.6 L 355.0 225.6 L 356.1 225.6 L 357.3 225.6 L 358.4 225.6 L 359.5 225.6 L 360.7 225.6 L 361.8 225.6 L 362.9 225.6 L 364.1 225.6 L 365.2 225.6 L 366.3 225.6 L 367.5 225.6 L 368.6 225.6 L 369.7 225.6 L 370.9 225.6 L 372.0 225.6" fill="none" stroke="#dc2626" stroke-width="2.1"/>
    <path d="M 100.0 244.5 L 101.1 246.7 L 102.3 248.0 L 103.4 249.0 L 104.5 249.8 L 105.7 250.3 L 106.8 250.6 L 107.9 250.7 L 109.1 250.8 L 110.2 250.7 L 111.3 250.6 L 112.5 250.5 L 113.6 250.3 L 114.7 250.1 L 115.9 249.8 L 117.0 249.6 L 118.1 249.4 L 119.3 249.2 L 120.4 249.1 L 121.5 249.0 L 122.7 248.9 L 123.8 248.8 L 124.9 248.7 L 126.1 248.7 L 127.2 248.7 L 128.3 248.6 L 129.5 248.6 L 130.6 248.6 L 131.7 248.6 L 132.9 248.5 L 134.0 248.5 L 135.1 248.5 L 136.3 248.5 L 137.4 248.5 L 138.5 248.5 L 139.7 248.5 L 140.8 248.5 L 141.9 248.5 L 143.1 248.5 L 144.2 248.5 L 145.3 248.5 L 146.5 248.5 L 147.6 248.5 L 148.7 248.5 L 149.9 248.5 L 151.0 248.5 L 152.1 248.5 L 153.3 248.5 L 154.4 248.5 L 155.5 248.5 L 156.7 248.5 L 157.8 248.5 L 158.9 248.5 L 160.1 248.5 L 161.2 248.5 L 162.3 248.5 L 163.5 248.5 L 164.6 248.5 L 165.7 248.5 L 166.9 248.5 L 168.0 248.5 L 169.1 248.5 L 170.3 248.5 L 171.4 248.5 L 172.5 248.5 L 173.7 248.5 L 174.8 248.5 L 175.9 248.5 L 177.1 248.5 L 178.2 248.5 L 179.3 248.5 L 180.5 248.5 L 181.6 248.5 L 182.7 248.5 L 183.9 248.5 L 185.0 248.5 L 186.1 248.5 L 187.3 248.5 L 188.4 248.5 L 189.5 248.5 L 190.7 248.5 L 191.8 248.5 L 192.9 248.5 L 194.1 248.5 L 195.2 248.5 L 196.3 248.5 L 197.5 248.5 L 198.6 248.5 L 199.7 248.5 L 200.9 248.5 L 202.0 248.5 L 203.1 248.5 L 204.3 248.5 L 205.4 248.5 L 206.5 248.5 L 207.7 248.5 L 208.8 248.5 L 209.9 248.5 L 211.1 248.5 L 212.2 248.5 L 213.3 248.5 L 214.5 248.5 L 215.6 248.5 L 216.7 248.5 L 217.9 248.5 L 219.0 248.5 L 220.1 248.5 L 221.3 248.5 L 222.4 248.5 L 223.5 248.5 L 224.7 248.5 L 225.8 248.5 L 226.9 248.5 L 228.1 248.5 L 229.2 248.5 L 230.3 248.5 L 231.5 248.5 L 232.6 248.5 L 233.7 248.5 L 234.9 248.5 L 236.0 248.5 L 237.1 248.5 L 238.3 248.5 L 239.4 248.5 L 240.5 248.5 L 241.7 248.5 L 242.8 248.5 L 243.9 248.5 L 245.1 248.5 L 246.2 248.5 L 247.3 248.5 L 248.5 248.5 L 249.6 248.5 L 250.7 248.5 L 251.9 248.5 L 253.0 248.5 L 254.1 248.5 L 255.3 248.5 L 256.4 248.5 L 257.5 248.5 L 258.7 248.5 L 259.8 248.5 L 260.9 248.5 L 262.1 248.5 L 263.2 248.5 L 264.3 248.5 L 265.5 248.5 L 266.6 248.5 L 267.7 248.5 L 268.9 248.5 L 270.0 248.5 L 271.1 248.5 L 272.3 248.5 L 273.4 248.5 L 274.5 248.5 L 275.7 248.5 L 276.8 248.5 L 277.9 248.5 L 279.1 248.5 L 280.2 248.5 L 281.3 248.5 L 282.5 248.5 L 283.6 248.5 L 284.7 248.5 L 285.9 248.5 L 287.0 248.5 L 288.1 248.5 L 289.3 248.5 L 290.4 248.5 L 291.5 248.5 L 292.7 248.5 L 293.8 248.5 L 294.9 248.5 L 296.1 248.5 L 297.2 248.5 L 298.3 248.5 L 299.5 248.5 L 300.6 248.5 L 301.7 248.5 L 302.9 248.5 L 304.0 248.5 L 305.1 248.5 L 306.3 248.5 L 307.4 248.5 L 308.5 248.5 L 309.7 248.5 L 310.8 248.5 L 311.9 248.5 L 313.1 248.5 L 314.2 248.5 L 315.3 248.5 L 316.5 248.5 L 317.6 248.5 L 318.7 248.5 L 319.9 248.5 L 321.0 248.5 L 322.1 248.5 L 323.3 248.5 L 324.4 248.5 L 325.5 248.5 L 326.7 248.5 L 327.8 248.5 L 328.9 248.5 L 330.1 248.5 L 331.2 248.5 L 332.3 248.5 L 333.5 248.5 L 334.6 248.5 L 335.7 248.5 L 336.9 248.5 L 338.0 248.5 L 339.1 248.5 L 340.3 248.5 L 341.4 248.5 L 342.5 248.5 L 343.7 248.5 L 344.8 248.5 L 345.9 248.5 L 347.1 248.5 L 348.2 248.5 L 349.3 248.5 L 350.5 248.5 L 351.6 248.5 L 352.7 248.5 L 353.9 248.5 L 355.0 248.5 L 356.1 248.5 L 357.3 248.5 L 358.4 248.5 L 359.5 248.5 L 360.7 248.5 L 361.8 248.5 L 362.9 248.5 L 364.1 248.5 L 365.2 248.5 L 366.3 248.5 L 367.5 248.5 L 368.6 248.5 L 369.7 248.5 L 370.9 248.5 L 372.0 248.5" fill="none" stroke="#f59e0b" stroke-width="2.1"/>
      
      <g transform="translate(106, 283)">
        <line x1="0" y1="0" x2="18" y2="0" stroke="#2563eb" stroke-width="3"/>
        <text x="24" y="4" font-family="Inter, system-ui, sans-serif" font-size="11" fill="#374151">Core MW / 10</text>
      </g>
      <g transform="translate(252, 283)">
        <line x1="0" y1="0" x2="18" y2="0" stroke="#0f766e" stroke-width="3"/>
        <text x="24" y="4" font-family="Inter, system-ui, sans-serif" font-size="11" fill="#374151">SG level %</text>
      </g>
      <g transform="translate(106, 300)">
        <line x1="0" y1="0" x2="18" y2="0" stroke="#dc2626" stroke-width="3"/>
        <text x="24" y="4" font-family="Inter, system-ui, sans-serif" font-size="11" fill="#374151">PZR MPa x 10</text>
      </g>
      <g transform="translate(252, 300)">
        <line x1="0" y1="0" x2="18" y2="0" stroke="#f59e0b" stroke-width="3"/>
        <text x="24" y="4" font-family="Inter, system-ui, sans-serif" font-size="11" fill="#374151">Turbine MW / 10</text>
      </g>
    </g>
    <g>
      <rect x="430" y="92" width="350" height="225" rx="12" fill="#ffffff" stroke="#d1d5db"/>
      <text x="452" y="120" font-family="Inter, system-ui, sans-serif" font-size="17" font-weight="700" fill="#111827">SGTR</text>
      <text x="452" y="139" font-family="Inter, system-ui, sans-serif" font-size="11" fill="#6b7280">Steam generator tube leak creates primary-to-secondary leak flow and secondary radiation.</text>
      <line x1="480" y1="271" x2="752" y2="271" stroke="#9ca3af"/>
      <line x1="480" y1="152" x2="480" y2="271" stroke="#9ca3af"/>
      <text x="472" y="156" text-anchor="end" font-family="Inter, system-ui, sans-serif" font-size="10" fill="#6b7280">420</text>
      <text x="472" y="275" text-anchor="end" font-family="Inter, system-ui, sans-serif" font-size="10" fill="#6b7280">0</text>
      
    <path d="M 480.0 189.1 L 481.1 185.2 L 482.3 185.3 L 483.4 185.4 L 484.5 185.5 L 485.7 185.6 L 486.8 185.7 L 487.9 185.8 L 489.1 185.8 L 490.2 185.9 L 491.3 186.0 L 492.5 186.0 L 493.6 186.0 L 494.7 186.1 L 495.9 186.1 L 497.0 186.2 L 498.1 186.2 L 499.3 186.2 L 500.4 186.3 L 501.5 186.3 L 502.7 186.3 L 503.8 186.3 L 504.9 186.3 L 506.1 186.4 L 507.2 186.4 L 508.3 186.4 L 509.5 186.4 L 510.6 186.4 L 511.7 186.4 L 512.9 186.5 L 514.0 186.5 L 515.1 186.5 L 516.3 186.5 L 517.4 186.5 L 518.5 186.5 L 519.7 186.5 L 520.8 186.5 L 521.9 186.5 L 523.1 186.5 L 524.2 186.5 L 525.3 186.5 L 526.5 186.5 L 527.6 186.6 L 528.7 186.6 L 529.9 186.6 L 531.0 186.6 L 532.1 186.6 L 533.3 186.6 L 534.4 186.6 L 535.5 186.6 L 536.7 186.6 L 537.8 186.6 L 538.9 186.6 L 540.1 186.6 L 541.2 186.6 L 542.3 186.6 L 543.5 186.6 L 544.6 186.6 L 545.7 186.6 L 546.9 186.6 L 548.0 186.6 L 549.1 186.6 L 550.3 186.6 L 551.4 186.6 L 552.5 186.6 L 553.7 186.6 L 554.8 186.6 L 555.9 186.6 L 557.1 186.6 L 558.2 186.6 L 559.3 186.6 L 560.5 186.6 L 561.6 186.6 L 562.7 186.6 L 563.9 186.6 L 565.0 186.6 L 566.1 186.6 L 567.3 186.6 L 568.4 186.6 L 569.5 186.6 L 570.7 186.6 L 571.8 186.6 L 572.9 186.6 L 574.1 186.6 L 575.2 186.6 L 576.3 186.6 L 577.5 186.6 L 578.6 186.6 L 579.7 186.6 L 580.9 186.6 L 582.0 186.6 L 583.1 186.6 L 584.3 186.6 L 585.4 186.6 L 586.5 186.6 L 587.7 186.6 L 588.8 186.6 L 589.9 186.6 L 591.1 186.6 L 592.2 186.6 L 593.3 186.6 L 594.5 186.6 L 595.6 186.6 L 596.7 186.6 L 597.9 186.6 L 599.0 186.6 L 600.1 186.6 L 601.3 186.6 L 602.4 186.6 L 603.5 186.6 L 604.7 186.6 L 605.8 186.6 L 606.9 186.6 L 608.1 186.6 L 609.2 186.6 L 610.3 186.6 L 611.5 186.6 L 612.6 186.6 L 613.7 186.6 L 614.9 186.6 L 616.0 186.6 L 617.1 186.6 L 618.3 186.6 L 619.4 186.6 L 620.5 186.6 L 621.7 186.6 L 622.8 186.6 L 623.9 186.6 L 625.1 186.6 L 626.2 186.6 L 627.3 186.6 L 628.5 186.6 L 629.6 186.6 L 630.7 186.6 L 631.9 186.6 L 633.0 186.6 L 634.1 186.6 L 635.3 186.6 L 636.4 186.6 L 637.5 186.6 L 638.7 186.6 L 639.8 186.6 L 640.9 186.6 L 642.1 186.6 L 643.2 186.6 L 644.3 186.6 L 645.5 186.6 L 646.6 186.6 L 647.7 186.6 L 648.9 186.6 L 650.0 186.6 L 651.1 186.6 L 652.3 186.6 L 653.4 186.6 L 654.5 186.6 L 655.7 186.6 L 656.8 186.6 L 657.9 186.6 L 659.1 186.6 L 660.2 186.6 L 661.3 186.6 L 662.5 186.6 L 663.6 186.6 L 664.7 186.6 L 665.9 186.6 L 667.0 186.6 L 668.1 186.6 L 669.3 186.6 L 670.4 186.6 L 671.5 186.6 L 672.7 186.6 L 673.8 186.6 L 674.9 186.6 L 676.1 186.6 L 677.2 186.6 L 678.3 186.6 L 679.5 186.6 L 680.6 186.6 L 681.7 186.6 L 682.9 186.6 L 684.0 186.6 L 685.1 186.6 L 686.3 186.6 L 687.4 186.6 L 688.5 186.6 L 689.7 186.6 L 690.8 186.6 L 691.9 186.6 L 693.1 186.6 L 694.2 186.6 L 695.3 186.6 L 696.5 186.6 L 697.6 186.6 L 698.7 186.6 L 699.9 186.6 L 701.0 186.6 L 702.1 186.6 L 703.3 186.6 L 704.4 186.6 L 705.5 186.6 L 706.7 186.6 L 707.8 186.6 L 708.9 186.6 L 710.1 186.6 L 711.2 186.6 L 712.3 186.6 L 713.5 186.6 L 714.6 186.6 L 715.7 186.6 L 716.9 186.6 L 718.0 186.6 L 719.1 186.6 L 720.3 186.6 L 721.4 186.6 L 722.5 186.6 L 723.7 186.6 L 724.8 186.6 L 725.9 186.6 L 727.1 186.6 L 728.2 186.6 L 729.3 186.6 L 730.5 186.6 L 731.6 186.6 L 732.7 186.6 L 733.9 186.6 L 735.0 186.6 L 736.1 186.6 L 737.3 186.6 L 738.4 186.6 L 739.5 186.6 L 740.7 186.6 L 741.8 186.6 L 742.9 186.6 L 744.1 186.6 L 745.2 186.6 L 746.3 186.6 L 747.5 186.6 L 748.6 186.6 L 749.7 186.6 L 750.9 186.6 L 752.0 186.6" fill="none" stroke="#2563eb" stroke-width="2.1"/>
    <path d="M 480.0 255.4 L 481.1 255.3 L 482.3 255.1 L 483.4 255.0 L 484.5 254.8 L 485.7 254.7 L 486.8 254.6 L 487.9 254.5 L 489.1 254.3 L 490.2 254.2 L 491.3 254.1 L 492.5 254.0 L 493.6 253.9 L 494.7 253.8 L 495.9 253.7 L 497.0 253.7 L 498.1 253.6 L 499.3 253.5 L 500.4 253.4 L 501.5 253.3 L 502.7 253.2 L 503.8 253.1 L 504.9 253.0 L 506.1 253.0 L 507.2 252.9 L 508.3 252.8 L 509.5 252.7 L 510.6 252.6 L 511.7 252.5 L 512.9 252.4 L 514.0 252.4 L 515.1 252.3 L 516.3 252.2 L 517.4 252.1 L 518.5 252.0 L 519.7 251.9 L 520.8 251.9 L 521.9 251.8 L 523.1 251.7 L 524.2 251.6 L 525.3 251.5 L 526.5 251.5 L 527.6 251.4 L 528.7 251.3 L 529.9 251.2 L 531.0 251.1 L 532.1 251.1 L 533.3 251.0 L 534.4 250.9 L 535.5 250.8 L 536.7 250.7 L 537.8 250.7 L 538.9 250.6 L 540.1 250.5 L 541.2 250.4 L 542.3 250.3 L 543.5 250.3 L 544.6 250.2 L 545.7 250.1 L 546.9 250.0 L 548.0 249.8 L 549.1 249.7 L 550.3 249.5 L 551.4 249.3 L 552.5 249.1 L 553.7 248.9 L 554.8 248.8 L 555.9 248.6 L 557.1 248.4 L 558.2 248.2 L 559.3 248.0 L 560.5 247.9 L 561.6 247.7 L 562.7 247.5 L 563.9 247.3 L 565.0 247.1 L 566.1 247.0 L 567.3 246.8 L 568.4 246.6 L 569.5 246.4 L 570.7 246.3 L 571.8 246.1 L 572.9 245.9 L 574.1 245.7 L 575.2 245.5 L 576.3 245.4 L 577.5 245.2 L 578.6 245.0 L 579.7 244.8 L 580.9 244.7 L 582.0 244.5 L 583.1 244.3 L 584.3 244.1 L 585.4 244.0 L 586.5 243.8 L 587.7 243.6 L 588.8 243.4 L 589.9 243.3 L 591.1 243.1 L 592.2 242.9 L 593.3 242.7 L 594.5 242.7 L 595.6 242.7 L 596.7 242.7 L 597.9 242.7 L 599.0 242.7 L 600.1 242.7 L 601.3 242.7 L 602.4 242.7 L 603.5 242.7 L 604.7 242.7 L 605.8 242.7 L 606.9 242.7 L 608.1 242.7 L 609.2 242.7 L 610.3 242.7 L 611.5 242.7 L 612.6 242.7 L 613.7 242.7 L 614.9 242.7 L 616.0 242.7 L 617.1 242.7 L 618.3 242.7 L 619.4 242.7 L 620.5 242.7 L 621.7 242.7 L 622.8 242.7 L 623.9 242.7 L 625.1 242.7 L 626.2 242.7 L 627.3 242.7 L 628.5 242.7 L 629.6 242.7 L 630.7 242.7 L 631.9 242.7 L 633.0 242.7 L 634.1 242.7 L 635.3 242.7 L 636.4 242.7 L 637.5 242.7 L 638.7 242.7 L 639.8 242.7 L 640.9 242.7 L 642.1 242.7 L 643.2 242.7 L 644.3 242.7 L 645.5 242.7 L 646.6 242.7 L 647.7 242.7 L 648.9 242.7 L 650.0 242.7 L 651.1 242.7 L 652.3 242.7 L 653.4 242.7 L 654.5 242.7 L 655.7 242.7 L 656.8 242.7 L 657.9 242.7 L 659.1 242.7 L 660.2 242.7 L 661.3 242.7 L 662.5 242.7 L 663.6 242.7 L 664.7 242.7 L 665.9 242.7 L 667.0 242.7 L 668.1 242.7 L 669.3 242.7 L 670.4 242.7 L 671.5 242.7 L 672.7 242.7 L 673.8 242.7 L 674.9 242.7 L 676.1 242.7 L 677.2 242.7 L 678.3 242.7 L 679.5 242.7 L 680.6 242.7 L 681.7 242.7 L 682.9 242.7 L 684.0 242.7 L 685.1 242.7 L 686.3 242.7 L 687.4 242.7 L 688.5 242.7 L 689.7 242.7 L 690.8 242.7 L 691.9 242.7 L 693.1 242.7 L 694.2 242.7 L 695.3 242.7 L 696.5 242.7 L 697.6 242.7 L 698.7 242.7 L 699.9 242.7 L 701.0 242.7 L 702.1 242.7 L 703.3 242.7 L 704.4 242.7 L 705.5 242.7 L 706.7 242.7 L 707.8 242.7 L 708.9 242.7 L 710.1 242.7 L 711.2 242.7 L 712.3 242.7 L 713.5 242.7 L 714.6 242.7 L 715.7 242.7 L 716.9 242.7 L 718.0 242.7 L 719.1 242.7 L 720.3 242.7 L 721.4 242.7 L 722.5 242.7 L 723.7 242.7 L 724.8 242.7 L 725.9 242.7 L 727.1 242.7 L 728.2 242.7 L 729.3 242.7 L 730.5 242.7 L 731.6 242.7 L 732.7 242.7 L 733.9 242.7 L 735.0 242.7 L 736.1 242.7 L 737.3 242.7 L 738.4 242.7 L 739.5 242.7 L 740.7 242.7 L 741.8 242.7 L 742.9 242.7 L 744.1 242.7 L 745.2 242.7 L 746.3 242.7 L 747.5 242.7 L 748.6 242.7 L 749.7 242.7 L 750.9 242.7 L 752.0 242.7" fill="none" stroke="#0f766e" stroke-width="2.1"/>
    <path d="M 480.0 227.1 L 481.1 227.1 L 482.3 227.1 L 483.4 227.1 L 484.5 227.1 L 485.7 227.2 L 486.8 227.2 L 487.9 227.2 L 489.1 227.3 L 490.2 227.3 L 491.3 227.4 L 492.5 227.4 L 493.6 227.4 L 494.7 227.5 L 495.9 227.5 L 497.0 227.5 L 498.1 227.5 L 499.3 227.5 L 500.4 227.6 L 501.5 227.6 L 502.7 227.6 L 503.8 227.6 L 504.9 227.6 L 506.1 227.6 L 507.2 227.6 L 508.3 227.6 L 509.5 227.6 L 510.6 227.5 L 511.7 227.5 L 512.9 227.5 L 514.0 227.5 L 515.1 227.4 L 516.3 227.4 L 517.4 227.4 L 518.5 227.4 L 519.7 227.3 L 520.8 227.3 L 521.9 227.3 L 523.1 227.2 L 524.2 227.2 L 525.3 227.1 L 526.5 227.1 L 527.6 227.1 L 528.7 227.0 L 529.9 227.0 L 531.0 227.0 L 532.1 226.9 L 533.3 226.9 L 534.4 226.8 L 535.5 226.8 L 536.7 226.8 L 537.8 226.7 L 538.9 226.7 L 540.1 226.7 L 541.2 226.6 L 542.3 226.6 L 543.5 226.6 L 544.6 226.5 L 545.7 226.5 L 546.9 226.5 L 548.0 226.4 L 549.1 226.4 L 550.3 226.4 L 551.4 226.3 L 552.5 226.3 L 553.7 226.3 L 554.8 226.3 L 555.9 226.3 L 557.1 226.3 L 558.2 226.2 L 559.3 226.2 L 560.5 226.2 L 561.6 226.2 L 562.7 226.2 L 563.9 226.2 L 565.0 226.2 L 566.1 226.2 L 567.3 226.2 L 568.4 226.2 L 569.5 226.2 L 570.7 226.2 L 571.8 226.2 L 572.9 226.2 L 574.1 226.2 L 575.2 226.2 L 576.3 226.2 L 577.5 226.2 L 578.6 226.2 L 579.7 226.2 L 580.9 226.2 L 582.0 226.2 L 583.1 226.2 L 584.3 226.2 L 585.4 226.2 L 586.5 226.3 L 587.7 226.3 L 588.8 226.3 L 589.9 226.3 L 591.1 226.3 L 592.2 226.3 L 593.3 226.3 L 594.5 226.3 L 595.6 226.3 L 596.7 226.4 L 597.9 226.4 L 599.0 226.4 L 600.1 226.4 L 601.3 226.4 L 602.4 226.4 L 603.5 226.4 L 604.7 226.4 L 605.8 226.5 L 606.9 226.5 L 608.1 226.5 L 609.2 226.5 L 610.3 226.5 L 611.5 226.5 L 612.6 226.6 L 613.7 226.6 L 614.9 226.6 L 616.0 226.6 L 617.1 226.6 L 618.3 226.6 L 619.4 226.6 L 620.5 226.7 L 621.7 226.7 L 622.8 226.7 L 623.9 226.7 L 625.1 226.7 L 626.2 226.7 L 627.3 226.8 L 628.5 226.8 L 629.6 226.8 L 630.7 226.8 L 631.9 226.8 L 633.0 226.9 L 634.1 226.9 L 635.3 226.9 L 636.4 226.9 L 637.5 226.9 L 638.7 226.9 L 639.8 227.0 L 640.9 227.0 L 642.1 227.0 L 643.2 227.0 L 644.3 227.0 L 645.5 227.0 L 646.6 227.1 L 647.7 227.1 L 648.9 227.1 L 650.0 227.1 L 651.1 227.1 L 652.3 227.2 L 653.4 227.2 L 654.5 227.2 L 655.7 227.2 L 656.8 227.2 L 657.9 227.2 L 659.1 227.3 L 660.2 227.3 L 661.3 227.3 L 662.5 227.3 L 663.6 227.3 L 664.7 227.3 L 665.9 227.4 L 667.0 227.4 L 668.1 227.4 L 669.3 227.4 L 670.4 227.4 L 671.5 227.5 L 672.7 227.5 L 673.8 227.5 L 674.9 227.5 L 676.1 227.5 L 677.2 227.5 L 678.3 227.6 L 679.5 227.6 L 680.6 227.6 L 681.7 227.6 L 682.9 227.6 L 684.0 227.7 L 685.1 227.7 L 686.3 227.7 L 687.4 227.7 L 688.5 227.7 L 689.7 227.7 L 690.8 227.8 L 691.9 227.8 L 693.1 227.8 L 694.2 227.8 L 695.3 227.8 L 696.5 227.9 L 697.6 227.9 L 698.7 227.9 L 699.9 227.9 L 701.0 227.9 L 702.1 227.9 L 703.3 228.0 L 704.4 228.0 L 705.5 228.0 L 706.7 228.0 L 707.8 228.0 L 708.9 228.1 L 710.1 228.1 L 711.2 228.1 L 712.3 228.1 L 713.5 228.1 L 714.6 228.1 L 715.7 228.2 L 716.9 228.2 L 718.0 228.2 L 719.1 228.2 L 720.3 228.2 L 721.4 228.3 L 722.5 228.3 L 723.7 228.3 L 724.8 228.3 L 725.9 228.3 L 727.1 228.3 L 728.2 228.4 L 729.3 228.4 L 730.5 228.4 L 731.6 228.4 L 732.7 228.4 L 733.9 228.4 L 735.0 228.5 L 736.1 228.5 L 737.3 228.5 L 738.4 228.5 L 739.5 228.5 L 740.7 228.6 L 741.8 228.6 L 742.9 228.6 L 744.1 228.6 L 745.2 228.6 L 746.3 228.6 L 747.5 228.7 L 748.6 228.7 L 749.7 228.7 L 750.9 228.7 L 752.0 228.7" fill="none" stroke="#dc2626" stroke-width="2.1"/>
    <path d="M 480.0 244.5 L 481.1 246.7 L 482.3 248.0 L 483.4 249.0 L 484.5 249.8 L 485.7 250.3 L 486.8 250.6 L 487.9 250.7 L 489.1 250.8 L 490.2 250.7 L 491.3 250.6 L 492.5 250.5 L 493.6 250.3 L 494.7 250.1 L 495.9 249.8 L 497.0 249.6 L 498.1 249.4 L 499.3 249.2 L 500.4 249.1 L 501.5 249.0 L 502.7 248.9 L 503.8 248.8 L 504.9 248.7 L 506.1 248.7 L 507.2 248.7 L 508.3 248.6 L 509.5 248.6 L 510.6 248.6 L 511.7 248.6 L 512.9 248.5 L 514.0 248.5 L 515.1 248.5 L 516.3 248.5 L 517.4 248.5 L 518.5 248.5 L 519.7 248.5 L 520.8 248.5 L 521.9 248.5 L 523.1 248.5 L 524.2 248.5 L 525.3 248.5 L 526.5 248.5 L 527.6 248.5 L 528.7 248.5 L 529.9 248.5 L 531.0 248.5 L 532.1 248.5 L 533.3 248.5 L 534.4 248.5 L 535.5 248.5 L 536.7 248.5 L 537.8 248.5 L 538.9 248.5 L 540.1 248.5 L 541.2 248.5 L 542.3 248.5 L 543.5 248.5 L 544.6 248.5 L 545.7 248.5 L 546.9 248.5 L 548.0 248.5 L 549.1 248.5 L 550.3 248.5 L 551.4 248.5 L 552.5 248.5 L 553.7 248.5 L 554.8 248.5 L 555.9 248.5 L 557.1 248.5 L 558.2 248.5 L 559.3 248.5 L 560.5 248.5 L 561.6 248.5 L 562.7 248.5 L 563.9 248.5 L 565.0 248.5 L 566.1 248.5 L 567.3 248.5 L 568.4 248.5 L 569.5 248.5 L 570.7 248.5 L 571.8 248.5 L 572.9 248.5 L 574.1 248.5 L 575.2 248.5 L 576.3 248.5 L 577.5 248.5 L 578.6 248.5 L 579.7 248.5 L 580.9 248.5 L 582.0 248.5 L 583.1 248.5 L 584.3 248.5 L 585.4 248.5 L 586.5 248.5 L 587.7 248.5 L 588.8 248.5 L 589.9 248.5 L 591.1 248.5 L 592.2 248.5 L 593.3 248.5 L 594.5 248.5 L 595.6 248.5 L 596.7 248.5 L 597.9 248.5 L 599.0 248.5 L 600.1 248.5 L 601.3 248.5 L 602.4 248.5 L 603.5 248.5 L 604.7 248.5 L 605.8 248.5 L 606.9 248.5 L 608.1 248.5 L 609.2 248.5 L 610.3 248.5 L 611.5 248.5 L 612.6 248.5 L 613.7 248.5 L 614.9 248.5 L 616.0 248.5 L 617.1 248.5 L 618.3 248.5 L 619.4 248.5 L 620.5 248.5 L 621.7 248.5 L 622.8 248.5 L 623.9 248.5 L 625.1 248.5 L 626.2 248.5 L 627.3 248.5 L 628.5 248.5 L 629.6 248.5 L 630.7 248.5 L 631.9 248.5 L 633.0 248.5 L 634.1 248.5 L 635.3 248.5 L 636.4 248.5 L 637.5 248.5 L 638.7 248.5 L 639.8 248.5 L 640.9 248.5 L 642.1 248.5 L 643.2 248.5 L 644.3 248.5 L 645.5 248.5 L 646.6 248.5 L 647.7 248.5 L 648.9 248.5 L 650.0 248.5 L 651.1 248.5 L 652.3 248.5 L 653.4 248.5 L 654.5 248.5 L 655.7 248.5 L 656.8 248.5 L 657.9 248.5 L 659.1 248.5 L 660.2 248.5 L 661.3 248.5 L 662.5 248.5 L 663.6 248.5 L 664.7 248.5 L 665.9 248.5 L 667.0 248.5 L 668.1 248.5 L 669.3 248.5 L 670.4 248.5 L 671.5 248.5 L 672.7 248.5 L 673.8 248.5 L 674.9 248.5 L 676.1 248.5 L 677.2 248.5 L 678.3 248.5 L 679.5 248.5 L 680.6 248.5 L 681.7 248.5 L 682.9 248.5 L 684.0 248.5 L 685.1 248.5 L 686.3 248.5 L 687.4 248.5 L 688.5 248.5 L 689.7 248.5 L 690.8 248.5 L 691.9 248.5 L 693.1 248.5 L 694.2 248.5 L 695.3 248.5 L 696.5 248.5 L 697.6 248.5 L 698.7 248.5 L 699.9 248.5 L 701.0 248.5 L 702.1 248.5 L 703.3 248.5 L 704.4 248.5 L 705.5 248.5 L 706.7 248.5 L 707.8 248.5 L 708.9 248.5 L 710.1 248.5 L 711.2 248.5 L 712.3 248.5 L 713.5 248.5 L 714.6 248.5 L 715.7 248.5 L 716.9 248.5 L 718.0 248.5 L 719.1 248.5 L 720.3 248.5 L 721.4 248.5 L 722.5 248.5 L 723.7 248.5 L 724.8 248.5 L 725.9 248.5 L 727.1 248.5 L 728.2 248.5 L 729.3 248.5 L 730.5 248.5 L 731.6 248.5 L 732.7 248.5 L 733.9 248.5 L 735.0 248.5 L 736.1 248.5 L 737.3 248.5 L 738.4 248.5 L 739.5 248.5 L 740.7 248.5 L 741.8 248.5 L 742.9 248.5 L 744.1 248.5 L 745.2 248.5 L 746.3 248.5 L 747.5 248.5 L 748.6 248.5 L 749.7 248.5 L 750.9 248.5 L 752.0 248.5" fill="none" stroke="#f59e0b" stroke-width="2.1"/>
      
      <g transform="translate(486, 283)">
        <line x1="0" y1="0" x2="18" y2="0" stroke="#2563eb" stroke-width="3"/>
        <text x="24" y="4" font-family="Inter, system-ui, sans-serif" font-size="11" fill="#374151">Core MW / 10</text>
      </g>
      <g transform="translate(632, 283)">
        <line x1="0" y1="0" x2="18" y2="0" stroke="#0f766e" stroke-width="3"/>
        <text x="24" y="4" font-family="Inter, system-ui, sans-serif" font-size="11" fill="#374151">SG level %</text>
      </g>
      <g transform="translate(486, 300)">
        <line x1="0" y1="0" x2="18" y2="0" stroke="#dc2626" stroke-width="3"/>
        <text x="24" y="4" font-family="Inter, system-ui, sans-serif" font-size="11" fill="#374151">PZR MPa x 10</text>
      </g>
      <g transform="translate(632, 300)">
        <line x1="0" y1="0" x2="18" y2="0" stroke="#f59e0b" stroke-width="3"/>
        <text x="24" y="4" font-family="Inter, system-ui, sans-serif" font-size="11" fill="#374151">Turbine MW / 10</text>
      </g>
    </g>
    <g>
      <rect x="810" y="92" width="350" height="225" rx="12" fill="#ffffff" stroke="#d1d5db"/>
      <text x="832" y="120" font-family="Inter, system-ui, sans-serif" font-size="17" font-weight="700" fill="#111827">Loss of Feedwater</text>
      <text x="832" y="139" font-family="Inter, system-ui, sans-serif" font-size="11" fill="#6b7280">Both main feedwater pumps trip and steam generator level should fall.</text>
      <line x1="860" y1="271" x2="1132" y2="271" stroke="#9ca3af"/>
      <line x1="860" y1="152" x2="860" y2="271" stroke="#9ca3af"/>
      <text x="852" y="156" text-anchor="end" font-family="Inter, system-ui, sans-serif" font-size="10" fill="#6b7280">420</text>
      <text x="852" y="275" text-anchor="end" font-family="Inter, system-ui, sans-serif" font-size="10" fill="#6b7280">0</text>
      
    <path d="M 860.0 189.1 L 861.1 185.2 L 862.3 185.3 L 863.4 185.4 L 864.5 185.5 L 865.7 185.6 L 866.8 185.7 L 867.9 185.8 L 869.1 185.8 L 870.2 185.9 L 871.3 186.0 L 872.5 186.0 L 873.6 186.0 L 874.7 186.1 L 875.9 186.1 L 877.0 186.2 L 878.1 186.2 L 879.3 186.2 L 880.4 186.3 L 881.5 186.3 L 882.7 186.3 L 883.8 186.3 L 884.9 186.3 L 886.1 186.4 L 887.2 186.4 L 888.3 186.4 L 889.5 186.4 L 890.6 186.4 L 891.7 186.4 L 892.9 186.5 L 894.0 186.5 L 895.1 186.5 L 896.3 186.5 L 897.4 186.5 L 898.5 186.5 L 899.7 186.5 L 900.8 186.5 L 901.9 186.5 L 903.1 186.5 L 904.2 186.5 L 905.3 186.5 L 906.5 186.5 L 907.6 186.6 L 908.7 186.6 L 909.9 186.6 L 911.0 186.6 L 912.1 186.6 L 913.3 186.6 L 914.4 186.6 L 915.5 186.6 L 916.7 186.6 L 917.8 186.6 L 918.9 186.6 L 920.1 186.6 L 921.2 186.6 L 922.3 186.6 L 923.5 186.6 L 924.6 186.6 L 925.7 186.6 L 926.9 186.6 L 928.0 186.6 L 929.1 186.6 L 930.3 186.6 L 931.4 186.6 L 932.5 186.6 L 933.7 186.6 L 934.8 186.6 L 935.9 186.6 L 937.1 186.6 L 938.2 186.6 L 939.3 186.6 L 940.5 186.6 L 941.6 186.6 L 942.7 186.6 L 943.9 186.6 L 945.0 186.6 L 946.1 186.6 L 947.3 186.6 L 948.4 186.6 L 949.5 186.6 L 950.7 186.6 L 951.8 186.6 L 952.9 186.6 L 954.1 186.6 L 955.2 186.6 L 956.3 186.6 L 957.5 186.6 L 958.6 186.6 L 959.7 186.6 L 960.9 186.6 L 962.0 186.6 L 963.1 186.6 L 964.3 186.6 L 965.4 186.6 L 966.5 186.6 L 967.7 186.6 L 968.8 186.6 L 969.9 186.6 L 971.1 186.6 L 972.2 186.6 L 973.3 186.6 L 974.5 186.6 L 975.6 186.6 L 976.7 186.6 L 977.9 186.6 L 979.0 186.6 L 980.1 186.6 L 981.3 186.6 L 982.4 186.6 L 983.5 186.6 L 984.7 186.6 L 985.8 186.6 L 986.9 186.6 L 988.1 186.6 L 989.2 186.6 L 990.3 186.6 L 991.5 186.6 L 992.6 186.6 L 993.7 186.6 L 994.9 186.6 L 996.0 186.6 L 997.1 186.6 L 998.3 186.6 L 999.4 186.6 L 1000.5 186.6 L 1001.7 186.6 L 1002.8 186.6 L 1003.9 186.6 L 1005.1 186.6 L 1006.2 186.6 L 1007.3 186.6 L 1008.5 186.6 L 1009.6 186.6 L 1010.7 186.6 L 1011.9 186.6 L 1013.0 186.6 L 1014.1 186.6 L 1015.3 186.6 L 1016.4 186.6 L 1017.5 186.6 L 1018.7 186.6 L 1019.8 186.6 L 1020.9 186.6 L 1022.1 186.6 L 1023.2 186.6 L 1024.3 186.6 L 1025.5 186.6 L 1026.6 186.6 L 1027.7 186.6 L 1028.9 186.6 L 1030.0 186.6 L 1031.1 186.6 L 1032.3 186.6 L 1033.4 186.6 L 1034.5 186.6 L 1035.7 186.6 L 1036.8 186.6 L 1037.9 186.6 L 1039.1 186.6 L 1040.2 186.6 L 1041.3 186.6 L 1042.5 186.6 L 1043.6 186.6 L 1044.7 186.6 L 1045.9 186.6 L 1047.0 186.6 L 1048.1 186.6 L 1049.3 186.6 L 1050.4 186.6 L 1051.5 186.6 L 1052.7 186.6 L 1053.8 186.6 L 1054.9 186.6 L 1056.1 186.6 L 1057.2 186.6 L 1058.3 186.6 L 1059.5 186.6 L 1060.6 186.6 L 1061.7 186.6 L 1062.9 186.6 L 1064.0 186.6 L 1065.1 186.6 L 1066.3 186.6 L 1067.4 186.6 L 1068.5 186.6 L 1069.7 186.6 L 1070.8 186.6 L 1071.9 186.6 L 1073.1 186.6 L 1074.2 186.6 L 1075.3 186.6 L 1076.5 186.6 L 1077.6 186.6 L 1078.7 186.6 L 1079.9 186.6 L 1081.0 186.6 L 1082.1 186.6 L 1083.3 186.6 L 1084.4 186.6 L 1085.5 186.6 L 1086.7 186.6 L 1087.8 186.6 L 1088.9 186.6 L 1090.1 186.6 L 1091.2 186.6 L 1092.3 186.6 L 1093.5 186.6 L 1094.6 186.6 L 1095.7 186.6 L 1096.9 186.6 L 1098.0 186.6 L 1099.1 186.6 L 1100.3 186.6 L 1101.4 186.6 L 1102.5 186.6 L 1103.7 186.6 L 1104.8 186.6 L 1105.9 186.6 L 1107.1 186.6 L 1108.2 186.6 L 1109.3 186.6 L 1110.5 186.6 L 1111.6 186.6 L 1112.7 186.6 L 1113.9 186.6 L 1115.0 186.6 L 1116.1 186.6 L 1117.3 186.6 L 1118.4 186.6 L 1119.5 186.6 L 1120.7 186.6 L 1121.8 186.6 L 1122.9 186.6 L 1124.1 186.6 L 1125.2 186.6 L 1126.3 186.6 L 1127.5 186.6 L 1128.6 186.6 L 1129.7 186.6 L 1130.9 186.6 L 1132.0 186.6" fill="none" stroke="#2563eb" stroke-width="2.1"/>
    <path d="M 860.0 255.4 L 861.1 255.3 L 862.3 255.1 L 863.4 255.0 L 864.5 254.8 L 865.7 254.7 L 866.8 254.6 L 867.9 254.5 L 869.1 254.3 L 870.2 254.2 L 871.3 254.1 L 872.5 254.0 L 873.6 253.9 L 874.7 253.8 L 875.9 253.7 L 877.0 253.7 L 878.1 253.6 L 879.3 253.5 L 880.4 253.4 L 881.5 253.3 L 882.7 253.2 L 883.8 253.1 L 884.9 253.0 L 886.1 253.0 L 887.2 252.9 L 888.3 252.8 L 889.5 252.7 L 890.6 252.6 L 891.7 252.5 L 892.9 252.4 L 894.0 252.4 L 895.1 252.3 L 896.3 252.2 L 897.4 252.1 L 898.5 252.0 L 899.7 251.9 L 900.8 251.9 L 901.9 251.8 L 903.1 251.7 L 904.2 251.6 L 905.3 251.5 L 906.5 251.5 L 907.6 251.4 L 908.7 251.3 L 909.9 251.2 L 911.0 251.1 L 912.1 251.1 L 913.3 251.0 L 914.4 250.9 L 915.5 250.8 L 916.7 250.7 L 917.8 250.7 L 918.9 250.6 L 920.1 250.5 L 921.2 250.4 L 922.3 250.3 L 923.5 250.3 L 924.6 250.2 L 925.7 250.1 L 926.9 250.0 L 928.0 250.0 L 929.1 249.9 L 930.3 249.9 L 931.4 249.9 L 932.5 249.9 L 933.7 250.0 L 934.8 250.0 L 935.9 250.1 L 937.1 250.2 L 938.2 250.2 L 939.3 250.3 L 940.5 250.4 L 941.6 250.5 L 942.7 250.6 L 943.9 250.7 L 945.0 250.8 L 946.1 250.9 L 947.3 251.0 L 948.4 251.1 L 949.5 251.2 L 950.7 251.3 L 951.8 251.4 L 952.9 251.5 L 954.1 251.6 L 955.2 251.7 L 956.3 251.9 L 957.5 252.0 L 958.6 252.1 L 959.7 252.2 L 960.9 252.3 L 962.0 252.4 L 963.1 252.5 L 964.3 252.6 L 965.4 252.8 L 966.5 252.9 L 967.7 253.0 L 968.8 253.1 L 969.9 253.2 L 971.1 253.3 L 972.2 253.4 L 973.3 253.6 L 974.5 253.7 L 975.6 253.8 L 976.7 253.9 L 977.9 254.0 L 979.0 254.1 L 980.1 254.2 L 981.3 254.4 L 982.4 254.5 L 983.5 254.6 L 984.7 254.7 L 985.8 254.8 L 986.9 254.9 L 988.1 255.1 L 989.2 255.2 L 990.3 255.3 L 991.5 255.4 L 992.6 255.5 L 993.7 255.6 L 994.9 255.7 L 996.0 255.8 L 997.1 255.9 L 998.3 256.1 L 999.4 256.2 L 1000.5 256.3 L 1001.7 256.4 L 1002.8 256.5 L 1003.9 256.6 L 1005.1 256.7 L 1006.2 256.8 L 1007.3 256.9 L 1008.5 257.0 L 1009.6 257.1 L 1010.7 257.2 L 1011.9 257.3 L 1013.0 257.4 L 1014.1 257.5 L 1015.3 257.6 L 1016.4 257.7 L 1017.5 257.8 L 1018.7 257.9 L 1019.8 258.0 L 1020.9 258.1 L 1022.1 258.2 L 1023.2 258.3 L 1024.3 258.4 L 1025.5 258.5 L 1026.6 258.6 L 1027.7 258.7 L 1028.9 258.8 L 1030.0 258.8 L 1031.1 258.9 L 1032.3 259.0 L 1033.4 259.1 L 1034.5 259.2 L 1035.7 259.3 L 1036.8 259.4 L 1037.9 259.5 L 1039.1 259.6 L 1040.2 259.7 L 1041.3 259.7 L 1042.5 259.8 L 1043.6 259.9 L 1044.7 260.0 L 1045.9 260.1 L 1047.0 260.2 L 1048.1 260.3 L 1049.3 260.3 L 1050.4 260.4 L 1051.5 260.5 L 1052.7 260.6 L 1053.8 260.7 L 1054.9 260.8 L 1056.1 260.8 L 1057.2 260.9 L 1058.3 261.0 L 1059.5 261.1 L 1060.6 261.2 L 1061.7 261.2 L 1062.9 261.3 L 1064.0 261.4 L 1065.1 261.5 L 1066.3 261.5 L 1067.4 261.6 L 1068.5 261.7 L 1069.7 261.8 L 1070.8 261.8 L 1071.9 261.9 L 1073.1 262.0 L 1074.2 262.1 L 1075.3 262.1 L 1076.5 262.2 L 1077.6 262.3 L 1078.7 262.4 L 1079.9 262.4 L 1081.0 262.5 L 1082.1 262.6 L 1083.3 262.6 L 1084.4 262.7 L 1085.5 262.8 L 1086.7 262.9 L 1087.8 262.9 L 1088.9 263.0 L 1090.1 263.1 L 1091.2 263.1 L 1092.3 263.2 L 1093.5 263.3 L 1094.6 263.3 L 1095.7 263.4 L 1096.9 263.5 L 1098.0 263.5 L 1099.1 263.6 L 1100.3 263.7 L 1101.4 263.7 L 1102.5 263.8 L 1103.7 263.8 L 1104.8 263.9 L 1105.9 264.0 L 1107.1 264.0 L 1108.2 264.1 L 1109.3 264.2 L 1110.5 264.2 L 1111.6 264.3 L 1112.7 264.3 L 1113.9 264.4 L 1115.0 264.5 L 1116.1 264.5 L 1117.3 264.6 L 1118.4 264.6 L 1119.5 264.7 L 1120.7 264.7 L 1121.8 264.8 L 1122.9 264.9 L 1124.1 264.9 L 1125.2 265.0 L 1126.3 265.0 L 1127.5 265.1 L 1128.6 265.1 L 1129.7 265.2 L 1130.9 265.2 L 1132.0 265.3" fill="none" stroke="#0f766e" stroke-width="2.1"/>
    <path d="M 860.0 227.1 L 861.1 227.1 L 862.3 227.1 L 863.4 227.1 L 864.5 227.1 L 865.7 227.2 L 866.8 227.2 L 867.9 227.2 L 869.1 227.3 L 870.2 227.3 L 871.3 227.4 L 872.5 227.4 L 873.6 227.4 L 874.7 227.5 L 875.9 227.5 L 877.0 227.5 L 878.1 227.5 L 879.3 227.5 L 880.4 227.6 L 881.5 227.6 L 882.7 227.6 L 883.8 227.6 L 884.9 227.6 L 886.1 227.6 L 887.2 227.6 L 888.3 227.6 L 889.5 227.6 L 890.6 227.5 L 891.7 227.5 L 892.9 227.5 L 894.0 227.5 L 895.1 227.4 L 896.3 227.4 L 897.4 227.4 L 898.5 227.4 L 899.7 227.3 L 900.8 227.3 L 901.9 227.3 L 903.1 227.2 L 904.2 227.2 L 905.3 227.1 L 906.5 227.1 L 907.6 227.1 L 908.7 227.0 L 909.9 227.0 L 911.0 227.0 L 912.1 226.9 L 913.3 226.9 L 914.4 226.8 L 915.5 226.8 L 916.7 226.8 L 917.8 226.7 L 918.9 226.7 L 920.1 226.7 L 921.2 226.6 L 922.3 226.6 L 923.5 226.6 L 924.6 226.5 L 925.7 226.5 L 926.9 226.5 L 928.0 226.4 L 929.1 226.4 L 930.3 226.4 L 931.4 226.3 L 932.5 226.3 L 933.7 226.3 L 934.8 226.3 L 935.9 226.2 L 937.1 226.2 L 938.2 226.2 L 939.3 226.2 L 940.5 226.1 L 941.6 226.1 L 942.7 226.1 L 943.9 226.1 L 945.0 226.1 L 946.1 226.0 L 947.3 226.0 L 948.4 226.0 L 949.5 226.0 L 950.7 226.0 L 951.8 226.0 L 952.9 225.9 L 954.1 225.9 L 955.2 225.9 L 956.3 225.9 L 957.5 225.9 L 958.6 225.9 L 959.7 225.9 L 960.9 225.8 L 962.0 225.8 L 963.1 225.8 L 964.3 225.8 L 965.4 225.8 L 966.5 225.8 L 967.7 225.8 L 968.8 225.8 L 969.9 225.8 L 971.1 225.8 L 972.2 225.8 L 973.3 225.7 L 974.5 225.7 L 975.6 225.7 L 976.7 225.7 L 977.9 225.7 L 979.0 225.7 L 980.1 225.7 L 981.3 225.7 L 982.4 225.7 L 983.5 225.7 L 984.7 225.7 L 985.8 225.7 L 986.9 225.7 L 988.1 225.7 L 989.2 225.7 L 990.3 225.7 L 991.5 225.7 L 992.6 225.7 L 993.7 225.7 L 994.9 225.7 L 996.0 225.7 L 997.1 225.7 L 998.3 225.6 L 999.4 225.6 L 1000.5 225.6 L 1001.7 225.6 L 1002.8 225.6 L 1003.9 225.6 L 1005.1 225.6 L 1006.2 225.6 L 1007.3 225.6 L 1008.5 225.6 L 1009.6 225.6 L 1010.7 225.6 L 1011.9 225.6 L 1013.0 225.6 L 1014.1 225.6 L 1015.3 225.6 L 1016.4 225.6 L 1017.5 225.6 L 1018.7 225.6 L 1019.8 225.6 L 1020.9 225.6 L 1022.1 225.6 L 1023.2 225.6 L 1024.3 225.6 L 1025.5 225.6 L 1026.6 225.6 L 1027.7 225.6 L 1028.9 225.6 L 1030.0 225.6 L 1031.1 225.6 L 1032.3 225.6 L 1033.4 225.6 L 1034.5 225.6 L 1035.7 225.6 L 1036.8 225.6 L 1037.9 225.6 L 1039.1 225.6 L 1040.2 225.6 L 1041.3 225.6 L 1042.5 225.6 L 1043.6 225.6 L 1044.7 225.6 L 1045.9 225.6 L 1047.0 225.6 L 1048.1 225.6 L 1049.3 225.6 L 1050.4 225.6 L 1051.5 225.6 L 1052.7 225.6 L 1053.8 225.6 L 1054.9 225.6 L 1056.1 225.6 L 1057.2 225.6 L 1058.3 225.6 L 1059.5 225.6 L 1060.6 225.6 L 1061.7 225.6 L 1062.9 225.6 L 1064.0 225.6 L 1065.1 225.6 L 1066.3 225.6 L 1067.4 225.6 L 1068.5 225.6 L 1069.7 225.6 L 1070.8 225.6 L 1071.9 225.6 L 1073.1 225.6 L 1074.2 225.6 L 1075.3 225.6 L 1076.5 225.6 L 1077.6 225.6 L 1078.7 225.6 L 1079.9 225.6 L 1081.0 225.6 L 1082.1 225.6 L 1083.3 225.6 L 1084.4 225.6 L 1085.5 225.6 L 1086.7 225.6 L 1087.8 225.6 L 1088.9 225.6 L 1090.1 225.6 L 1091.2 225.6 L 1092.3 225.6 L 1093.5 225.6 L 1094.6 225.6 L 1095.7 225.6 L 1096.9 225.6 L 1098.0 225.6 L 1099.1 225.6 L 1100.3 225.6 L 1101.4 225.6 L 1102.5 225.6 L 1103.7 225.6 L 1104.8 225.6 L 1105.9 225.6 L 1107.1 225.6 L 1108.2 225.6 L 1109.3 225.6 L 1110.5 225.6 L 1111.6 225.6 L 1112.7 225.6 L 1113.9 225.6 L 1115.0 225.6 L 1116.1 225.6 L 1117.3 225.6 L 1118.4 225.6 L 1119.5 225.6 L 1120.7 225.6 L 1121.8 225.6 L 1122.9 225.6 L 1124.1 225.6 L 1125.2 225.6 L 1126.3 225.6 L 1127.5 225.6 L 1128.6 225.6 L 1129.7 225.6 L 1130.9 225.6 L 1132.0 225.6" fill="none" stroke="#dc2626" stroke-width="2.1"/>
    <path d="M 860.0 244.5 L 861.1 246.7 L 862.3 248.0 L 863.4 249.0 L 864.5 249.8 L 865.7 250.3 L 866.8 250.6 L 867.9 250.7 L 869.1 250.8 L 870.2 250.7 L 871.3 250.6 L 872.5 250.5 L 873.6 250.3 L 874.7 250.1 L 875.9 249.8 L 877.0 249.6 L 878.1 249.4 L 879.3 249.2 L 880.4 249.1 L 881.5 249.0 L 882.7 248.9 L 883.8 248.8 L 884.9 248.7 L 886.1 248.7 L 887.2 248.7 L 888.3 248.6 L 889.5 248.6 L 890.6 248.6 L 891.7 248.6 L 892.9 248.5 L 894.0 248.5 L 895.1 248.5 L 896.3 248.5 L 897.4 248.5 L 898.5 248.5 L 899.7 248.5 L 900.8 248.5 L 901.9 248.5 L 903.1 248.5 L 904.2 248.5 L 905.3 248.5 L 906.5 248.5 L 907.6 248.5 L 908.7 248.5 L 909.9 248.5 L 911.0 248.5 L 912.1 248.5 L 913.3 248.5 L 914.4 248.5 L 915.5 248.5 L 916.7 248.5 L 917.8 248.5 L 918.9 248.5 L 920.1 248.5 L 921.2 248.5 L 922.3 248.5 L 923.5 248.5 L 924.6 248.5 L 925.7 248.5 L 926.9 248.5 L 928.0 248.5 L 929.1 248.5 L 930.3 248.5 L 931.4 248.5 L 932.5 248.5 L 933.7 248.5 L 934.8 248.5 L 935.9 248.5 L 937.1 248.5 L 938.2 248.5 L 939.3 248.5 L 940.5 248.5 L 941.6 248.5 L 942.7 248.5 L 943.9 248.5 L 945.0 248.5 L 946.1 248.5 L 947.3 248.5 L 948.4 248.5 L 949.5 248.5 L 950.7 248.5 L 951.8 248.5 L 952.9 248.5 L 954.1 248.5 L 955.2 248.5 L 956.3 248.5 L 957.5 248.5 L 958.6 248.5 L 959.7 248.5 L 960.9 248.5 L 962.0 248.5 L 963.1 248.5 L 964.3 248.5 L 965.4 248.5 L 966.5 248.5 L 967.7 248.5 L 968.8 248.5 L 969.9 248.5 L 971.1 248.5 L 972.2 248.5 L 973.3 248.5 L 974.5 248.5 L 975.6 248.5 L 976.7 248.5 L 977.9 248.5 L 979.0 248.5 L 980.1 248.5 L 981.3 248.5 L 982.4 248.5 L 983.5 248.5 L 984.7 248.5 L 985.8 248.5 L 986.9 248.5 L 988.1 248.5 L 989.2 248.5 L 990.3 248.6 L 991.5 248.7 L 992.6 248.8 L 993.7 248.9 L 994.9 249.0 L 996.0 249.1 L 997.1 249.2 L 998.3 249.3 L 999.4 249.4 L 1000.5 249.5 L 1001.7 249.7 L 1002.8 249.8 L 1003.9 249.9 L 1005.1 250.0 L 1006.2 250.2 L 1007.3 250.3 L 1008.5 250.4 L 1009.6 250.5 L 1010.7 250.7 L 1011.9 250.8 L 1013.0 250.9 L 1014.1 251.0 L 1015.3 251.1 L 1016.4 251.2 L 1017.5 251.4 L 1018.7 251.5 L 1019.8 251.6 L 1020.9 251.7 L 1022.1 251.8 L 1023.2 251.9 L 1024.3 252.0 L 1025.5 252.1 L 1026.6 252.2 L 1027.7 252.3 L 1028.9 252.4 L 1030.0 252.6 L 1031.1 252.7 L 1032.3 252.8 L 1033.4 252.9 L 1034.5 253.0 L 1035.7 253.1 L 1036.8 253.2 L 1037.9 253.3 L 1039.1 253.4 L 1040.2 253.5 L 1041.3 253.5 L 1042.5 253.6 L 1043.6 253.7 L 1044.7 253.8 L 1045.9 253.9 L 1047.0 254.0 L 1048.1 254.1 L 1049.3 254.2 L 1050.4 254.3 L 1051.5 254.4 L 1052.7 254.5 L 1053.8 254.6 L 1054.9 254.7 L 1056.1 254.8 L 1057.2 254.9 L 1058.3 254.9 L 1059.5 255.0 L 1060.6 255.1 L 1061.7 255.2 L 1062.9 255.3 L 1064.0 255.4 L 1065.1 255.5 L 1066.3 255.6 L 1067.4 255.6 L 1068.5 255.7 L 1069.7 255.8 L 1070.8 255.9 L 1071.9 256.0 L 1073.1 256.1 L 1074.2 256.2 L 1075.3 256.3 L 1076.5 256.3 L 1077.6 256.4 L 1078.7 256.5 L 1079.9 256.6 L 1081.0 256.7 L 1082.1 256.8 L 1083.3 256.8 L 1084.4 256.9 L 1085.5 257.0 L 1086.7 257.1 L 1087.8 257.2 L 1088.9 257.3 L 1090.1 257.3 L 1091.2 257.4 L 1092.3 257.5 L 1093.5 257.6 L 1094.6 257.7 L 1095.7 257.8 L 1096.9 257.8 L 1098.0 257.9 L 1099.1 258.0 L 1100.3 258.1 L 1101.4 258.2 L 1102.5 258.2 L 1103.7 258.3 L 1104.8 258.4 L 1105.9 258.5 L 1107.1 258.6 L 1108.2 258.6 L 1109.3 258.7 L 1110.5 258.8 L 1111.6 258.9 L 1112.7 259.0 L 1113.9 259.0 L 1115.0 259.1 L 1116.1 259.2 L 1117.3 259.3 L 1118.4 259.3 L 1119.5 259.4 L 1120.7 259.5 L 1121.8 259.6 L 1122.9 259.6 L 1124.1 259.7 L 1125.2 259.8 L 1126.3 259.9 L 1127.5 260.0 L 1128.6 260.0 L 1129.7 260.1 L 1130.9 260.2 L 1132.0 260.3" fill="none" stroke="#f59e0b" stroke-width="2.1"/>
      
      <g transform="translate(866, 283)">
        <line x1="0" y1="0" x2="18" y2="0" stroke="#2563eb" stroke-width="3"/>
        <text x="24" y="4" font-family="Inter, system-ui, sans-serif" font-size="11" fill="#374151">Core MW / 10</text>
      </g>
      <g transform="translate(1012, 283)">
        <line x1="0" y1="0" x2="18" y2="0" stroke="#0f766e" stroke-width="3"/>
        <text x="24" y="4" font-family="Inter, system-ui, sans-serif" font-size="11" fill="#374151">SG level %</text>
      </g>
      <g transform="translate(866, 300)">
        <line x1="0" y1="0" x2="18" y2="0" stroke="#dc2626" stroke-width="3"/>
        <text x="24" y="4" font-family="Inter, system-ui, sans-serif" font-size="11" fill="#374151">PZR MPa x 10</text>
      </g>
      <g transform="translate(1012, 300)">
        <line x1="0" y1="0" x2="18" y2="0" stroke="#f59e0b" stroke-width="3"/>
        <text x="24" y="4" font-family="Inter, system-ui, sans-serif" font-size="11" fill="#374151">Turbine MW / 10</text>
      </g>
    </g>
    <g>
      <rect x="50" y="360" width="350" height="225" rx="12" fill="#ffffff" stroke="#d1d5db"/>
      <text x="72" y="388" font-family="Inter, system-ui, sans-serif" font-size="17" font-weight="700" fill="#111827">RCP A Trip</text>
      <text x="72" y="407" font-family="Inter, system-ui, sans-serif" font-size="11" fill="#6b7280">One reactor coolant pump coasts down and loop flow should decline without instantly collapsing.</text>
      <line x1="100" y1="539" x2="372" y2="539" stroke="#9ca3af"/>
      <line x1="100" y1="420" x2="100" y2="539" stroke="#9ca3af"/>
      <text x="92" y="424" text-anchor="end" font-family="Inter, system-ui, sans-serif" font-size="10" fill="#6b7280">420</text>
      <text x="92" y="543" text-anchor="end" font-family="Inter, system-ui, sans-serif" font-size="10" fill="#6b7280">0</text>
      
    <path d="M 100.0 457.1 L 101.1 453.2 L 102.3 453.3 L 103.4 453.4 L 104.5 453.5 L 105.7 453.6 L 106.8 453.7 L 107.9 453.8 L 109.1 453.8 L 110.2 453.9 L 111.3 454.0 L 112.5 454.0 L 113.6 454.0 L 114.7 454.1 L 115.9 454.1 L 117.0 454.2 L 118.1 454.2 L 119.3 454.2 L 120.4 454.3 L 121.5 454.3 L 122.7 454.3 L 123.8 454.3 L 124.9 454.3 L 126.1 454.4 L 127.2 454.4 L 128.3 454.4 L 129.5 454.4 L 130.6 454.4 L 131.7 454.4 L 132.9 454.5 L 134.0 454.5 L 135.1 454.5 L 136.3 454.5 L 137.4 454.5 L 138.5 454.5 L 139.7 454.5 L 140.8 454.5 L 141.9 454.5 L 143.1 454.5 L 144.2 454.5 L 145.3 454.5 L 146.5 454.5 L 147.6 454.6 L 148.7 454.6 L 149.9 454.6 L 151.0 454.6 L 152.1 454.6 L 153.3 454.6 L 154.4 454.6 L 155.5 454.6 L 156.7 454.6 L 157.8 454.6 L 158.9 454.6 L 160.1 454.6 L 161.2 454.6 L 162.3 454.6 L 163.5 454.6 L 164.6 454.6 L 165.7 454.6 L 166.9 454.6 L 168.0 454.6 L 169.1 454.6 L 170.3 454.6 L 171.4 454.6 L 172.5 454.6 L 173.7 454.6 L 174.8 454.6 L 175.9 454.6 L 177.1 454.6 L 178.2 454.6 L 179.3 454.6 L 180.5 454.6 L 181.6 454.6 L 182.7 454.6 L 183.9 454.6 L 185.0 454.6 L 186.1 454.6 L 187.3 454.6 L 188.4 454.6 L 189.5 454.6 L 190.7 454.6 L 191.8 454.6 L 192.9 454.6 L 194.1 454.6 L 195.2 454.6 L 196.3 454.6 L 197.5 454.6 L 198.6 454.6 L 199.7 454.6 L 200.9 454.6 L 202.0 454.6 L 203.1 454.6 L 204.3 454.6 L 205.4 454.6 L 206.5 454.6 L 207.7 454.6 L 208.8 454.6 L 209.9 454.6 L 211.1 454.6 L 212.2 454.6 L 213.3 454.6 L 214.5 454.6 L 215.6 454.6 L 216.7 454.6 L 217.9 454.6 L 219.0 454.6 L 220.1 454.6 L 221.3 454.6 L 222.4 454.6 L 223.5 454.6 L 224.7 454.6 L 225.8 454.6 L 226.9 454.6 L 228.1 454.6 L 229.2 454.6 L 230.3 454.6 L 231.5 454.6 L 232.6 454.6 L 233.7 454.6 L 234.9 454.6 L 236.0 454.6 L 237.1 454.6 L 238.3 454.6 L 239.4 454.6 L 240.5 454.6 L 241.7 454.6 L 242.8 454.6 L 243.9 454.6 L 245.1 454.6 L 246.2 454.6 L 247.3 454.6 L 248.5 454.6 L 249.6 454.6 L 250.7 454.6 L 251.9 454.6 L 253.0 454.6 L 254.1 454.6 L 255.3 454.6 L 256.4 454.6 L 257.5 454.6 L 258.7 454.6 L 259.8 454.6 L 260.9 454.6 L 262.1 454.6 L 263.2 454.6 L 264.3 454.6 L 265.5 454.6 L 266.6 454.6 L 267.7 454.6 L 268.9 454.6 L 270.0 454.6 L 271.1 454.6 L 272.3 454.6 L 273.4 454.6 L 274.5 454.6 L 275.7 454.6 L 276.8 454.6 L 277.9 454.6 L 279.1 454.6 L 280.2 454.6 L 281.3 454.6 L 282.5 454.6 L 283.6 454.6 L 284.7 454.6 L 285.9 454.6 L 287.0 454.6 L 288.1 454.6 L 289.3 454.6 L 290.4 454.6 L 291.5 454.6 L 292.7 454.6 L 293.8 454.6 L 294.9 454.6 L 296.1 454.6 L 297.2 454.6 L 298.3 454.6 L 299.5 454.6 L 300.6 454.6 L 301.7 454.6 L 302.9 454.6 L 304.0 454.6 L 305.1 454.6 L 306.3 454.6 L 307.4 454.6 L 308.5 454.6 L 309.7 454.6 L 310.8 454.6 L 311.9 454.6 L 313.1 454.6 L 314.2 454.6 L 315.3 454.6 L 316.5 454.6 L 317.6 454.6 L 318.7 454.6 L 319.9 454.6 L 321.0 454.6 L 322.1 454.6 L 323.3 454.6 L 324.4 454.6 L 325.5 454.6 L 326.7 454.6 L 327.8 454.6 L 328.9 454.6 L 330.1 454.6 L 331.2 454.6 L 332.3 454.6 L 333.5 454.6 L 334.6 454.6 L 335.7 454.6 L 336.9 454.6 L 338.0 454.6 L 339.1 454.6 L 340.3 454.6 L 341.4 454.6 L 342.5 454.6 L 343.7 454.6 L 344.8 454.6 L 345.9 454.6 L 347.1 454.6 L 348.2 454.6 L 349.3 454.6 L 350.5 454.6 L 351.6 454.6 L 352.7 454.6 L 353.9 454.6 L 355.0 454.6 L 356.1 454.6 L 357.3 454.6 L 358.4 454.6 L 359.5 454.6 L 360.7 454.6 L 361.8 454.6 L 362.9 454.6 L 364.1 454.6 L 365.2 454.6 L 366.3 454.6 L 367.5 454.6 L 368.6 454.6 L 369.7 454.6 L 370.9 454.6 L 372.0 454.6" fill="none" stroke="#2563eb" stroke-width="2.1"/>
    <path d="M 100.0 523.4 L 101.1 523.3 L 102.3 523.1 L 103.4 523.0 L 104.5 522.8 L 105.7 522.7 L 106.8 522.6 L 107.9 522.5 L 109.1 522.3 L 110.2 522.2 L 111.3 522.1 L 112.5 522.0 L 113.6 521.9 L 114.7 521.8 L 115.9 521.7 L 117.0 521.7 L 118.1 521.6 L 119.3 521.5 L 120.4 521.4 L 121.5 521.3 L 122.7 521.2 L 123.8 521.1 L 124.9 521.0 L 126.1 521.0 L 127.2 520.9 L 128.3 520.8 L 129.5 520.7 L 130.6 520.6 L 131.7 520.5 L 132.9 520.4 L 134.0 520.4 L 135.1 520.3 L 136.3 520.2 L 137.4 520.1 L 138.5 520.0 L 139.7 519.9 L 140.8 519.9 L 141.9 519.8 L 143.1 519.7 L 144.2 519.6 L 145.3 519.5 L 146.5 519.5 L 147.6 519.4 L 148.7 519.3 L 149.9 519.2 L 151.0 519.1 L 152.1 519.1 L 153.3 519.0 L 154.4 518.9 L 155.5 518.8 L 156.7 518.7 L 157.8 518.7 L 158.9 518.6 L 160.1 518.5 L 161.2 518.4 L 162.3 518.3 L 163.5 518.3 L 164.6 518.2 L 165.7 518.1 L 166.9 518.0 L 168.0 517.9 L 169.1 517.9 L 170.3 517.8 L 171.4 517.7 L 172.5 517.6 L 173.7 517.5 L 174.8 517.5 L 175.9 517.4 L 177.1 517.3 L 178.2 517.2 L 179.3 517.2 L 180.5 517.1 L 181.6 517.0 L 182.7 516.9 L 183.9 516.8 L 185.0 516.8 L 186.1 516.7 L 187.3 516.6 L 188.4 516.5 L 189.5 516.5 L 190.7 516.4 L 191.8 516.3 L 192.9 516.2 L 194.1 516.2 L 195.2 516.1 L 196.3 516.0 L 197.5 515.9 L 198.6 515.8 L 199.7 515.7 L 200.9 515.6 L 202.0 515.5 L 203.1 515.4 L 204.3 515.2 L 205.4 515.1 L 206.5 515.0 L 207.7 514.9 L 208.8 514.7 L 209.9 514.6 L 211.1 514.5 L 212.2 514.3 L 213.3 514.2 L 214.5 514.0 L 215.6 513.9 L 216.7 513.7 L 217.9 513.6 L 219.0 513.4 L 220.1 513.3 L 221.3 513.1 L 222.4 512.9 L 223.5 512.8 L 224.7 512.6 L 225.8 512.5 L 226.9 512.3 L 228.1 512.1 L 229.2 512.0 L 230.3 511.8 L 231.5 511.6 L 232.6 511.4 L 233.7 511.3 L 234.9 511.1 L 236.0 510.9 L 237.1 510.7 L 238.3 510.7 L 239.4 510.7 L 240.5 510.7 L 241.7 510.7 L 242.8 510.7 L 243.9 510.7 L 245.1 510.7 L 246.2 510.7 L 247.3 510.7 L 248.5 510.7 L 249.6 510.7 L 250.7 510.7 L 251.9 510.7 L 253.0 510.7 L 254.1 510.7 L 255.3 510.7 L 256.4 510.7 L 257.5 510.7 L 258.7 510.7 L 259.8 510.7 L 260.9 510.7 L 262.1 510.7 L 263.2 510.7 L 264.3 510.7 L 265.5 510.7 L 266.6 510.7 L 267.7 510.7 L 268.9 510.7 L 270.0 510.7 L 271.1 510.7 L 272.3 510.7 L 273.4 510.7 L 274.5 510.7 L 275.7 510.7 L 276.8 510.7 L 277.9 510.7 L 279.1 510.7 L 280.2 510.7 L 281.3 510.7 L 282.5 510.7 L 283.6 510.7 L 284.7 510.7 L 285.9 510.7 L 287.0 510.7 L 288.1 510.7 L 289.3 510.7 L 290.4 510.7 L 291.5 510.7 L 292.7 510.7 L 293.8 510.7 L 294.9 510.7 L 296.1 510.7 L 297.2 510.7 L 298.3 510.7 L 299.5 510.7 L 300.6 510.7 L 301.7 510.7 L 302.9 510.7 L 304.0 510.7 L 305.1 510.7 L 306.3 510.7 L 307.4 510.7 L 308.5 510.7 L 309.7 510.7 L 310.8 510.7 L 311.9 510.7 L 313.1 510.7 L 314.2 510.7 L 315.3 510.7 L 316.5 510.7 L 317.6 510.7 L 318.7 510.7 L 319.9 510.7 L 321.0 510.7 L 322.1 510.7 L 323.3 510.7 L 324.4 510.7 L 325.5 510.7 L 326.7 510.7 L 327.8 510.7 L 328.9 510.7 L 330.1 510.7 L 331.2 510.7 L 332.3 510.7 L 333.5 510.7 L 334.6 510.7 L 335.7 510.7 L 336.9 510.7 L 338.0 510.7 L 339.1 510.7 L 340.3 510.7 L 341.4 510.7 L 342.5 510.7 L 343.7 510.7 L 344.8 510.7 L 345.9 510.7 L 347.1 510.7 L 348.2 510.7 L 349.3 510.7 L 350.5 510.7 L 351.6 510.7 L 352.7 510.7 L 353.9 510.7 L 355.0 510.7 L 356.1 510.7 L 357.3 510.7 L 358.4 510.7 L 359.5 510.7 L 360.7 510.7 L 361.8 510.7 L 362.9 510.7 L 364.1 510.7 L 365.2 510.7 L 366.3 510.7 L 367.5 510.7 L 368.6 510.7 L 369.7 510.7 L 370.9 510.7 L 372.0 510.7" fill="none" stroke="#0f766e" stroke-width="2.1"/>
    <path d="M 100.0 495.1 L 101.1 495.1 L 102.3 495.1 L 103.4 495.1 L 104.5 495.1 L 105.7 495.2 L 106.8 495.2 L 107.9 495.2 L 109.1 495.3 L 110.2 495.3 L 111.3 495.4 L 112.5 495.4 L 113.6 495.4 L 114.7 495.5 L 115.9 495.5 L 117.0 495.5 L 118.1 495.5 L 119.3 495.5 L 120.4 495.6 L 121.5 495.6 L 122.7 495.6 L 123.8 495.6 L 124.9 495.6 L 126.1 495.6 L 127.2 495.6 L 128.3 495.6 L 129.5 495.6 L 130.6 495.5 L 131.7 495.5 L 132.9 495.5 L 134.0 495.5 L 135.1 495.4 L 136.3 495.4 L 137.4 495.4 L 138.5 495.4 L 139.7 495.3 L 140.8 495.3 L 141.9 495.3 L 143.1 495.2 L 144.2 495.2 L 145.3 495.1 L 146.5 495.1 L 147.6 495.1 L 148.7 495.0 L 149.9 495.0 L 151.0 495.0 L 152.1 494.9 L 153.3 494.9 L 154.4 494.8 L 155.5 494.8 L 156.7 494.8 L 157.8 494.7 L 158.9 494.7 L 160.1 494.7 L 161.2 494.6 L 162.3 494.6 L 163.5 494.6 L 164.6 494.5 L 165.7 494.5 L 166.9 494.5 L 168.0 494.4 L 169.1 494.4 L 170.3 494.4 L 171.4 494.3 L 172.5 494.3 L 173.7 494.3 L 174.8 494.3 L 175.9 494.2 L 177.1 494.2 L 178.2 494.2 L 179.3 494.2 L 180.5 494.1 L 181.6 494.1 L 182.7 494.1 L 183.9 494.1 L 185.0 494.1 L 186.1 494.0 L 187.3 494.0 L 188.4 494.0 L 189.5 494.0 L 190.7 494.0 L 191.8 494.0 L 192.9 493.9 L 194.1 493.9 L 195.2 493.9 L 196.3 493.9 L 197.5 493.9 L 198.6 493.9 L 199.7 493.9 L 200.9 493.8 L 202.0 493.8 L 203.1 493.8 L 204.3 493.8 L 205.4 493.8 L 206.5 493.8 L 207.7 493.8 L 208.8 493.8 L 209.9 493.8 L 211.1 493.8 L 212.2 493.8 L 213.3 493.7 L 214.5 493.7 L 215.6 493.7 L 216.7 493.7 L 217.9 493.7 L 219.0 493.7 L 220.1 493.7 L 221.3 493.7 L 222.4 493.7 L 223.5 493.7 L 224.7 493.7 L 225.8 493.7 L 226.9 493.7 L 228.1 493.7 L 229.2 493.7 L 230.3 493.7 L 231.5 493.7 L 232.6 493.7 L 233.7 493.7 L 234.9 493.7 L 236.0 493.7 L 237.1 493.7 L 238.3 493.6 L 239.4 493.6 L 240.5 493.6 L 241.7 493.6 L 242.8 493.6 L 243.9 493.6 L 245.1 493.6 L 246.2 493.6 L 247.3 493.6 L 248.5 493.6 L 249.6 493.6 L 250.7 493.6 L 251.9 493.6 L 253.0 493.6 L 254.1 493.6 L 255.3 493.6 L 256.4 493.6 L 257.5 493.6 L 258.7 493.6 L 259.8 493.6 L 260.9 493.6 L 262.1 493.6 L 263.2 493.6 L 264.3 493.6 L 265.5 493.6 L 266.6 493.6 L 267.7 493.6 L 268.9 493.6 L 270.0 493.6 L 271.1 493.6 L 272.3 493.6 L 273.4 493.6 L 274.5 493.6 L 275.7 493.6 L 276.8 493.6 L 277.9 493.6 L 279.1 493.6 L 280.2 493.6 L 281.3 493.6 L 282.5 493.6 L 283.6 493.6 L 284.7 493.6 L 285.9 493.6 L 287.0 493.6 L 288.1 493.6 L 289.3 493.6 L 290.4 493.6 L 291.5 493.6 L 292.7 493.6 L 293.8 493.6 L 294.9 493.6 L 296.1 493.6 L 297.2 493.6 L 298.3 493.6 L 299.5 493.6 L 300.6 493.6 L 301.7 493.6 L 302.9 493.6 L 304.0 493.6 L 305.1 493.6 L 306.3 493.6 L 307.4 493.6 L 308.5 493.6 L 309.7 493.6 L 310.8 493.6 L 311.9 493.6 L 313.1 493.6 L 314.2 493.6 L 315.3 493.6 L 316.5 493.6 L 317.6 493.6 L 318.7 493.6 L 319.9 493.6 L 321.0 493.6 L 322.1 493.6 L 323.3 493.6 L 324.4 493.6 L 325.5 493.6 L 326.7 493.6 L 327.8 493.6 L 328.9 493.6 L 330.1 493.6 L 331.2 493.6 L 332.3 493.6 L 333.5 493.6 L 334.6 493.6 L 335.7 493.6 L 336.9 493.6 L 338.0 493.6 L 339.1 493.6 L 340.3 493.6 L 341.4 493.6 L 342.5 493.6 L 343.7 493.6 L 344.8 493.6 L 345.9 493.6 L 347.1 493.6 L 348.2 493.6 L 349.3 493.6 L 350.5 493.6 L 351.6 493.6 L 352.7 493.6 L 353.9 493.6 L 355.0 493.6 L 356.1 493.6 L 357.3 493.6 L 358.4 493.6 L 359.5 493.6 L 360.7 493.6 L 361.8 493.6 L 362.9 493.6 L 364.1 493.6 L 365.2 493.6 L 366.3 493.6 L 367.5 493.6 L 368.6 493.6 L 369.7 493.6 L 370.9 493.6 L 372.0 493.6" fill="none" stroke="#dc2626" stroke-width="2.1"/>
    <path d="M 100.0 512.5 L 101.1 514.7 L 102.3 516.0 L 103.4 517.0 L 104.5 517.8 L 105.7 518.3 L 106.8 518.6 L 107.9 518.7 L 109.1 518.8 L 110.2 518.7 L 111.3 518.6 L 112.5 518.5 L 113.6 518.3 L 114.7 518.1 L 115.9 517.8 L 117.0 517.6 L 118.1 517.4 L 119.3 517.2 L 120.4 517.1 L 121.5 517.0 L 122.7 516.9 L 123.8 516.8 L 124.9 516.7 L 126.1 516.7 L 127.2 516.7 L 128.3 516.6 L 129.5 516.6 L 130.6 516.6 L 131.7 516.6 L 132.9 516.5 L 134.0 516.5 L 135.1 516.5 L 136.3 516.5 L 137.4 516.5 L 138.5 516.5 L 139.7 516.5 L 140.8 516.5 L 141.9 516.5 L 143.1 516.5 L 144.2 516.5 L 145.3 516.5 L 146.5 516.5 L 147.6 516.5 L 148.7 516.5 L 149.9 516.5 L 151.0 516.5 L 152.1 516.5 L 153.3 516.5 L 154.4 516.5 L 155.5 516.5 L 156.7 516.5 L 157.8 516.5 L 158.9 516.5 L 160.1 516.5 L 161.2 516.5 L 162.3 516.5 L 163.5 516.5 L 164.6 516.5 L 165.7 516.5 L 166.9 516.5 L 168.0 516.5 L 169.1 516.5 L 170.3 516.5 L 171.4 516.5 L 172.5 516.5 L 173.7 516.5 L 174.8 516.5 L 175.9 516.5 L 177.1 516.5 L 178.2 516.5 L 179.3 516.5 L 180.5 516.5 L 181.6 516.5 L 182.7 516.5 L 183.9 516.5 L 185.0 516.5 L 186.1 516.5 L 187.3 516.5 L 188.4 516.5 L 189.5 516.5 L 190.7 516.5 L 191.8 516.5 L 192.9 516.6 L 194.1 516.7 L 195.2 516.8 L 196.3 517.0 L 197.5 517.2 L 198.6 517.3 L 199.7 517.5 L 200.9 517.7 L 202.0 517.9 L 203.1 518.1 L 204.3 518.3 L 205.4 518.5 L 206.5 518.7 L 207.7 518.8 L 208.8 519.0 L 209.9 519.2 L 211.1 519.3 L 212.2 519.5 L 213.3 519.6 L 214.5 519.7 L 215.6 519.9 L 216.7 520.0 L 217.9 520.1 L 219.0 520.2 L 220.1 520.3 L 221.3 520.4 L 222.4 520.5 L 223.5 520.6 L 224.7 520.7 L 225.8 520.7 L 226.9 520.8 L 228.1 520.9 L 229.2 520.9 L 230.3 521.0 L 231.5 521.1 L 232.6 521.1 L 233.7 521.2 L 234.9 521.2 L 236.0 521.3 L 237.1 521.3 L 238.3 521.4 L 239.4 521.4 L 240.5 521.4 L 241.7 521.5 L 242.8 521.5 L 243.9 521.6 L 245.1 521.6 L 246.2 521.6 L 247.3 521.6 L 248.5 521.7 L 249.6 521.7 L 250.7 521.7 L 251.9 521.7 L 253.0 521.8 L 254.1 521.8 L 255.3 521.8 L 256.4 521.8 L 257.5 521.8 L 258.7 521.8 L 259.8 521.9 L 260.9 521.9 L 262.1 521.9 L 263.2 521.9 L 264.3 521.9 L 265.5 521.9 L 266.6 521.9 L 267.7 521.9 L 268.9 521.9 L 270.0 522.0 L 271.1 522.0 L 272.3 522.0 L 273.4 522.0 L 274.5 522.0 L 275.7 522.0 L 276.8 522.0 L 277.9 522.0 L 279.1 522.0 L 280.2 522.0 L 281.3 522.0 L 282.5 522.0 L 283.6 522.0 L 284.7 522.0 L 285.9 522.0 L 287.0 522.0 L 288.1 522.0 L 289.3 522.1 L 290.4 522.1 L 291.5 522.1 L 292.7 522.1 L 293.8 522.1 L 294.9 522.1 L 296.1 522.1 L 297.2 522.1 L 298.3 522.1 L 299.5 522.1 L 300.6 522.1 L 301.7 522.1 L 302.9 522.1 L 304.0 522.1 L 305.1 522.1 L 306.3 522.1 L 307.4 522.1 L 308.5 522.1 L 309.7 522.1 L 310.8 522.1 L 311.9 522.1 L 313.1 522.1 L 314.2 522.1 L 315.3 522.1 L 316.5 522.1 L 317.6 522.1 L 318.7 522.1 L 319.9 522.1 L 321.0 522.1 L 322.1 522.1 L 323.3 522.1 L 324.4 522.1 L 325.5 522.1 L 326.7 522.1 L 327.8 522.1 L 328.9 522.1 L 330.1 522.1 L 331.2 522.1 L 332.3 522.1 L 333.5 522.1 L 334.6 522.1 L 335.7 522.1 L 336.9 522.1 L 338.0 522.1 L 339.1 522.1 L 340.3 522.1 L 341.4 522.1 L 342.5 522.1 L 343.7 522.1 L 344.8 522.1 L 345.9 522.1 L 347.1 522.1 L 348.2 522.1 L 349.3 522.1 L 350.5 522.1 L 351.6 522.1 L 352.7 522.1 L 353.9 522.1 L 355.0 522.1 L 356.1 522.1 L 357.3 522.1 L 358.4 522.1 L 359.5 522.1 L 360.7 522.1 L 361.8 522.1 L 362.9 522.1 L 364.1 522.1 L 365.2 522.1 L 366.3 522.1 L 367.5 522.1 L 368.6 522.1 L 369.7 522.1 L 370.9 522.1 L 372.0 522.1" fill="none" stroke="#f59e0b" stroke-width="2.1"/>
      
      <g transform="translate(106, 551)">
        <line x1="0" y1="0" x2="18" y2="0" stroke="#2563eb" stroke-width="3"/>
        <text x="24" y="4" font-family="Inter, system-ui, sans-serif" font-size="11" fill="#374151">Core MW / 10</text>
      </g>
      <g transform="translate(252, 551)">
        <line x1="0" y1="0" x2="18" y2="0" stroke="#0f766e" stroke-width="3"/>
        <text x="24" y="4" font-family="Inter, system-ui, sans-serif" font-size="11" fill="#374151">SG level %</text>
      </g>
      <g transform="translate(106, 568)">
        <line x1="0" y1="0" x2="18" y2="0" stroke="#dc2626" stroke-width="3"/>
        <text x="24" y="4" font-family="Inter, system-ui, sans-serif" font-size="11" fill="#374151">PZR MPa x 10</text>
      </g>
      <g transform="translate(252, 568)">
        <line x1="0" y1="0" x2="18" y2="0" stroke="#f59e0b" stroke-width="3"/>
        <text x="24" y="4" font-family="Inter, system-ui, sans-serif" font-size="11" fill="#374151">Turbine MW / 10</text>
      </g>
    </g>
    <g>
      <rect x="430" y="360" width="350" height="225" rx="12" fill="#ffffff" stroke="#d1d5db"/>
      <text x="452" y="388" font-family="Inter, system-ui, sans-serif" font-size="17" font-weight="700" fill="#111827">Pressurizer Relief</text>
      <text x="452" y="407" font-family="Inter, system-ui, sans-serif" font-size="11" fill="#6b7280">Opening pressurizer relief creates relief flow and lowers steam mass/pressure tendency.</text>
      <line x1="480" y1="539" x2="752" y2="539" stroke="#9ca3af"/>
      <line x1="480" y1="420" x2="480" y2="539" stroke="#9ca3af"/>
      <text x="472" y="424" text-anchor="end" font-family="Inter, system-ui, sans-serif" font-size="10" fill="#6b7280">420</text>
      <text x="472" y="543" text-anchor="end" font-family="Inter, system-ui, sans-serif" font-size="10" fill="#6b7280">0</text>
      
    <path d="M 480.0 457.1 L 481.1 453.2 L 482.3 453.3 L 483.4 453.4 L 484.5 453.5 L 485.7 453.6 L 486.8 453.7 L 487.9 453.8 L 489.1 453.8 L 490.2 453.9 L 491.3 454.0 L 492.5 454.0 L 493.6 454.0 L 494.7 454.1 L 495.9 454.1 L 497.0 454.2 L 498.1 454.2 L 499.3 454.2 L 500.4 454.3 L 501.5 454.3 L 502.7 454.3 L 503.8 454.3 L 504.9 454.3 L 506.1 454.4 L 507.2 454.4 L 508.3 454.4 L 509.5 454.4 L 510.6 454.4 L 511.7 454.4 L 512.9 454.5 L 514.0 454.5 L 515.1 454.5 L 516.3 454.5 L 517.4 454.5 L 518.5 454.5 L 519.7 454.5 L 520.8 454.5 L 521.9 454.5 L 523.1 454.5 L 524.2 454.5 L 525.3 454.5 L 526.5 454.5 L 527.6 454.6 L 528.7 454.6 L 529.9 454.6 L 531.0 454.6 L 532.1 454.6 L 533.3 454.6 L 534.4 454.6 L 535.5 454.6 L 536.7 454.6 L 537.8 454.6 L 538.9 454.6 L 540.1 454.6 L 541.2 454.6 L 542.3 454.6 L 543.5 454.6 L 544.6 454.6 L 545.7 454.6 L 546.9 454.6 L 548.0 454.6 L 549.1 454.6 L 550.3 454.6 L 551.4 454.6 L 552.5 454.6 L 553.7 454.6 L 554.8 454.6 L 555.9 454.6 L 557.1 454.6 L 558.2 454.6 L 559.3 454.6 L 560.5 454.6 L 561.6 454.6 L 562.7 454.6 L 563.9 454.6 L 565.0 454.6 L 566.1 454.6 L 567.3 454.6 L 568.4 454.6 L 569.5 454.6 L 570.7 454.6 L 571.8 454.6 L 572.9 454.6 L 574.1 454.6 L 575.2 454.6 L 576.3 454.6 L 577.5 454.6 L 578.6 454.6 L 579.7 454.6 L 580.9 454.6 L 582.0 454.6 L 583.1 454.6 L 584.3 454.6 L 585.4 454.6 L 586.5 454.6 L 587.7 454.6 L 588.8 454.6 L 589.9 454.6 L 591.1 454.6 L 592.2 454.6 L 593.3 454.6 L 594.5 454.6 L 595.6 454.6 L 596.7 454.6 L 597.9 454.6 L 599.0 454.6 L 600.1 454.6 L 601.3 454.6 L 602.4 454.6 L 603.5 454.6 L 604.7 454.6 L 605.8 454.6 L 606.9 454.6 L 608.1 454.6 L 609.2 454.6 L 610.3 454.6 L 611.5 454.6 L 612.6 454.6 L 613.7 454.6 L 614.9 454.6 L 616.0 454.6 L 617.1 454.6 L 618.3 454.6 L 619.4 454.6 L 620.5 454.6 L 621.7 454.6 L 622.8 454.6 L 623.9 454.6 L 625.1 454.6 L 626.2 454.6 L 627.3 454.6 L 628.5 454.6 L 629.6 454.6 L 630.7 454.6 L 631.9 454.6 L 633.0 454.6 L 634.1 454.6 L 635.3 454.6 L 636.4 454.6 L 637.5 454.6 L 638.7 454.6 L 639.8 454.6 L 640.9 454.6 L 642.1 454.6 L 643.2 454.6 L 644.3 454.6 L 645.5 454.6 L 646.6 454.6 L 647.7 454.6 L 648.9 454.6 L 650.0 454.6 L 651.1 454.6 L 652.3 454.6 L 653.4 454.6 L 654.5 454.6 L 655.7 454.6 L 656.8 454.6 L 657.9 454.6 L 659.1 454.6 L 660.2 454.6 L 661.3 454.6 L 662.5 454.6 L 663.6 454.6 L 664.7 454.6 L 665.9 454.6 L 667.0 454.6 L 668.1 454.6 L 669.3 454.6 L 670.4 454.6 L 671.5 454.6 L 672.7 454.6 L 673.8 454.6 L 674.9 454.6 L 676.1 454.6 L 677.2 454.6 L 678.3 454.6 L 679.5 454.6 L 680.6 454.6 L 681.7 454.6 L 682.9 454.6 L 684.0 454.6 L 685.1 454.6 L 686.3 454.6 L 687.4 454.6 L 688.5 454.6 L 689.7 454.6 L 690.8 454.6 L 691.9 454.6 L 693.1 454.6 L 694.2 454.6 L 695.3 454.6 L 696.5 454.6 L 697.6 454.6 L 698.7 454.6 L 699.9 454.6 L 701.0 454.6 L 702.1 454.6 L 703.3 454.6 L 704.4 454.6 L 705.5 454.6 L 706.7 454.6 L 707.8 454.6 L 708.9 454.6 L 710.1 454.6 L 711.2 454.6 L 712.3 454.6 L 713.5 454.6 L 714.6 454.6 L 715.7 454.6 L 716.9 454.6 L 718.0 454.6 L 719.1 454.6 L 720.3 454.6 L 721.4 454.6 L 722.5 454.6 L 723.7 454.6 L 724.8 454.6 L 725.9 454.6 L 727.1 454.6 L 728.2 454.6 L 729.3 454.6 L 730.5 454.6 L 731.6 454.6 L 732.7 454.6 L 733.9 454.6 L 735.0 454.6 L 736.1 454.6 L 737.3 454.6 L 738.4 454.6 L 739.5 454.6 L 740.7 454.6 L 741.8 454.6 L 742.9 454.6 L 744.1 454.6 L 745.2 454.6 L 746.3 454.6 L 747.5 454.6 L 748.6 454.6 L 749.7 454.6 L 750.9 454.6 L 752.0 454.6" fill="none" stroke="#2563eb" stroke-width="2.1"/>
    <path d="M 480.0 523.4 L 481.1 523.3 L 482.3 523.1 L 483.4 523.0 L 484.5 522.8 L 485.7 522.7 L 486.8 522.6 L 487.9 522.5 L 489.1 522.3 L 490.2 522.2 L 491.3 522.1 L 492.5 522.0 L 493.6 521.9 L 494.7 521.8 L 495.9 521.7 L 497.0 521.7 L 498.1 521.6 L 499.3 521.5 L 500.4 521.4 L 501.5 521.3 L 502.7 521.2 L 503.8 521.1 L 504.9 521.0 L 506.1 521.0 L 507.2 520.9 L 508.3 520.8 L 509.5 520.7 L 510.6 520.6 L 511.7 520.5 L 512.9 520.4 L 514.0 520.4 L 515.1 520.3 L 516.3 520.2 L 517.4 520.1 L 518.5 520.0 L 519.7 519.9 L 520.8 519.9 L 521.9 519.8 L 523.1 519.7 L 524.2 519.6 L 525.3 519.5 L 526.5 519.5 L 527.6 519.4 L 528.7 519.3 L 529.9 519.2 L 531.0 519.1 L 532.1 519.1 L 533.3 519.0 L 534.4 518.9 L 535.5 518.8 L 536.7 518.7 L 537.8 518.7 L 538.9 518.6 L 540.1 518.5 L 541.2 518.4 L 542.3 518.3 L 543.5 518.3 L 544.6 518.2 L 545.7 518.1 L 546.9 518.0 L 548.0 517.9 L 549.1 517.9 L 550.3 517.8 L 551.4 517.7 L 552.5 517.6 L 553.7 517.5 L 554.8 517.5 L 555.9 517.4 L 557.1 517.3 L 558.2 517.2 L 559.3 517.2 L 560.5 517.1 L 561.6 517.0 L 562.7 516.9 L 563.9 516.8 L 565.0 516.8 L 566.1 516.7 L 567.3 516.6 L 568.4 516.5 L 569.5 516.4 L 570.7 516.4 L 571.8 516.3 L 572.9 516.2 L 574.1 516.1 L 575.2 516.1 L 576.3 516.0 L 577.5 515.9 L 578.6 515.8 L 579.7 515.7 L 580.9 515.7 L 582.0 515.6 L 583.1 515.5 L 584.3 515.4 L 585.4 515.3 L 586.5 515.3 L 587.7 515.2 L 588.8 515.1 L 589.9 515.0 L 591.1 515.0 L 592.2 514.9 L 593.3 514.8 L 594.5 514.7 L 595.6 514.6 L 596.7 514.6 L 597.9 514.5 L 599.0 514.4 L 600.1 514.3 L 601.3 514.2 L 602.4 514.2 L 603.5 514.1 L 604.7 514.0 L 605.8 513.9 L 606.9 513.9 L 608.1 513.8 L 609.2 513.7 L 610.3 513.6 L 611.5 513.5 L 612.6 513.5 L 613.7 513.4 L 614.9 513.3 L 616.0 513.2 L 617.1 513.1 L 618.3 513.1 L 619.4 513.0 L 620.5 512.9 L 621.7 512.8 L 622.8 512.7 L 623.9 512.7 L 625.1 512.6 L 626.2 512.5 L 627.3 512.4 L 628.5 512.3 L 629.6 512.3 L 630.7 512.2 L 631.9 512.1 L 633.0 512.0 L 634.1 511.9 L 635.3 511.9 L 636.4 511.8 L 637.5 511.7 L 638.7 511.6 L 639.8 511.5 L 640.9 511.5 L 642.1 511.4 L 643.2 511.3 L 644.3 511.2 L 645.5 511.1 L 646.6 511.1 L 647.7 511.0 L 648.9 510.9 L 650.0 510.8 L 651.1 510.7 L 652.3 510.7 L 653.4 510.7 L 654.5 510.7 L 655.7 510.7 L 656.8 510.7 L 657.9 510.7 L 659.1 510.7 L 660.2 510.7 L 661.3 510.7 L 662.5 510.7 L 663.6 510.7 L 664.7 510.7 L 665.9 510.7 L 667.0 510.7 L 668.1 510.7 L 669.3 510.7 L 670.4 510.7 L 671.5 510.7 L 672.7 510.7 L 673.8 510.7 L 674.9 510.7 L 676.1 510.7 L 677.2 510.7 L 678.3 510.7 L 679.5 510.7 L 680.6 510.7 L 681.7 510.7 L 682.9 510.7 L 684.0 510.7 L 685.1 510.7 L 686.3 510.7 L 687.4 510.7 L 688.5 510.7 L 689.7 510.7 L 690.8 510.7 L 691.9 510.7 L 693.1 510.7 L 694.2 510.7 L 695.3 510.7 L 696.5 510.7 L 697.6 510.7 L 698.7 510.7 L 699.9 510.7 L 701.0 510.7 L 702.1 510.7 L 703.3 510.7 L 704.4 510.7 L 705.5 510.7 L 706.7 510.7 L 707.8 510.7 L 708.9 510.7 L 710.1 510.7 L 711.2 510.7 L 712.3 510.7 L 713.5 510.7 L 714.6 510.7 L 715.7 510.7 L 716.9 510.7 L 718.0 510.7 L 719.1 510.7 L 720.3 510.7 L 721.4 510.7 L 722.5 510.7 L 723.7 510.7 L 724.8 510.7 L 725.9 510.7 L 727.1 510.7 L 728.2 510.7 L 729.3 510.7 L 730.5 510.7 L 731.6 510.7 L 732.7 510.7 L 733.9 510.7 L 735.0 510.7 L 736.1 510.7 L 737.3 510.7 L 738.4 510.7 L 739.5 510.7 L 740.7 510.7 L 741.8 510.7 L 742.9 510.7 L 744.1 510.7 L 745.2 510.7 L 746.3 510.7 L 747.5 510.7 L 748.6 510.7 L 749.7 510.7 L 750.9 510.7 L 752.0 510.7" fill="none" stroke="#0f766e" stroke-width="2.1"/>
    <path d="M 480.0 495.1 L 481.1 495.1 L 482.3 495.1 L 483.4 495.1 L 484.5 495.1 L 485.7 495.2 L 486.8 495.2 L 487.9 495.2 L 489.1 495.3 L 490.2 495.3 L 491.3 495.4 L 492.5 495.4 L 493.6 495.4 L 494.7 495.5 L 495.9 495.5 L 497.0 495.5 L 498.1 495.5 L 499.3 495.5 L 500.4 495.6 L 501.5 495.6 L 502.7 495.6 L 503.8 495.6 L 504.9 495.6 L 506.1 495.6 L 507.2 495.6 L 508.3 495.6 L 509.5 495.6 L 510.6 495.5 L 511.7 495.5 L 512.9 495.5 L 514.0 495.5 L 515.1 495.4 L 516.3 495.4 L 517.4 495.4 L 518.5 495.4 L 519.7 495.3 L 520.8 495.3 L 521.9 495.3 L 523.1 495.2 L 524.2 495.2 L 525.3 495.1 L 526.5 495.1 L 527.6 495.1 L 528.7 495.0 L 529.9 495.0 L 531.0 495.0 L 532.1 494.9 L 533.3 494.9 L 534.4 494.8 L 535.5 494.8 L 536.7 494.8 L 537.8 494.7 L 538.9 494.7 L 540.1 494.7 L 541.2 494.6 L 542.3 494.6 L 543.5 494.6 L 544.6 494.5 L 545.7 494.5 L 546.9 494.5 L 548.0 495.1 L 549.1 495.7 L 550.3 496.4 L 551.4 497.2 L 552.5 498.0 L 553.7 498.8 L 554.8 499.6 L 555.9 500.5 L 557.1 501.4 L 558.2 502.3 L 559.3 503.3 L 560.5 504.2 L 561.6 505.1 L 562.7 506.1 L 563.9 507.0 L 565.0 507.9 L 566.1 508.9 L 567.3 509.8 L 568.4 510.7 L 569.5 511.6 L 570.7 512.5 L 571.8 513.4 L 572.9 514.3 L 574.1 515.1 L 575.2 515.9 L 576.3 516.8 L 577.5 517.5 L 578.6 518.3 L 579.7 518.9 L 580.9 519.5 L 582.0 520.0 L 583.1 520.5 L 584.3 520.9 L 585.4 521.3 L 586.5 521.7 L 587.7 522.0 L 588.8 522.3 L 589.9 522.6 L 591.1 522.8 L 592.2 523.1 L 593.3 523.3 L 594.5 523.4 L 595.6 523.6 L 596.7 523.8 L 597.9 523.9 L 599.0 524.0 L 600.1 524.1 L 601.3 524.2 L 602.4 524.3 L 603.5 524.4 L 604.7 524.5 L 605.8 524.6 L 606.9 524.6 L 608.1 524.7 L 609.2 524.7 L 610.3 524.8 L 611.5 524.8 L 612.6 524.9 L 613.7 524.9 L 614.9 524.9 L 616.0 525.0 L 617.1 525.0 L 618.3 525.0 L 619.4 525.0 L 620.5 525.1 L 621.7 525.1 L 622.8 525.1 L 623.9 525.1 L 625.1 525.1 L 626.2 525.2 L 627.3 525.2 L 628.5 525.2 L 629.6 525.2 L 630.7 525.2 L 631.9 525.2 L 633.0 525.2 L 634.1 525.2 L 635.3 525.2 L 636.4 525.2 L 637.5 525.3 L 638.7 525.3 L 639.8 525.3 L 640.9 525.3 L 642.1 525.3 L 643.2 525.3 L 644.3 525.3 L 645.5 525.3 L 646.6 525.3 L 647.7 525.3 L 648.9 525.3 L 650.0 525.3 L 651.1 525.3 L 652.3 525.3 L 653.4 525.3 L 654.5 525.3 L 655.7 525.3 L 656.8 525.3 L 657.9 525.3 L 659.1 525.3 L 660.2 525.4 L 661.3 525.4 L 662.5 525.4 L 663.6 525.4 L 664.7 525.4 L 665.9 525.4 L 667.0 525.4 L 668.1 525.4 L 669.3 525.4 L 670.4 525.4 L 671.5 525.4 L 672.7 525.4 L 673.8 525.4 L 674.9 525.4 L 676.1 525.4 L 677.2 525.4 L 678.3 525.4 L 679.5 525.4 L 680.6 525.4 L 681.7 525.4 L 682.9 525.4 L 684.0 525.4 L 685.1 525.4 L 686.3 525.4 L 687.4 525.4 L 688.5 525.4 L 689.7 525.4 L 690.8 525.4 L 691.9 525.4 L 693.1 525.5 L 694.2 525.5 L 695.3 525.5 L 696.5 525.5 L 697.6 525.5 L 698.7 525.5 L 699.9 525.5 L 701.0 525.5 L 702.1 525.5 L 703.3 525.5 L 704.4 525.5 L 705.5 525.5 L 706.7 525.5 L 707.8 525.5 L 708.9 525.5 L 710.1 525.5 L 711.2 525.5 L 712.3 525.5 L 713.5 525.5 L 714.6 525.5 L 715.7 525.5 L 716.9 525.5 L 718.0 525.5 L 719.1 525.5 L 720.3 525.5 L 721.4 525.5 L 722.5 525.5 L 723.7 525.5 L 724.8 525.5 L 725.9 525.6 L 727.1 525.6 L 728.2 525.6 L 729.3 525.6 L 730.5 525.6 L 731.6 525.6 L 732.7 525.6 L 733.9 525.6 L 735.0 525.6 L 736.1 525.6 L 737.3 525.6 L 738.4 525.6 L 739.5 525.6 L 740.7 525.6 L 741.8 525.6 L 742.9 525.6 L 744.1 525.6 L 745.2 525.6 L 746.3 525.6 L 747.5 525.6 L 748.6 525.6 L 749.7 525.6 L 750.9 525.6 L 752.0 525.6" fill="none" stroke="#dc2626" stroke-width="2.1"/>
    <path d="M 480.0 512.5 L 481.1 514.7 L 482.3 516.0 L 483.4 517.0 L 484.5 517.8 L 485.7 518.3 L 486.8 518.6 L 487.9 518.7 L 489.1 518.8 L 490.2 518.7 L 491.3 518.6 L 492.5 518.5 L 493.6 518.3 L 494.7 518.1 L 495.9 517.8 L 497.0 517.6 L 498.1 517.4 L 499.3 517.2 L 500.4 517.1 L 501.5 517.0 L 502.7 516.9 L 503.8 516.8 L 504.9 516.7 L 506.1 516.7 L 507.2 516.7 L 508.3 516.6 L 509.5 516.6 L 510.6 516.6 L 511.7 516.6 L 512.9 516.5 L 514.0 516.5 L 515.1 516.5 L 516.3 516.5 L 517.4 516.5 L 518.5 516.5 L 519.7 516.5 L 520.8 516.5 L 521.9 516.5 L 523.1 516.5 L 524.2 516.5 L 525.3 516.5 L 526.5 516.5 L 527.6 516.5 L 528.7 516.5 L 529.9 516.5 L 531.0 516.5 L 532.1 516.5 L 533.3 516.5 L 534.4 516.5 L 535.5 516.5 L 536.7 516.5 L 537.8 516.5 L 538.9 516.5 L 540.1 516.5 L 541.2 516.5 L 542.3 516.5 L 543.5 516.5 L 544.6 516.5 L 545.7 516.5 L 546.9 516.5 L 548.0 516.5 L 549.1 516.5 L 550.3 516.5 L 551.4 516.5 L 552.5 516.5 L 553.7 516.5 L 554.8 516.5 L 555.9 516.5 L 557.1 516.5 L 558.2 516.5 L 559.3 516.5 L 560.5 516.5 L 561.6 516.5 L 562.7 516.5 L 563.9 516.5 L 565.0 516.5 L 566.1 516.5 L 567.3 516.5 L 568.4 516.5 L 569.5 516.5 L 570.7 516.5 L 571.8 516.5 L 572.9 516.5 L 574.1 516.5 L 575.2 516.5 L 576.3 516.5 L 577.5 516.5 L 578.6 516.5 L 579.7 516.5 L 580.9 516.5 L 582.0 516.5 L 583.1 516.5 L 584.3 516.5 L 585.4 516.5 L 586.5 516.5 L 587.7 516.5 L 588.8 516.5 L 589.9 516.5 L 591.1 516.5 L 592.2 516.5 L 593.3 516.5 L 594.5 516.5 L 595.6 516.5 L 596.7 516.5 L 597.9 516.5 L 599.0 516.5 L 600.1 516.5 L 601.3 516.5 L 602.4 516.5 L 603.5 516.5 L 604.7 516.5 L 605.8 516.5 L 606.9 516.5 L 608.1 516.5 L 609.2 516.5 L 610.3 516.5 L 611.5 516.5 L 612.6 516.5 L 613.7 516.5 L 614.9 516.5 L 616.0 516.5 L 617.1 516.5 L 618.3 516.5 L 619.4 516.5 L 620.5 516.5 L 621.7 516.5 L 622.8 516.5 L 623.9 516.5 L 625.1 516.5 L 626.2 516.5 L 627.3 516.5 L 628.5 516.5 L 629.6 516.5 L 630.7 516.5 L 631.9 516.5 L 633.0 516.5 L 634.1 516.5 L 635.3 516.5 L 636.4 516.5 L 637.5 516.5 L 638.7 516.5 L 639.8 516.5 L 640.9 516.5 L 642.1 516.5 L 643.2 516.5 L 644.3 516.5 L 645.5 516.5 L 646.6 516.5 L 647.7 516.5 L 648.9 516.5 L 650.0 516.5 L 651.1 516.5 L 652.3 516.5 L 653.4 516.5 L 654.5 516.5 L 655.7 516.5 L 656.8 516.5 L 657.9 516.5 L 659.1 516.5 L 660.2 516.5 L 661.3 516.5 L 662.5 516.5 L 663.6 516.5 L 664.7 516.5 L 665.9 516.5 L 667.0 516.5 L 668.1 516.5 L 669.3 516.5 L 670.4 516.5 L 671.5 516.5 L 672.7 516.5 L 673.8 516.5 L 674.9 516.5 L 676.1 516.5 L 677.2 516.5 L 678.3 516.5 L 679.5 516.5 L 680.6 516.5 L 681.7 516.5 L 682.9 516.5 L 684.0 516.5 L 685.1 516.5 L 686.3 516.5 L 687.4 516.5 L 688.5 516.5 L 689.7 516.5 L 690.8 516.5 L 691.9 516.5 L 693.1 516.5 L 694.2 516.5 L 695.3 516.5 L 696.5 516.5 L 697.6 516.5 L 698.7 516.5 L 699.9 516.5 L 701.0 516.5 L 702.1 516.5 L 703.3 516.5 L 704.4 516.5 L 705.5 516.5 L 706.7 516.5 L 707.8 516.5 L 708.9 516.5 L 710.1 516.5 L 711.2 516.5 L 712.3 516.5 L 713.5 516.5 L 714.6 516.5 L 715.7 516.5 L 716.9 516.5 L 718.0 516.5 L 719.1 516.5 L 720.3 516.5 L 721.4 516.5 L 722.5 516.5 L 723.7 516.5 L 724.8 516.5 L 725.9 516.5 L 727.1 516.5 L 728.2 516.5 L 729.3 516.5 L 730.5 516.5 L 731.6 516.5 L 732.7 516.5 L 733.9 516.5 L 735.0 516.5 L 736.1 516.5 L 737.3 516.5 L 738.4 516.5 L 739.5 516.5 L 740.7 516.5 L 741.8 516.5 L 742.9 516.5 L 744.1 516.5 L 745.2 516.5 L 746.3 516.5 L 747.5 516.5 L 748.6 516.5 L 749.7 516.5 L 750.9 516.5 L 752.0 516.5" fill="none" stroke="#f59e0b" stroke-width="2.1"/>
      
      <g transform="translate(486, 551)">
        <line x1="0" y1="0" x2="18" y2="0" stroke="#2563eb" stroke-width="3"/>
        <text x="24" y="4" font-family="Inter, system-ui, sans-serif" font-size="11" fill="#374151">Core MW / 10</text>
      </g>
      <g transform="translate(632, 551)">
        <line x1="0" y1="0" x2="18" y2="0" stroke="#0f766e" stroke-width="3"/>
        <text x="24" y="4" font-family="Inter, system-ui, sans-serif" font-size="11" fill="#374151">SG level %</text>
      </g>
      <g transform="translate(486, 568)">
        <line x1="0" y1="0" x2="18" y2="0" stroke="#dc2626" stroke-width="3"/>
        <text x="24" y="4" font-family="Inter, system-ui, sans-serif" font-size="11" fill="#374151">PZR MPa x 10</text>
      </g>
      <g transform="translate(632, 568)">
        <line x1="0" y1="0" x2="18" y2="0" stroke="#f59e0b" stroke-width="3"/>
        <text x="24" y="4" font-family="Inter, system-ui, sans-serif" font-size="11" fill="#374151">Turbine MW / 10</text>
      </g>
    </g>
    <g>
      <rect x="810" y="360" width="350" height="225" rx="12" fill="#ffffff" stroke="#d1d5db"/>
      <text x="832" y="388" font-family="Inter, system-ui, sans-serif" font-size="17" font-weight="700" fill="#111827">Load Reduction</text>
      <text x="832" y="407" font-family="Inter, system-ui, sans-serif" font-size="11" fill="#6b7280">Turbine load demand reduces electric output and steam demand.</text>
      <line x1="860" y1="539" x2="1132" y2="539" stroke="#9ca3af"/>
      <line x1="860" y1="420" x2="860" y2="539" stroke="#9ca3af"/>
      <text x="852" y="424" text-anchor="end" font-family="Inter, system-ui, sans-serif" font-size="10" fill="#6b7280">420</text>
      <text x="852" y="543" text-anchor="end" font-family="Inter, system-ui, sans-serif" font-size="10" fill="#6b7280">0</text>
      
    <path d="M 860.0 457.1 L 861.1 453.2 L 862.3 453.3 L 863.4 453.4 L 864.5 453.5 L 865.7 453.6 L 866.8 453.7 L 867.9 453.8 L 869.1 453.8 L 870.2 453.9 L 871.3 454.0 L 872.5 454.0 L 873.6 454.0 L 874.7 454.1 L 875.9 454.1 L 877.0 454.2 L 878.1 454.2 L 879.3 454.2 L 880.4 454.3 L 881.5 454.3 L 882.7 454.3 L 883.8 454.3 L 884.9 454.3 L 886.1 454.4 L 887.2 454.4 L 888.3 454.4 L 889.5 454.4 L 890.6 454.4 L 891.7 454.4 L 892.9 454.5 L 894.0 454.5 L 895.1 454.5 L 896.3 454.5 L 897.4 454.5 L 898.5 454.5 L 899.7 454.5 L 900.8 454.5 L 901.9 454.5 L 903.1 454.5 L 904.2 454.5 L 905.3 454.5 L 906.5 454.5 L 907.6 454.6 L 908.7 454.6 L 909.9 454.6 L 911.0 454.6 L 912.1 454.6 L 913.3 454.6 L 914.4 454.6 L 915.5 454.6 L 916.7 454.6 L 917.8 454.6 L 918.9 454.6 L 920.1 454.6 L 921.2 454.6 L 922.3 454.6 L 923.5 454.6 L 924.6 454.6 L 925.7 454.6 L 926.9 454.6 L 928.0 454.6 L 929.1 454.6 L 930.3 454.6 L 931.4 454.6 L 932.5 454.6 L 933.7 454.6 L 934.8 454.6 L 935.9 454.6 L 937.1 454.6 L 938.2 454.6 L 939.3 454.6 L 940.5 454.6 L 941.6 454.6 L 942.7 454.6 L 943.9 454.6 L 945.0 454.6 L 946.1 454.6 L 947.3 454.6 L 948.4 454.6 L 949.5 454.6 L 950.7 454.6 L 951.8 454.6 L 952.9 454.6 L 954.1 454.6 L 955.2 454.6 L 956.3 454.6 L 957.5 454.6 L 958.6 454.6 L 959.7 454.6 L 960.9 454.6 L 962.0 454.6 L 963.1 454.6 L 964.3 454.6 L 965.4 454.6 L 966.5 454.6 L 967.7 454.6 L 968.8 454.6 L 969.9 454.6 L 971.1 454.6 L 972.2 454.6 L 973.3 454.6 L 974.5 454.6 L 975.6 454.6 L 976.7 454.6 L 977.9 454.6 L 979.0 454.6 L 980.1 454.6 L 981.3 454.6 L 982.4 454.6 L 983.5 454.6 L 984.7 454.6 L 985.8 454.6 L 986.9 454.6 L 988.1 454.6 L 989.2 454.6 L 990.3 454.6 L 991.5 454.6 L 992.6 454.6 L 993.7 454.6 L 994.9 454.6 L 996.0 454.6 L 997.1 454.6 L 998.3 454.6 L 999.4 454.6 L 1000.5 454.6 L 1001.7 454.6 L 1002.8 454.6 L 1003.9 454.6 L 1005.1 454.6 L 1006.2 454.6 L 1007.3 454.6 L 1008.5 454.6 L 1009.6 454.6 L 1010.7 454.6 L 1011.9 454.6 L 1013.0 454.6 L 1014.1 454.6 L 1015.3 454.6 L 1016.4 454.6 L 1017.5 454.6 L 1018.7 454.6 L 1019.8 454.6 L 1020.9 454.6 L 1022.1 454.6 L 1023.2 454.6 L 1024.3 454.6 L 1025.5 454.6 L 1026.6 454.6 L 1027.7 454.6 L 1028.9 454.6 L 1030.0 454.6 L 1031.1 454.6 L 1032.3 454.6 L 1033.4 454.6 L 1034.5 454.6 L 1035.7 454.6 L 1036.8 454.6 L 1037.9 454.6 L 1039.1 454.6 L 1040.2 454.6 L 1041.3 454.6 L 1042.5 454.6 L 1043.6 454.6 L 1044.7 454.6 L 1045.9 454.6 L 1047.0 454.6 L 1048.1 454.6 L 1049.3 454.6 L 1050.4 454.6 L 1051.5 454.6 L 1052.7 454.6 L 1053.8 454.6 L 1054.9 454.6 L 1056.1 454.6 L 1057.2 454.6 L 1058.3 454.6 L 1059.5 454.6 L 1060.6 454.6 L 1061.7 454.6 L 1062.9 454.6 L 1064.0 454.6 L 1065.1 454.6 L 1066.3 454.6 L 1067.4 454.6 L 1068.5 454.6 L 1069.7 454.6 L 1070.8 454.6 L 1071.9 454.6 L 1073.1 454.6 L 1074.2 454.6 L 1075.3 454.6 L 1076.5 454.6 L 1077.6 454.6 L 1078.7 454.6 L 1079.9 454.6 L 1081.0 454.6 L 1082.1 454.6 L 1083.3 454.6 L 1084.4 454.6 L 1085.5 454.6 L 1086.7 454.6 L 1087.8 454.6 L 1088.9 454.6 L 1090.1 454.6 L 1091.2 454.6 L 1092.3 454.6 L 1093.5 454.6 L 1094.6 454.6 L 1095.7 454.6 L 1096.9 454.6 L 1098.0 454.6 L 1099.1 454.6 L 1100.3 454.6 L 1101.4 454.6 L 1102.5 454.6 L 1103.7 454.6 L 1104.8 454.6 L 1105.9 454.6 L 1107.1 454.6 L 1108.2 454.6 L 1109.3 454.6 L 1110.5 454.6 L 1111.6 454.6 L 1112.7 454.6 L 1113.9 454.6 L 1115.0 454.6 L 1116.1 454.6 L 1117.3 454.6 L 1118.4 454.6 L 1119.5 454.6 L 1120.7 454.6 L 1121.8 454.6 L 1122.9 454.6 L 1124.1 454.6 L 1125.2 454.6 L 1126.3 454.6 L 1127.5 454.6 L 1128.6 454.6 L 1129.7 454.6 L 1130.9 454.6 L 1132.0 454.6" fill="none" stroke="#2563eb" stroke-width="2.1"/>
    <path d="M 860.0 523.4 L 861.1 523.3 L 862.3 523.1 L 863.4 523.0 L 864.5 522.8 L 865.7 522.7 L 866.8 522.6 L 867.9 522.5 L 869.1 522.3 L 870.2 522.2 L 871.3 522.1 L 872.5 522.0 L 873.6 521.9 L 874.7 521.8 L 875.9 521.7 L 877.0 521.7 L 878.1 521.6 L 879.3 521.5 L 880.4 521.4 L 881.5 521.3 L 882.7 521.2 L 883.8 521.1 L 884.9 521.0 L 886.1 521.0 L 887.2 520.9 L 888.3 520.8 L 889.5 520.7 L 890.6 520.6 L 891.7 520.5 L 892.9 520.4 L 894.0 520.4 L 895.1 520.3 L 896.3 520.2 L 897.4 520.1 L 898.5 520.0 L 899.7 519.9 L 900.8 519.9 L 901.9 519.8 L 903.1 519.7 L 904.2 519.6 L 905.3 519.5 L 906.5 519.5 L 907.6 519.4 L 908.7 519.3 L 909.9 519.2 L 911.0 519.1 L 912.1 519.1 L 913.3 519.0 L 914.4 518.9 L 915.5 518.8 L 916.7 518.7 L 917.8 518.7 L 918.9 518.6 L 920.1 518.5 L 921.2 518.4 L 922.3 518.3 L 923.5 518.3 L 924.6 518.2 L 925.7 518.1 L 926.9 518.0 L 928.0 517.9 L 929.1 517.8 L 930.3 517.6 L 931.4 517.5 L 932.5 517.4 L 933.7 517.2 L 934.8 517.1 L 935.9 517.0 L 937.1 516.8 L 938.2 516.7 L 939.3 516.6 L 940.5 516.4 L 941.6 516.3 L 942.7 516.2 L 943.9 516.0 L 945.0 515.9 L 946.1 515.8 L 947.3 515.7 L 948.4 515.5 L 949.5 515.4 L 950.7 515.3 L 951.8 515.1 L 952.9 515.0 L 954.1 514.9 L 955.2 514.7 L 956.3 514.6 L 957.5 514.5 L 958.6 514.3 L 959.7 514.2 L 960.9 514.1 L 962.0 514.0 L 963.1 513.8 L 964.3 513.7 L 965.4 513.6 L 966.5 513.4 L 967.7 513.3 L 968.8 513.2 L 969.9 513.0 L 971.1 512.9 L 972.2 512.8 L 973.3 512.6 L 974.5 512.5 L 975.6 512.4 L 976.7 512.2 L 977.9 512.1 L 979.0 512.0 L 980.1 511.8 L 981.3 511.7 L 982.4 511.6 L 983.5 511.4 L 984.7 511.3 L 985.8 511.2 L 986.9 511.0 L 988.1 510.9 L 989.2 510.8 L 990.3 510.7 L 991.5 510.7 L 992.6 510.7 L 993.7 510.7 L 994.9 510.7 L 996.0 510.7 L 997.1 510.7 L 998.3 510.7 L 999.4 510.7 L 1000.5 510.7 L 1001.7 510.7 L 1002.8 510.7 L 1003.9 510.7 L 1005.1 510.7 L 1006.2 510.7 L 1007.3 510.7 L 1008.5 510.7 L 1009.6 510.7 L 1010.7 510.7 L 1011.9 510.7 L 1013.0 510.7 L 1014.1 510.7 L 1015.3 510.7 L 1016.4 510.7 L 1017.5 510.7 L 1018.7 510.7 L 1019.8 510.7 L 1020.9 510.7 L 1022.1 510.7 L 1023.2 510.7 L 1024.3 510.7 L 1025.5 510.7 L 1026.6 510.7 L 1027.7 510.7 L 1028.9 510.7 L 1030.0 510.7 L 1031.1 510.7 L 1032.3 510.7 L 1033.4 510.7 L 1034.5 510.7 L 1035.7 510.7 L 1036.8 510.7 L 1037.9 510.7 L 1039.1 510.7 L 1040.2 510.7 L 1041.3 510.7 L 1042.5 510.7 L 1043.6 510.7 L 1044.7 510.7 L 1045.9 510.7 L 1047.0 510.7 L 1048.1 510.7 L 1049.3 510.7 L 1050.4 510.7 L 1051.5 510.7 L 1052.7 510.7 L 1053.8 510.7 L 1054.9 510.7 L 1056.1 510.7 L 1057.2 510.7 L 1058.3 510.7 L 1059.5 510.7 L 1060.6 510.7 L 1061.7 510.7 L 1062.9 510.7 L 1064.0 510.7 L 1065.1 510.7 L 1066.3 510.7 L 1067.4 510.7 L 1068.5 510.7 L 1069.7 510.7 L 1070.8 510.7 L 1071.9 510.7 L 1073.1 510.7 L 1074.2 510.7 L 1075.3 510.7 L 1076.5 510.7 L 1077.6 510.7 L 1078.7 510.7 L 1079.9 510.7 L 1081.0 510.7 L 1082.1 510.7 L 1083.3 510.7 L 1084.4 510.7 L 1085.5 510.7 L 1086.7 510.7 L 1087.8 510.7 L 1088.9 510.7 L 1090.1 510.7 L 1091.2 510.7 L 1092.3 510.7 L 1093.5 510.7 L 1094.6 510.7 L 1095.7 510.7 L 1096.9 510.7 L 1098.0 510.7 L 1099.1 510.7 L 1100.3 510.7 L 1101.4 510.7 L 1102.5 510.7 L 1103.7 510.7 L 1104.8 510.7 L 1105.9 510.7 L 1107.1 510.7 L 1108.2 510.7 L 1109.3 510.7 L 1110.5 510.7 L 1111.6 510.7 L 1112.7 510.7 L 1113.9 510.7 L 1115.0 510.7 L 1116.1 510.7 L 1117.3 510.7 L 1118.4 510.7 L 1119.5 510.7 L 1120.7 510.7 L 1121.8 510.7 L 1122.9 510.7 L 1124.1 510.7 L 1125.2 510.7 L 1126.3 510.7 L 1127.5 510.7 L 1128.6 510.7 L 1129.7 510.7 L 1130.9 510.7 L 1132.0 510.7" fill="none" stroke="#0f766e" stroke-width="2.1"/>
    <path d="M 860.0 495.1 L 861.1 495.1 L 862.3 495.1 L 863.4 495.1 L 864.5 495.1 L 865.7 495.2 L 866.8 495.2 L 867.9 495.2 L 869.1 495.3 L 870.2 495.3 L 871.3 495.4 L 872.5 495.4 L 873.6 495.4 L 874.7 495.5 L 875.9 495.5 L 877.0 495.5 L 878.1 495.5 L 879.3 495.5 L 880.4 495.6 L 881.5 495.6 L 882.7 495.6 L 883.8 495.6 L 884.9 495.6 L 886.1 495.6 L 887.2 495.6 L 888.3 495.6 L 889.5 495.6 L 890.6 495.5 L 891.7 495.5 L 892.9 495.5 L 894.0 495.5 L 895.1 495.4 L 896.3 495.4 L 897.4 495.4 L 898.5 495.4 L 899.7 495.3 L 900.8 495.3 L 901.9 495.3 L 903.1 495.2 L 904.2 495.2 L 905.3 495.1 L 906.5 495.1 L 907.6 495.1 L 908.7 495.0 L 909.9 495.0 L 911.0 495.0 L 912.1 494.9 L 913.3 494.9 L 914.4 494.8 L 915.5 494.8 L 916.7 494.8 L 917.8 494.7 L 918.9 494.7 L 920.1 494.7 L 921.2 494.6 L 922.3 494.6 L 923.5 494.6 L 924.6 494.5 L 925.7 494.5 L 926.9 494.5 L 928.0 494.4 L 929.1 494.4 L 930.3 494.4 L 931.4 494.3 L 932.5 494.3 L 933.7 494.3 L 934.8 494.3 L 935.9 494.2 L 937.1 494.2 L 938.2 494.2 L 939.3 494.2 L 940.5 494.1 L 941.6 494.1 L 942.7 494.1 L 943.9 494.1 L 945.0 494.1 L 946.1 494.0 L 947.3 494.0 L 948.4 494.0 L 949.5 494.0 L 950.7 494.0 L 951.8 494.0 L 952.9 493.9 L 954.1 493.9 L 955.2 493.9 L 956.3 493.9 L 957.5 493.9 L 958.6 493.9 L 959.7 493.9 L 960.9 493.8 L 962.0 493.8 L 963.1 493.8 L 964.3 493.8 L 965.4 493.8 L 966.5 493.8 L 967.7 493.8 L 968.8 493.8 L 969.9 493.8 L 971.1 493.8 L 972.2 493.8 L 973.3 493.7 L 974.5 493.7 L 975.6 493.7 L 976.7 493.7 L 977.9 493.7 L 979.0 493.7 L 980.1 493.7 L 981.3 493.7 L 982.4 493.7 L 983.5 493.7 L 984.7 493.7 L 985.8 493.7 L 986.9 493.7 L 988.1 493.7 L 989.2 493.7 L 990.3 493.7 L 991.5 493.7 L 992.6 493.7 L 993.7 493.7 L 994.9 493.7 L 996.0 493.7 L 997.1 493.7 L 998.3 493.6 L 999.4 493.6 L 1000.5 493.6 L 1001.7 493.6 L 1002.8 493.6 L 1003.9 493.6 L 1005.1 493.6 L 1006.2 493.6 L 1007.3 493.6 L 1008.5 493.6 L 1009.6 493.6 L 1010.7 493.6 L 1011.9 493.6 L 1013.0 493.6 L 1014.1 493.6 L 1015.3 493.6 L 1016.4 493.6 L 1017.5 493.6 L 1018.7 493.6 L 1019.8 493.6 L 1020.9 493.6 L 1022.1 493.6 L 1023.2 493.6 L 1024.3 493.6 L 1025.5 493.6 L 1026.6 493.6 L 1027.7 493.6 L 1028.9 493.6 L 1030.0 493.6 L 1031.1 493.6 L 1032.3 493.6 L 1033.4 493.6 L 1034.5 493.6 L 1035.7 493.6 L 1036.8 493.6 L 1037.9 493.6 L 1039.1 493.6 L 1040.2 493.6 L 1041.3 493.6 L 1042.5 493.6 L 1043.6 493.6 L 1044.7 493.6 L 1045.9 493.6 L 1047.0 493.6 L 1048.1 493.6 L 1049.3 493.6 L 1050.4 493.6 L 1051.5 493.6 L 1052.7 493.6 L 1053.8 493.6 L 1054.9 493.6 L 1056.1 493.6 L 1057.2 493.6 L 1058.3 493.6 L 1059.5 493.6 L 1060.6 493.6 L 1061.7 493.6 L 1062.9 493.6 L 1064.0 493.6 L 1065.1 493.6 L 1066.3 493.6 L 1067.4 493.6 L 1068.5 493.6 L 1069.7 493.6 L 1070.8 493.6 L 1071.9 493.6 L 1073.1 493.6 L 1074.2 493.6 L 1075.3 493.6 L 1076.5 493.6 L 1077.6 493.6 L 1078.7 493.6 L 1079.9 493.6 L 1081.0 493.6 L 1082.1 493.6 L 1083.3 493.6 L 1084.4 493.6 L 1085.5 493.6 L 1086.7 493.6 L 1087.8 493.6 L 1088.9 493.6 L 1090.1 493.6 L 1091.2 493.6 L 1092.3 493.6 L 1093.5 493.6 L 1094.6 493.6 L 1095.7 493.6 L 1096.9 493.6 L 1098.0 493.6 L 1099.1 493.6 L 1100.3 493.6 L 1101.4 493.6 L 1102.5 493.6 L 1103.7 493.6 L 1104.8 493.6 L 1105.9 493.6 L 1107.1 493.6 L 1108.2 493.6 L 1109.3 493.6 L 1110.5 493.6 L 1111.6 493.6 L 1112.7 493.6 L 1113.9 493.6 L 1115.0 493.6 L 1116.1 493.6 L 1117.3 493.6 L 1118.4 493.6 L 1119.5 493.6 L 1120.7 493.6 L 1121.8 493.6 L 1122.9 493.6 L 1124.1 493.6 L 1125.2 493.6 L 1126.3 493.6 L 1127.5 493.6 L 1128.6 493.6 L 1129.7 493.6 L 1130.9 493.6 L 1132.0 493.6" fill="none" stroke="#dc2626" stroke-width="2.1"/>
    <path d="M 860.0 512.5 L 861.1 514.7 L 862.3 516.0 L 863.4 517.0 L 864.5 517.8 L 865.7 518.3 L 866.8 518.6 L 867.9 518.7 L 869.1 518.8 L 870.2 518.7 L 871.3 518.6 L 872.5 518.5 L 873.6 518.3 L 874.7 518.1 L 875.9 517.8 L 877.0 517.6 L 878.1 517.4 L 879.3 517.2 L 880.4 517.1 L 881.5 517.0 L 882.7 516.9 L 883.8 516.8 L 884.9 516.7 L 886.1 516.7 L 887.2 516.7 L 888.3 516.6 L 889.5 516.6 L 890.6 516.6 L 891.7 516.6 L 892.9 516.5 L 894.0 516.5 L 895.1 516.5 L 896.3 516.5 L 897.4 516.5 L 898.5 516.5 L 899.7 516.5 L 900.8 516.5 L 901.9 516.5 L 903.1 516.5 L 904.2 516.5 L 905.3 516.5 L 906.5 516.5 L 907.6 516.5 L 908.7 516.5 L 909.9 516.5 L 911.0 516.5 L 912.1 516.5 L 913.3 516.5 L 914.4 516.5 L 915.5 516.5 L 916.7 516.5 L 917.8 516.5 L 918.9 516.5 L 920.1 516.5 L 921.2 516.5 L 922.3 516.5 L 923.5 516.5 L 924.6 516.5 L 925.7 516.5 L 926.9 516.5 L 928.0 519.4 L 929.1 521.9 L 930.3 523.8 L 931.4 525.5 L 932.5 526.8 L 933.7 527.9 L 934.8 528.7 L 935.9 529.5 L 937.1 530.1 L 938.2 530.5 L 939.3 530.9 L 940.5 531.3 L 941.6 531.5 L 942.7 531.7 L 943.9 531.9 L 945.0 532.0 L 946.1 532.2 L 947.3 532.3 L 948.4 532.3 L 949.5 532.4 L 950.7 532.5 L 951.8 532.5 L 952.9 532.5 L 954.1 532.6 L 955.2 532.6 L 956.3 532.6 L 957.5 532.6 L 958.6 532.6 L 959.7 532.6 L 960.9 532.7 L 962.0 532.7 L 963.1 532.7 L 964.3 532.7 L 965.4 532.7 L 966.5 532.7 L 967.7 532.7 L 968.8 532.7 L 969.9 532.7 L 971.1 532.7 L 972.2 532.7 L 973.3 532.7 L 974.5 532.7 L 975.6 532.7 L 976.7 532.7 L 977.9 532.7 L 979.0 532.7 L 980.1 532.7 L 981.3 532.7 L 982.4 532.7 L 983.5 532.7 L 984.7 532.7 L 985.8 532.7 L 986.9 532.7 L 988.1 532.7 L 989.2 532.7 L 990.3 532.7 L 991.5 532.7 L 992.6 532.7 L 993.7 532.7 L 994.9 532.7 L 996.0 532.7 L 997.1 532.7 L 998.3 532.7 L 999.4 532.7 L 1000.5 532.7 L 1001.7 532.7 L 1002.8 532.7 L 1003.9 532.7 L 1005.1 532.7 L 1006.2 532.7 L 1007.3 532.7 L 1008.5 532.7 L 1009.6 532.7 L 1010.7 532.7 L 1011.9 532.7 L 1013.0 532.7 L 1014.1 532.7 L 1015.3 532.7 L 1016.4 532.7 L 1017.5 532.7 L 1018.7 532.7 L 1019.8 532.7 L 1020.9 532.7 L 1022.1 532.7 L 1023.2 532.7 L 1024.3 532.7 L 1025.5 532.7 L 1026.6 532.7 L 1027.7 532.7 L 1028.9 532.7 L 1030.0 532.7 L 1031.1 532.7 L 1032.3 532.7 L 1033.4 532.7 L 1034.5 532.7 L 1035.7 532.7 L 1036.8 532.7 L 1037.9 532.7 L 1039.1 532.7 L 1040.2 532.7 L 1041.3 532.7 L 1042.5 532.7 L 1043.6 532.7 L 1044.7 532.7 L 1045.9 532.7 L 1047.0 532.7 L 1048.1 532.7 L 1049.3 532.7 L 1050.4 532.7 L 1051.5 532.7 L 1052.7 532.7 L 1053.8 532.7 L 1054.9 532.7 L 1056.1 532.7 L 1057.2 532.7 L 1058.3 532.7 L 1059.5 532.7 L 1060.6 532.7 L 1061.7 532.7 L 1062.9 532.7 L 1064.0 532.7 L 1065.1 532.7 L 1066.3 532.7 L 1067.4 532.7 L 1068.5 532.7 L 1069.7 532.7 L 1070.8 532.7 L 1071.9 532.7 L 1073.1 532.7 L 1074.2 532.7 L 1075.3 532.7 L 1076.5 532.7 L 1077.6 532.7 L 1078.7 532.7 L 1079.9 532.7 L 1081.0 532.7 L 1082.1 532.7 L 1083.3 532.7 L 1084.4 532.7 L 1085.5 532.7 L 1086.7 532.7 L 1087.8 532.7 L 1088.9 532.7 L 1090.1 532.7 L 1091.2 532.7 L 1092.3 532.7 L 1093.5 532.7 L 1094.6 532.7 L 1095.7 532.7 L 1096.9 532.7 L 1098.0 532.7 L 1099.1 532.7 L 1100.3 532.7 L 1101.4 532.7 L 1102.5 532.7 L 1103.7 532.7 L 1104.8 532.7 L 1105.9 532.7 L 1107.1 532.7 L 1108.2 532.7 L 1109.3 532.7 L 1110.5 532.7 L 1111.6 532.7 L 1112.7 532.7 L 1113.9 532.7 L 1115.0 532.7 L 1116.1 532.7 L 1117.3 532.7 L 1118.4 532.7 L 1119.5 532.7 L 1120.7 532.7 L 1121.8 532.7 L 1122.9 532.7 L 1124.1 532.7 L 1125.2 532.7 L 1126.3 532.7 L 1127.5 532.7 L 1128.6 532.7 L 1129.7 532.7 L 1130.9 532.7 L 1132.0 532.7" fill="none" stroke="#f59e0b" stroke-width="2.1"/>
      
      <g transform="translate(866, 551)">
        <line x1="0" y1="0" x2="18" y2="0" stroke="#2563eb" stroke-width="3"/>
        <text x="24" y="4" font-family="Inter, system-ui, sans-serif" font-size="11" fill="#374151">Core MW / 10</text>
      </g>
      <g transform="translate(1012, 551)">
        <line x1="0" y1="0" x2="18" y2="0" stroke="#0f766e" stroke-width="3"/>
        <text x="24" y="4" font-family="Inter, system-ui, sans-serif" font-size="11" fill="#374151">SG level %</text>
      </g>
      <g transform="translate(866, 568)">
        <line x1="0" y1="0" x2="18" y2="0" stroke="#dc2626" stroke-width="3"/>
        <text x="24" y="4" font-family="Inter, system-ui, sans-serif" font-size="11" fill="#374151">PZR MPa x 10</text>
      </g>
      <g transform="translate(1012, 568)">
        <line x1="0" y1="0" x2="18" y2="0" stroke="#f59e0b" stroke-width="3"/>
        <text x="24" y="4" font-family="Inter, system-ui, sans-serif" font-size="11" fill="#374151">Turbine MW / 10</text>
      </g>
    </g>
</svg>